<?xml version="1.0" standalone="no"?>
<!DOCTYPE svg PUBLIC "-//W3C//DTD SVG 1.1//EN" "http://www.w3.org/Graphics/SVG/1.1/DTD/svg11.dtd" >
<svg>
<metadata>
Created by FontForge 20110222 at Fri Aug 29 05:16:48 2014
 By Orthosie Webhosting
Copyright (c) 2012 by Gabriel de Souza . All rights reserved.
</metadata>
<defs>
<font id="ClioXSBold-Bold" horiz-adv-x="622" >
  <font-face 
    font-family="Clio XS Bold"
    font-weight="700"
    font-stretch="normal"
    units-per-em="1000"
    panose-1="2 0 0 0 0 0 0 0 0 0"
    ascent="750"
    descent="-250"
    x-height="499"
    cap-height="666"
    bbox="-58 -281 1155 951"
    underline-thickness="50"
    underline-position="-50"
    unicode-range="U+0020-FB04"
  />
<missing-glyph horiz-adv-x="245" 
 />
    <glyph glyph-name="ff" unicode="ff" horiz-adv-x="870" 
d="M25 499h84v48q0 85 44 113.5t151 28.5q53 0 126 -8v-79h-111q-22 0 -30.5 -0.5t-19.5 -5.5t-14.5 -16t-3.5 -30v-51h313v48q0 85 44.5 113.5t150.5 28.5q44 0 105 -6v-81h-89q-22 0 -30.5 -0.5t-19.5 -5.5t-14.5 -16t-3.5 -30v-51h130v-86h-130v-413h-143v413h-313v-413
h-142v413h-84v86z" />
    <glyph glyph-name="fi" unicode="fi" horiz-adv-x="741" 
d="M506 609q0 43 13 54t68 11t68 -10t13 -55q0 -41 -14 -53.5t-67 -12.5q-54 0 -67.5 12.5t-13.5 53.5zM661 0h-147v413h-263v-413h-142v413h-84v86h84v48q0 85 44 113.5t151 28.5q53 0 126 -8v-79h-111q-22 0 -30.5 -0.5t-19.5 -5.5t-14.5 -16t-3.5 -30v-51h410v-499z" />
    <glyph glyph-name="fl" unicode="fl" horiz-adv-x="736" 
d="M699 61v-63q-44 -6 -57 -6q-71 0 -109 31.5t-38 115.5v463h-176q-22 0 -30.5 -0.5t-19.5 -5.5t-14.5 -16t-3.5 -30v-51h130v-86h-130v-413h-142v413h-84v86h84v48q0 85 44 113.5t151 28.5q264 0 337 -8v-559q0 -14 1 -21t6 -16.5t17.5 -15t33.5 -8.5z" />
    <glyph glyph-name="ffi" unicode="ffi" horiz-adv-x="1179" 
d="M1117 0h-147v499h147v-499zM962 609q0 43 13 54t68 11q54 0 67 -10.5t13 -54.5q0 -41 -13.5 -53.5t-66.5 -12.5q-54 0 -67.5 12.5t-13.5 53.5zM25 499h84v48q0 85 44 113.5t151 28.5q53 0 126 -8v-79h-111q-22 0 -30.5 -0.5t-19.5 -5.5t-14.5 -16t-3.5 -30v-51h313v48
q0 85 44.5 113.5t150.5 28.5q54 0 127 -8v-79h-111q-22 0 -30.5 -0.5t-19.5 -5.5t-14.5 -16t-3.5 -30v-51h130v-86h-130v-413h-143v413h-313v-413h-142v413h-84v86z" />
    <glyph glyph-name="ffl" unicode="ffl" horiz-adv-x="1179" 
d="M25 499h84v48q0 85 44 113.5t151 28.5q53 0 126 -8v-79h-111q-22 0 -30.5 -0.5t-19.5 -5.5t-14.5 -16t-3.5 -30v-51h313v48q0 85 44.5 113.5t150.5 28.5q264 0 336 -8v-2h1v-557q0 -14 1 -21t6 -16.5t18 -15t34 -8.5v-63q-44 -6 -57 -6q-72 0 -109.5 31.5t-37.5 115.5
v463h-176q-22 0 -30.5 -0.5t-19.5 -5.5t-14.5 -16t-3.5 -30v-51h130v-86h-130v-413h-143v413h-313v-413h-142v413h-84v86z" />
    <glyph glyph-name=".notdef" horiz-adv-x="245" 
 />
    <glyph glyph-name=".null" horiz-adv-x="0" 
 />
    <glyph glyph-name="nonmarkingreturn" horiz-adv-x="333" 
 />
    <glyph glyph-name="space" unicode=" " horiz-adv-x="236" 
 />
    <glyph glyph-name="exclam" unicode="!" horiz-adv-x="298" 
d="M74 174v495h143v-495h-143zM74 57q0 38 12.5 49t60.5 11q47 0 60 -10.5t13 -49.5q0 -37 -13 -48.5t-60 -11.5q-48 0 -60.5 11t-12.5 49z" />
    <glyph glyph-name="quotedbl" unicode="&#x22;" horiz-adv-x="438" 
d="M167 449h-117l37 216h139zM339 449h-122l50 216h141z" />
    <glyph glyph-name="numbersign" unicode="#" horiz-adv-x="652" 
d="M463 131v-133h-106v133h-74v-133h-106v133h-123v70h123v104h-123v75h123v131h106v-131h74v131h106v-131h124v-75h-124v-104h124v-70h-124zM357 305h-74v-104h74v104z" />
    <glyph glyph-name="dollar" unicode="$" horiz-adv-x="559" 
d="M206 -92v91q-109 3 -139 9v94q108 -11 209 -11q73 0 73 48q0 25 -33 44.5t-79.5 36t-93 37.5t-79.5 58t-33 87q0 69 47 107t128 43v97h129v-97q33 -2 66.5 -4.5t51.5 -4t19 -1.5v-93q-127 11 -230 11q-56 0 -56 -48q0 -20 33 -38.5t80 -36.5t94 -40.5t80 -61t33 -87.5
q0 -68 -46 -105.5t-125 -43.5v-91h-129z" />
    <glyph glyph-name="percent" unicode="%" horiz-adv-x="807" 
d="M608 -3q-44 0 -69 5t-44.5 21.5t-27 48.5t-7.5 85q0 55 6 85t25.5 47.5t46 22t76.5 4.5q78 0 107 -32t29 -127q0 -92 -28 -126t-114 -34zM606 248q-28 0 -34 -15.5t-6 -75.5v-18q0 -47 6 -59t36 -12q16 1 21 2t10.5 10t6.5 25.5t1 51.5q0 58 -7 74.5t-34 16.5zM189 354
q-86 0 -117 29t-31 130q0 54 6.5 85t25.5 48t45.5 22t76.5 5q79 0 108 -32.5t29 -127.5q0 -92 -28 -125.5t-115 -33.5zM187 605q-28 0 -34 -16t-6 -75v-18q0 -47 6 -59.5t36 -12.5q20 1 26.5 5t10.5 22t4 63q0 57 -8 74t-35 17zM653 667l-432 -667h-105l433 667h104z" />
    <glyph glyph-name="ampersand" unicode="&#x26;" horiz-adv-x="620" 
d="M374 423h138v-47h52v-90h-52v-273q-129 -21 -198 -21q-134 0 -190.5 39.5t-60.5 130.5v40q0 36 22 73.5t58 56.5q-40 23 -58.5 50.5t-21.5 75.5v41q0 163 247 163q72 0 187 -15v-81q-146 11 -188 11q-56 0 -77 -20t-21 -64v-34q0 -45 24 -64t70 -19h69v47zM211 203v-36
q0 -53 29 -72t83 -19q21 0 51 5v205h-69q-47 0 -70.5 -18.5t-23.5 -64.5z" />
    <glyph glyph-name="quotesingle" unicode="'" horiz-adv-x="278" 
d="M169 449h-121l44 216h140z" />
    <glyph glyph-name="parenleft" unicode="(" horiz-adv-x="322" 
d="M297 -121l-97 -65q-81 95 -122 229t-41 253q0 120 40.5 254t120.5 227l99 -64q-61 -100 -88.5 -212t-27.5 -205q0 -246 116 -417z" />
    <glyph glyph-name="parenright" unicode=")" horiz-adv-x="324" 
d="M116 -185l-97 64q113 175 113 417q0 94 -27 206t-88 212l101 64q79 -95 119.5 -228.5t40.5 -253.5t-40.5 -253.5t-121.5 -227.5z" />
    <glyph glyph-name="asterisk" unicode="*" horiz-adv-x="530" 
d="M470 523l-137 -34l85 -100l-79 -57l-83 100l-81 -101l-82 58l82 99l-137 35l27 83l135 -41v123h109v-123l132 41z" />
    <glyph glyph-name="plus" unicode="+" horiz-adv-x="586" 
d="M41 202v91h175v159h138v-159h176v-91h-176v-166h-138v166h-175z" />
    <glyph glyph-name="comma" unicode="," horiz-adv-x="292" 
d="M95 -86l-45 55q29 15 43 33q-24 5 -31 19.5t-7 46.5q0 43 13.5 54t69.5 11q54 0 67 -11t13 -54q0 -90 -123 -154z" />
    <glyph glyph-name="hyphen" unicode="-" horiz-adv-x="448" 
d="M62 227v102h303v-102h-303z" />
    <glyph glyph-name="period" unicode="." horiz-adv-x="293" 
d="M55 66q0 44 13.5 55t69.5 11t69.5 -11t13.5 -55q0 -43 -14 -56t-69 -13t-69 12.5t-14 56.5z" />
    <glyph glyph-name="slash" unicode="/" horiz-adv-x="475" 
d="M440 664l-269 -772h-144l268 772h145z" />
    <glyph glyph-name="zero" unicode="0" horiz-adv-x="616" 
d="M296 -9q-77 0 -122 12.5t-70.5 48t-33 84.5t-7.5 137q0 71 5.5 115t19 78.5t40.5 52t66.5 26t101.5 8.5q77 0 122 -12.5t71 -47.5t34 -84.5t8 -135.5q0 -87 -8 -137t-34 -85t-71 -47.5t-122 -12.5zM296 82q59 0 74.5 34.5t15.5 156.5q0 125 -15 158.5t-75 33.5
q-59 0 -74 -35t-15 -157t15 -156.5t74 -34.5z" />
    <glyph glyph-name="one" unicode="1" horiz-adv-x="394" 
d="M17 446v97h287v-543h-148v447z" />
    <glyph glyph-name="two" unicode="2" horiz-adv-x="525" 
d="M464 403q0 -30 -22 -68.5t-48 -69t-74.5 -84t-74.5 -84.5h212v-92h-386l2 78q38 47 83.5 99t69.5 80t47 57t32.5 48.5t9.5 36.5q0 54 -69 54q-29 0 -91 -1.5t-95 -1.5v89l171 2q56 0 93.5 -5t71.5 -19t51 -43.5t17 -75.5z" />
    <glyph glyph-name="three" unicode="3" horiz-adv-x="553" 
d="M477 383v-49q0 -45 -19 -71.5t-59 -49.5q37 -18 57.5 -54t20.5 -73v-38q0 -95 -63 -131t-207 -36l-155 2v83q20 0 54.5 -0.5t49.5 -0.5q94 0 135 16.5t41 70.5v34q0 45 -23 63.5t-67 18.5h-134v88h134q90 0 90 80v41q0 27 -10.5 43.5t-34.5 24.5t-49 10t-68 2l-118 -2v85
l160 3q49 1 82.5 -1t71 -10.5t60 -25.5t37 -48t14.5 -75z" />
    <glyph glyph-name="four" unicode="4" horiz-adv-x="634" 
d="M591 178v-93h-107v-197h-141v197h-322v75l281 383h182v-365h107zM183 178h161v228z" />
    <glyph glyph-name="five" unicode="5" horiz-adv-x="543" 
d="M252 260q138 0 184 -37.5t46 -143.5v-33q0 -93 -68.5 -130t-216.5 -37q-38 0 -67 0.5t-44 0.5h-19v83h137q73 0 104 18.5t31 69.5v37q0 52 -20.5 68t-73.5 16h-176v371h381v-95h-239v-188h41z" />
    <glyph glyph-name="six" unicode="6" horiz-adv-x="627" 
d="M336 381q128 0 177.5 -41t49.5 -126v-45q0 -180 -238 -180q-244 0 -244 173q0 293 5 340q11 86 68.5 124.5t187.5 38.5q15 0 187 -11v-92q-162 11 -187 9q-80 -3 -95.5 -33t-15.5 -153v-16q51 12 105 12zM413 167v50q0 40 -16 56.5t-62 16.5q-48 0 -104 -14v-116
q0 -45 23.5 -62t70.5 -17q49 0 68.5 20t19.5 66z" />
    <glyph glyph-name="seven" unicode="7" horiz-adv-x="497" 
d="M321 -112h-144l118 560h-288v95h450z" />
    <glyph glyph-name="eight" unicode="8" horiz-adv-x="625" 
d="M544 500v-41q0 -46 -18.5 -74t-57.5 -52q41 -19 63 -55t22 -76v-39q0 -91 -58.5 -132t-178.5 -41q-133 0 -195 38t-62 134v39q0 39 23.5 76t63.5 55q-40 23 -59 51t-19 75v40q0 51 17.5 85t51 52t71.5 25t90 8q45 0 77.5 -3t66 -13.5t55 -28.5t34.5 -49t13 -74zM203 166
q0 -90 96 -90q112 0 112 91v36q0 83 -95 83h-17q-96 0 -96 -84v-36zM209 458q0 -82 89 -82h16q89 0 89 83v34q0 51 -21 69t-66 18q-55 0 -81 -16t-26 -72v-34z" />
    <glyph glyph-name="nine" unicode="9" horiz-adv-x="600" 
d="M268 149q-128 0 -178 41t-50 126v45q0 180 239 180q244 0 244 -173q0 -298 -6 -340q-10 -86 -67.5 -124.5t-187.5 -38.5q-15 0 -187 11v92q137 -9 187 -9q29 0 47.5 2.5t31.5 9.5t19 18.5t10 29t3.5 42t-0.5 56.5v44q-12 -1 -34.5 -4.5t-40 -5.5t-30.5 -2zM190 363v-50
q0 -40 16.5 -56.5t62.5 -16.5q48 0 104 14v116q0 45 -23.5 62t-70.5 17q-49 0 -69 -20t-20 -66z" />
    <glyph glyph-name="colon" unicode=":" horiz-adv-x="308" 
d="M62 66q0 44 13 55t69 11t69.5 -11t13.5 -55t-13.5 -56.5t-69.5 -12.5q-55 0 -68.5 12.5t-13.5 56.5zM62 362q0 43 13 54.5t69 11.5q55 0 69 -11t14 -55t-13.5 -56.5t-69.5 -12.5q-55 0 -68.5 12.5t-13.5 56.5z" />
    <glyph glyph-name="semicolon" unicode=";" horiz-adv-x="310" 
d="M64 362q0 43 13.5 54.5t69.5 11.5q55 0 69 -11t14 -55q0 -43 -14 -56t-69 -13t-69 12.5t-14 56.5zM105 -86l-45 55q28 14 43 33q-24 5 -31 19.5t-7 46.5q0 43 13.5 54t69.5 11q54 0 67 -11t13 -54q0 -91 -123 -154z" />
    <glyph glyph-name="less" unicode="&#x3c;" horiz-adv-x="639" 
d="M550 32l-512 180v65l513 180v-104l-330 -108l329 -109v-104z" />
    <glyph glyph-name="equal" unicode="=" horiz-adv-x="618" 
d="M71 276v93h458v-93h-458zM71 123v94h458v-94h-458z" />
    <glyph glyph-name="greater" unicode="&#x3e;" horiz-adv-x="639" 
d="M581 211l-513 -180v105l328 109l-329 107v105l514 -181v-65z" />
    <glyph glyph-name="question" unicode="?" horiz-adv-x="529" 
d="M186 680q46 0 75.5 -1.5t67 -6t61 -15.5t45.5 -28.5t32.5 -46t10.5 -66.5v-24q0 -89 -55.5 -130t-185.5 -41v-123h-140v213l139 1q91 0 91 81v16q0 26 -7 42.5t-15 25t-30 12.5t-35 4.5t-48 0.5h-151v86h145zM94 57q0 38 12.5 49t60.5 11t60.5 -10.5t12.5 -49.5
q0 -37 -13 -48.5t-60 -11.5q-48 0 -60.5 11t-12.5 49z" />
    <glyph glyph-name="at" unicode="@" horiz-adv-x="807" 
d="M58 289q0 65 4.5 109.5t17.5 88t37 70t62.5 48t95.5 30.5t135 9q132 0 205 -30.5t101.5 -90.5t28.5 -165q0 -137 -39.5 -191t-125.5 -54q-69 0 -115 49q-57 -23 -102 -23q-70 0 -98.5 36t-28.5 118q0 103 33 151.5t131 48.5q76 0 154 -24q-6 -182 -10 -277q10 -12 27 -12
q21 0 34 12.5t18 33.5t7 44.5t3 48.5v15q0 46 -2.5 75t-10 57.5t-22 44t-39 28.5t-60 18t-85.5 5q-56 0 -94.5 -5.5t-65 -21t-42 -34.5t-23.5 -55t-10.5 -72t-2.5 -96q0 -106 51.5 -149t173.5 -43h113q0 -14 -0.5 -41.5t-0.5 -41.5h-137q-168 0 -243 66.5t-75 219.5z
M400 417q-34 0 -46 -25.5t-12 -87.5q0 -50 7 -69.5t24 -19.5q37 0 74 12q0 8 3.5 79.5t5.5 107.5q-26 3 -56 3z" />
    <glyph glyph-name="A" unicode="A" horiz-adv-x="697" 
d="M150 0h-151l234 667h202l239 -667h-148l-59 171h-260zM335 553l-96 -287h194z" />
    <glyph glyph-name="B" unicode="B" horiz-adv-x="657" 
d="M297 0h-217v668h217q52 0 88 -2.5t76 -12.5t64.5 -28t40.5 -49.5t16 -76.5v-43q0 -44 -19 -70.5t-58 -49.5q37 -18 57 -54.5t20 -73.5v-40q0 -97 -65.5 -132.5t-219.5 -35.5zM227 285v-199h75q69 0 101 19.5t32 68.5v35q0 43 -23 59.5t-68 16.5h-117zM302 581h-75v-199
h117q44 0 67.5 17t23.5 59v33q0 58 -30.5 74t-102.5 16z" />
    <glyph glyph-name="C" unicode="C" horiz-adv-x="650" 
d="M388 86q51 0 201 4v-77q-97 -22 -240 -22q-83 0 -136 13t-90.5 47.5t-53.5 94.5t-16 155q0 65 2 106.5t8.5 85.5t19 70t33 51t52 37.5t74 20t100.5 7.5q106 0 243 -16v-88q-188 13 -218 13q-38 0 -63.5 -4.5t-44 -19.5t-28.5 -33t-15.5 -55.5t-7 -75t-1.5 -102.5
q0 -39 2 -68.5t8 -52t12 -38t19.5 -25.5t24 -15.5t32 -8.5t37.5 -3.5t46 -0.5z" />
    <glyph glyph-name="D" unicode="D" horiz-adv-x="723" 
d="M80 0v668l285 1q81 0 131 -13t87 -50t52 -103t15 -172q0 -103 -13 -166t-46.5 -100.5t-83 -51t-130.5 -13.5h-297zM370 581h-143v-490l145 -1q47 1 73.5 18.5t41.5 71t15 151.5q0 113 -12.5 165.5t-38 68.5t-81.5 16z" />
    <glyph glyph-name="E" unicode="E" horiz-adv-x="636" 
d="M564 0h-484v668h484v-96h-337v-184h309v-97h-309v-196h337v-95z" />
    <glyph glyph-name="F" unicode="F" horiz-adv-x="613" 
d="M228 0h-148v667h490v-94h-342v-187h294v-95h-294v-291z" />
    <glyph glyph-name="G" unicode="G" horiz-adv-x="662" 
d="M326 253v78h264v-318q-97 -22 -239 -22q-67 0 -113 8t-83 28t-58 55.5t-32 89t-11 129.5q0 65 2 106.5t8.5 85.5t19 70t33 51t52 37.5t74 20t100.5 7.5q106 0 243 -16v-88q-188 13 -218 13q-46 0 -74 -9t-46 -25.5t-26.5 -54.5t-11 -80.5t-2.5 -120.5q0 -53 4.5 -90
t13.5 -60.5t23 -36.5t33 -18.5t43 -6.5t54 0h35h31v167h-119z" />
    <glyph glyph-name="H" unicode="H" horiz-adv-x="745" 
d="M650 0h-150v295h-270v-295h-150v668h150v-281h270v281h150v-668z" />
    <glyph glyph-name="I" unicode="I" horiz-adv-x="319" 
d="M228 667v-667h-148v667h148z" />
    <glyph glyph-name="J" unicode="J" horiz-adv-x="373" 
d="M306 670v-536q0 -87 -46 -119t-151 -25l-91 4v81q91 5 113 13q30 13 30 43v539h145z" />
    <glyph glyph-name="K" unicode="K" horiz-adv-x="684" 
d="M227 0h-147v668h147v-284h74l188 284h162l-219 -323l230 -345h-160l-197 293h-78v-293z" />
    <glyph glyph-name="L" unicode="L" horiz-adv-x="580" 
d="M549 0h-469v667h150v-572h319v-95z" />
    <glyph glyph-name="M" unicode="M" horiz-adv-x="915" 
d="M225 0h-145v668h173l198 -384l196 384h178v-668h-143v459l-172 -344h-119l-166 344v-459z" />
    <glyph glyph-name="N" unicode="N" horiz-adv-x="763" 
d="M670 0h-178l-268 450v-450h-144v668h169l273 -464v464h148v-668z" />
    <glyph glyph-name="O" unicode="O" horiz-adv-x="718" 
d="M352 -10q-65 0 -109.5 6t-77.5 23t-51.5 40t-29.5 65t-14.5 89t-3.5 120q0 75 3.5 123t15 89.5t30.5 64.5t52 39.5t76.5 22t108.5 5.5q66 0 111 -6t78.5 -22.5t52 -39.5t30 -65t15 -89.5t3.5 -121.5q0 -75 -3.5 -123t-15 -89.5t-30.5 -64t-52.5 -39t-78 -22t-110.5 -5.5z
M352 79q42 0 66 6.5t41 19.5t24.5 45.5t10 71.5t2.5 111q0 60 -1.5 94.5t-6.5 67t-14 48t-26 27.5t-39 15.5t-57 3.5q-26 0 -44.5 -2t-33.5 -9t-25 -14t-17 -24t-10.5 -32.5t-5.5 -46t-2.5 -56.5t-0.5 -72q0 -60 1 -92.5t6 -65.5t13 -48t24.5 -28t38.5 -16.5t56 -3.5z" />
    <glyph glyph-name="P" unicode="P" horiz-adv-x="679" 
d="M230 0h-150v667h287q121 0 191 -37.5t70 -130.5v-78q0 -61 -51 -108t-128 -57q-31 -4 -219 -4v-252zM230 579v-237h134q56 0 87.5 16t31.5 63v77q0 48 -32 64.5t-87 16.5h-134z" />
    <glyph glyph-name="Q" unicode="Q" horiz-adv-x="709" 
d="M634 333q0 -81 -4.5 -131t-17.5 -91.5t-37.5 -64t-64.5 -35.5l75 -28l-46 -94l-265 104q-58 5 -95.5 19t-62 37t-37 65t-17 91t-4.5 128q0 75 3.5 123t15 89.5t30.5 64.5t52.5 39.5t77 22t108.5 5.5q66 0 111 -5.5t78.5 -22.5t52 -39.5t29.5 -65t14.5 -89.5t3.5 -122z
M345 79q35 0 57 3t39 15t25.5 27t13.5 47.5t6.5 67t1.5 94.5q0 72 -2.5 110.5t-9.5 72t-23.5 46.5t-41 20t-66.5 7q-30 0 -50 -3.5t-36 -9.5t-25.5 -21.5t-15.5 -31t-8.5 -47.5t-3.5 -61.5t-1 -81.5q0 -60 1 -92.5t6 -65.5t13 -48t24.5 -28t39 -16.5t56.5 -3.5z" />
    <glyph glyph-name="R" unicode="R" horiz-adv-x="700" 
d="M230 0h-150v667h290q261 0 261 -168v-78q0 -78 -79 -132l60 -289h-155l-49 253q-24 -1 -178 -1v-252zM230 579v-237h135q56 0 87 16t31 63v77q0 48 -32 64.5t-86 16.5h-135z" />
    <glyph glyph-name="S" unicode="S" 
d="M188 516q0 -34 39 -62t95 -51.5t111.5 -51t94.5 -73.5t39 -106q0 -91 -63 -136.5t-166 -45.5t-257 10v95q150 -11 249 -11q45 0 66 18.5t21 58.5q0 37 -39 66.5t-94.5 52.5t-111 49t-94.5 69.5t-39 99.5q0 92 61.5 137t166.5 45q140 0 257 -9v-97q-154 13 -250 13
q-86 0 -86 -71z" />
    <glyph glyph-name="T" unicode="T" horiz-adv-x="642" 
d="M388 0h-152v573h-218v94h588v-94h-218v-573z" />
    <glyph glyph-name="U" unicode="U" horiz-adv-x="745" 
d="M364 79q35 0 57.5 3t40 15t26.5 27t14.5 47t7 67.5t1.5 94.5v336h148v-336q0 -75 -3.5 -123t-15 -89.5t-30.5 -64t-53.5 -39t-80 -22t-112.5 -5.5q-66 0 -111.5 6t-78.5 23.5t-52 40t-30 64.5t-14.5 89t-3.5 120v336h149v-336q0 -72 2 -108t9 -70.5t23 -47.5t40.5 -20.5
t66.5 -7.5z" />
    <glyph glyph-name="V" unicode="V" horiz-adv-x="704" 
d="M3 667h152l184 -553l192 553h148l-240 -667h-202z" />
    <glyph glyph-name="W" unicode="W" horiz-adv-x="1020" 
d="M293 135l139 533h138l139 -535l130 534h144l-165 -667h-193l-125 466l-128 -466h-184l-171 667h145z" />
    <glyph glyph-name="X" unicode="X" horiz-adv-x="660" 
d="M641 0h-159l-154 228l-152 -228h-161l229 337l-220 330h160l143 -214l146 214h159l-220 -328z" />
    <glyph glyph-name="Y" unicode="Y" horiz-adv-x="645" 
d="M385 0h-151v212l-241 456h166l150 -315l154 315h165l-243 -456v-212z" />
    <glyph glyph-name="Z" unicode="Z" horiz-adv-x="647" 
d="M594 0h-556v84l376 489h-368v96h539v-88l-371 -487h380v-94z" />
    <glyph glyph-name="bracketleft" unicode="[" horiz-adv-x="354" 
d="M323 -134h-257v936h257v-88h-116v-758h116v-90z" />
    <glyph glyph-name="backslash" unicode="\" horiz-adv-x="476" 
d="M296 -108l-269 771h145l268 -771h-144z" />
    <glyph glyph-name="bracketright" unicode="]" horiz-adv-x="354" 
d="M277 -134h-257v90h114v758h-114v88h257v-936z" />
    <glyph glyph-name="asciicircum" unicode="^" horiz-adv-x="551" 
d="M176 382h-140l171 291h125l170 -291h-138l-94 179z" />
    <glyph glyph-name="underscore" unicode="_" horiz-adv-x="665" 
d="M582 -69h-520v67h520v-67z" />
    <glyph glyph-name="grave" unicode="`" horiz-adv-x="390" 
d="M63 720l93 43l111 -176l-89 -42z" />
    <glyph glyph-name="a" unicode="a" horiz-adv-x="577" 
d="M502 368v-368h-123q-2 5 -5.5 19.5t-5.5 20.5q-92 -49 -157 -49q-91 0 -131.5 45.5t-40.5 120.5q0 121 139 136q33 4 179 -3v80q0 33 -15 41.5t-52 8.5q-106 0 -197 -12q-1 4 -11 42t-10 41q119 19 235 19q105 0 150 -29t45 -113zM357 120v96q-105 0 -141 -11.5
t-36 -52.5q0 -63 43 -63q41 0 134 31z" />
    <glyph glyph-name="b" unicode="b" horiz-adv-x="586" 
d="M525 285q0 -56 -2.5 -93t-11 -73t-24.5 -57.5t-42 -38.5t-64.5 -24t-92.5 -7q-85 0 -220 15v682h141v-196q77 15 125 15q104 0 147.5 -51.5t43.5 -171.5zM381 279q0 69 -9 100t-38 37q-33 9 -123 -10v-320q20 -1 72 -1h3q23 0 39.5 4t27 17t16.5 24.5t8.5 39t3 47.5
t0.5 62z" />
    <glyph glyph-name="c" unicode="c" horiz-adv-x="564" 
d="M200 223q0 -48 6.5 -76t24.5 -43t40.5 -19t62.5 -4q51 0 168 9v-76q-102 -23 -214 -23q-66 0 -105 7.5t-70.5 31.5t-44.5 71t-13 125q0 60 2.5 98t11 73t23.5 54t40.5 33.5t61.5 20t88 5.5q104 0 214 -17v-85q-167 12 -195 12q-30 0 -48 -6t-29.5 -16t-16 -37.5t-6 -54
t-1.5 -83.5z" />
    <glyph glyph-name="d" unicode="d" horiz-adv-x="586" 
d="M54 256v29q3 123 43 174t143 51q60 0 122 -12v190h143v-688h-115q-6 18 -10 34q-93 -40 -148 -40q-93 0 -135.5 62t-42.5 200zM200 282q0 -110 10.5 -152t42.5 -42q40 0 109 30v294q-101 20 -131.5 -5t-30.5 -125z" />
    <glyph glyph-name="e" unicode="e" horiz-adv-x="586" 
d="M531 252v-35h-53q-47 0 -140.5 -1t-140.5 -1q1 -51 7.5 -79.5t25.5 -41t37 -15t58 -2.5q49 0 175 11v-77q-142 -20 -226 -20q-71 0 -113 12.5t-66 45t-32 78.5t-8 124q0 65 5 105t18.5 73t40.5 49t68.5 24.5t105.5 8.5q76 0 121.5 -11.5t72 -43.5t35.5 -78t9 -126z
M293 424q-27 0 -44 -5.5t-26.5 -12t-14.5 -25.5t-6.5 -32.5t-3.5 -47.5h196q-2 80 -19.5 101.5t-81.5 21.5z" />
    <glyph glyph-name="f" unicode="f" horiz-adv-x="430" 
d="M25 499h84v48q0 85 44 113.5t151 28.5q50 0 116 -7v-80h-101q-22 0 -30.5 -0.5t-19.5 -5.5t-14.5 -16t-3.5 -30v-51h130v-86h-130v-413h-142v413h-84v86z" />
    <glyph glyph-name="g" unicode="g" horiz-adv-x="636" 
d="M226 147q0 -24 47 -24q15 0 42 1t41 1q40 0 69.5 -2.5t62.5 -10.5t54 -22.5t35 -40t14 -61.5q0 -85 -60.5 -125.5t-163.5 -40.5q-75 0 -155 4t-98 4v86q147 -6 246 -6q45 0 65.5 16.5t20.5 54.5q0 32 -21.5 43t-60.5 11q-12 0 -43 -1t-48 -1q-55 0 -93 8t-66.5 35.5
t-28.5 74.5q0 29 17 54q-50 38 -50 132q0 90 45.5 128.5t172.5 39.5l326 1v-75l-65 -8q16 -35 16 -86q0 -95 -45.5 -132t-145.5 -37h-129q-1 0 -1 -21zM332 250q41 0 58 22t17 71q0 48 -16.5 63.5t-61.5 15.5h-55q-48 0 -65 -16t-17 -69q0 -49 16 -67t59 -20h65z" />
    <glyph glyph-name="h" unicode="h" horiz-adv-x="613" 
d="M535 0h-144v373q0 38 -35 38q-69 0 -144 -23v-388h-143v681h142v-205q127 31 170 31q154 0 154 -126v-381z" />
    <glyph glyph-name="i" unicode="i" horiz-adv-x="294" 
d="M216 0h-147v499h147v-499zM62 609q0 43 13 54t67 11q55 0 68 -10t13 -55q0 -41 -14 -53.5t-67 -12.5t-66.5 12t-13.5 54z" />
    <glyph glyph-name="j" unicode="j" horiz-adv-x="281" 
d="M1 -182v63q40 6 53 21t13 41v557h146v-541q0 -84 -37.5 -115t-108.5 -31q-20 0 -66 5zM60 609q0 43 13 54t67 11q55 0 68.5 -10.5t13.5 -54.5q0 -41 -14.5 -53.5t-67.5 -12.5t-66.5 12t-13.5 54z" />
    <glyph glyph-name="k" unicode="k" horiz-adv-x="625" 
d="M212 0h-143v679h143v-346h74l142 238h150l-170 -283l199 -288h-153l-168 242h-74v-242z" />
    <glyph glyph-name="l" unicode="l" horiz-adv-x="307" 
d="M272 61v-63q-44 -6 -57 -6q-71 0 -109 31.5t-38 115.5v540h146v-557q0 -14 1 -21t6 -16.5t17.5 -15t33.5 -8.5z" />
    <glyph glyph-name="m" unicode="m" horiz-adv-x="927" 
d="M849 0h-147v368q0 40 -33 40q-54 0 -135 -19q0 -63 0.5 -194.5t0.5 -194.5h-145v372q0 37 -34 37q-54 0 -142 -27v-382h-145v499h120l14 -33q115 43 176 43q65 0 118 -45q4 1 31.5 10t34.5 11.5t30 8.5t35 8t30 4.5t34 2.5q157 0 157 -128v-381z" />
    <glyph glyph-name="n" unicode="n" horiz-adv-x="613" 
d="M538 0h-146v372q0 37 -37 37q-56 0 -140 -27v-382h-146v499h121l14 -35q6 2 33 12t37.5 13t32 9t39 8.5t34.5 2.5q69 0 112.5 -31t43.5 -93z" />
    <glyph glyph-name="o" unicode="o" horiz-adv-x="616" 
d="M297 -9q-54 0 -91.5 5t-65.5 18t-44 31t-26 49.5t-13 66.5t-3 89q0 82 8.5 128t35 77.5t73 42.5t126.5 11q81 0 128 -11.5t73.5 -43.5t35 -77.5t8.5 -126.5q0 -80 -8.5 -126t-35.5 -78t-74 -43.5t-127 -11.5zM297 75q69 0 86 31.5t17 143.5q0 115 -17.5 146.5t-85.5 31.5
t-84.5 -32t-16.5 -146q0 -113 16.5 -144t84.5 -31z" />
    <glyph glyph-name="p" unicode="p" horiz-adv-x="586" 
d="M521 243v-29q-4 -124 -43.5 -174.5t-142.5 -50.5q-60 0 -122 12v-190h-144v688h116q2 -6 5.5 -17t4.5 -17q93 40 148 40q93 0 135.5 -62t42.5 -200zM374 217q0 110 -10.5 152t-42.5 42q-39 0 -108 -30v-294q100 -20 130.5 5t30.5 125z" />
    <glyph glyph-name="q" unicode="q" horiz-adv-x="587" 
d="M52 218q0 56 2.5 93t11 73t24.5 57.5t42 38.5t64.5 24t92.5 7q86 0 219 -15v-682h-141v196q-75 -15 -124 -15q-104 0 -147.5 51.5t-43.5 171.5zM196 224q0 -69 9 -100t38 -37q33 -9 123 10v320q-20 1 -73 1h-2q-23 0 -39.5 -4t-27 -17t-16.5 -24.5t-8.5 -39t-3 -47.5
t-0.5 -62z" />
    <glyph glyph-name="r" unicode="r" horiz-adv-x="412" 
d="M206 463q94 39 183 47v-93q-64 -4 -174 -42v-375h-146v500h130z" />
    <glyph glyph-name="s" unicode="s" horiz-adv-x="525" 
d="M184 378q0 -18 30 -35t73 -33t86 -36t73 -55.5t30 -81.5q0 -70 -53 -105t-139 -35q-50 0 -103.5 2.5t-81.5 5.5l-28 3v88q97 -10 191 -10q66 0 66 42q0 22 -30 39.5t-72.5 33t-85 34.5t-72.5 53t-30 80q0 70 52 105.5t138 35.5q51 0 105 -2.5t83 -5.5l28 -3v-89
q-114 10 -211 10q-49 0 -49 -41z" />
    <glyph glyph-name="t" unicode="t" horiz-adv-x="456" 
d="M340 -9q-65 0 -105 12.5t-59 40.5t-25 58.5t-6 80.5v233h-124v84h124v121h142v-121h126v-84h-126v-255q0 -60 14 -74.5t73 -14.5q15 0 53 2q0 -10 0.5 -37t0.5 -36q-51 -10 -88 -10z" />
    <glyph glyph-name="u" unicode="u" horiz-adv-x="611" 
d="M66 499h146v-373q0 -36 37 -36q54 0 140 27v382h145v-499h-121l-13 35q-4 -1 -32.5 -11.5t-38.5 -13.5t-32 -9.5t-39 -8.5t-34 -2q-69 0 -113 31t-44 93z" />
    <glyph glyph-name="v" unicode="v" horiz-adv-x="571" 
d="M367 0h-164l-192 500h150l125 -357l124 357h147z" />
    <glyph glyph-name="w" unicode="w" horiz-adv-x="850" 
d="M152 0l-125 500h143l74 -306l95 306h155l98 -306l74 306h143l-125 -500h-165l-101 323l-99 -323h-167z" />
    <glyph glyph-name="x" unicode="x" horiz-adv-x="508" 
d="M497 0h-145l-91 142l-89 -142h-150l163 248l-158 251h148l86 -148l84 148h148l-157 -251z" />
    <glyph glyph-name="y" unicode="y" horiz-adv-x="572" 
d="M557 500l-256 -687h-127l63 187h-34l-192 500h149l124 -357l125 357h148z" />
    <glyph glyph-name="z" unicode="z" horiz-adv-x="512" 
d="M40 72l240 340h-235v89h406v-74l-239 -337h244v-90h-416v72z" />
    <glyph glyph-name="braceleft" unicode="{" horiz-adv-x="382" 
d="M234 13q0 -36 9.5 -47.5t47.5 -11.5h58v-88h-58q-63 0 -104 10t-62 30.5t-29 45t-8 61.5v173q0 45 -16 69t-61 52v54q45 29 61 53.5t16 69.5v173q0 76 41 110.5t162 34.5h58v-87h-58q-38 0 -47.5 -11.5t-9.5 -46.5v-173q0 -50 -16.5 -85t-56.5 -65q73 -54 73 -148v-173z
" />
    <glyph glyph-name="bar" unicode="|" horiz-adv-x="255" 
d="M184 769v-964h-118v964h118z" />
    <glyph glyph-name="braceright" unicode="}" horiz-adv-x="382" 
d="M136 13v173q0 95 71 149q-71 56 -71 149v173q0 34 -10.5 46t-48.5 12h-58v87h58q64 0 105 -9t62.5 -29.5t29 -45t7.5 -61.5v-173q0 -46 15.5 -70t60.5 -54v-52q-44 -29 -60 -53t-16 -69v-173q0 -37 -7.5 -61.5t-29 -45t-62.5 -30.5t-105 -10h-58v88h58q39 0 49 11.5
t10 47.5z" />
    <glyph glyph-name="asciitilde" unicode="~" horiz-adv-x="578" 
d="M507 278q-23 -31 -65.5 -49t-79.5 -18q-54 0 -101.5 14.5t-53.5 14.5q-37 0 -96 -48q-5 6 -17.5 23t-23 31l-16.5 22q75 60 132 60q32 0 87.5 -14t83.5 -14q34 0 93 45z" />
    <glyph glyph-name="uni00A0" unicode="&#xa0;" horiz-adv-x="0" 
 />
    <glyph glyph-name="exclamdown" unicode="&#xa1;" horiz-adv-x="277" 
d="M64 -199v546h143v-546h-143zM64 463q0 37 12.5 48.5t60.5 11.5q47 0 59.5 -11.5t12.5 -48.5q0 -39 -12.5 -49t-59.5 -10q-49 0 -61 10.5t-12 48.5z" />
    <glyph glyph-name="cent" unicode="&#xa2;" horiz-adv-x="595" 
d="M242 -9v75q-99 6 -140.5 54.5t-41.5 181.5q0 83 6 129.5t25 83t55 51.5t96 19v77h129v-79q62 -4 131 -14v-85q-173 11 -194 11q-72 0 -87 -33.5t-15 -162.5q0 -91 28 -117.5t105 -26.5q13 0 168 8v-76q-57 -12 -136 -19v-77h-129z" />
    <glyph glyph-name="sterling" unicode="&#xa3;" horiz-adv-x="576" 
d="M262 315v-153q0 -50 -11 -74h255v-88h-466v83q47 2 61.5 21t14.5 77v134h-64v75h64v60q0 115 42 164t152 51q79 0 191 -23v-76q-117 17 -178 17q-21 0 -34 -9.5t-18.5 -28.5t-7 -36t-1.5 -44v-75h204v-75h-204z" />
    <glyph glyph-name="currency" unicode="&#xa4;" horiz-adv-x="641" 
d="M482 588l86 -79l-74 -67q19 -38 19 -109q0 -76 -19 -112l72 -66l-87 -72l-86 74q-45 -9 -74 -9q-39 0 -86 10l-94 -79l-82 79l68 62q-19 39 -19 107t19 117l-69 64l85 75l87 -76q32 9 78 9q49 0 84 -9zM245 333q0 -58 12 -77.5t52 -19.5t52.5 19.5t12.5 77.5
q0 59 -12.5 78.5t-52.5 19.5t-52 -19.5t-12 -78.5z" />
    <glyph glyph-name="yen" unicode="&#xa5;" horiz-adv-x="665" 
d="M249 280l-223 386h148l155 -276l158 276h148l-223 -386h135v-84h-429v84h131zM120 166h429v-83h-147v-83h-142v83h-140v83z" />
    <glyph glyph-name="brokenbar" unicode="&#xa6;" horiz-adv-x="271" 
d="M197 769v-422h-129v422h129zM197 -195h-129v423h129v-423z" />
    <glyph glyph-name="section" unicode="&#xa7;" horiz-adv-x="590" 
d="M233 534q0 -18 30 -35t73 -33t86 -36t73 -55.5t30 -81.5q0 -101 -111 -131q69 -47 69 -115q0 -70 -53 -105t-139 -35q-50 0 -103.5 2.5t-81.5 5.5l-29 3v88q98 -10 192 -10q66 0 66 42q0 22 -30 39.5t-72.5 33t-85 34.5t-72.5 53t-30 80q0 52 30 85.5t82 46.5
q-70 44 -70 114t52.5 105.5t138.5 35.5q51 0 104.5 -2.5t81.5 -5.5l29 -3v-89q-113 10 -211 10q-49 0 -49 -41zM190 288q0 -23 47 -45q25 -1 74 -1q66 0 66 42q0 22 -33 42q-102 3 -104 3q-50 0 -50 -41z" />
    <glyph glyph-name="dieresis" unicode="&#xa8;" horiz-adv-x="479" 
d="M67 611q0 38 12 48.5t58 10.5q45 0 57.5 -10.5t12.5 -48.5q0 -35 -12.5 -46t-57.5 -11q-46 0 -58 10.5t-12 46.5zM270 611q0 38 11 48.5t57 10.5q47 0 59.5 -10.5t12.5 -48.5q0 -35 -12 -46t-60 -11q-45 0 -56.5 10.5t-11.5 46.5z" />
    <glyph glyph-name="copyright" unicode="&#xa9;" horiz-adv-x="874" 
d="M46 327q0 144 108 241.5t281 97.5t281.5 -97.5t108.5 -241.5q0 -142 -108.5 -239t-281.5 -97t-281 97t-108 239zM144 327q0 -111 81.5 -187t209.5 -76t210.5 76t82.5 187q0 112 -82 188.5t-211 76.5q-128 0 -209.5 -76.5t-81.5 -188.5zM374 310q0 -64 19 -81.5t73 -17.5
q46 0 116 6v-54q-79 -15 -147 -15q-47 0 -73.5 5t-49 21.5t-31.5 49.5t-9 88q0 63 4.5 96.5t21.5 58.5t48 33.5t85 8.5q75 0 148 -12v-58q-102 7 -135 7q-49 0 -59.5 -23.5t-10.5 -112.5z" />
    <glyph glyph-name="ordfeminine" unicode="&#xaa;" horiz-adv-x="400" 
d="M326 593v-220h-86l-7 22q-47 -28 -85 -28q-56 0 -80.5 28.5t-24.5 73.5q0 47 27.5 65t80.5 18q5 0 13 -0.5t13 -0.5l55 -3v26q0 21 -6.5 32.5t-27.5 11.5q-24 0 -120 -11l-10 62q77 13 137 13q65 0 93 -18.5t28 -70.5zM228 454v38q-55 0 -71.5 -4t-16.5 -20q0 -33 21 -33
q8 0 20 3.5t27 9t20 6.5z" />
    <glyph glyph-name="guillemotleft" unicode="&#xab;" horiz-adv-x="578" 
d="M37 251l159 217l106 -61l-114 -156l114 -155l-106 -60zM274 251l161 215l106 -59l-115 -156l115 -154l-106 -60z" />
    <glyph glyph-name="logicalnot" unicode="&#xac;" horiz-adv-x="660" 
d="M437 196h-366v92h496v-244h-130v152z" />
    <glyph glyph-name="uni00AD" unicode="&#xad;" horiz-adv-x="475" 
d="M57 273v43h279v-43h-279z" />
    <glyph glyph-name="registered" unicode="&#xae;" horiz-adv-x="543" 
d="M49 493q0 81 60 135.5t158 54.5q97 0 157.5 -54.5t60.5 -135.5q0 -80 -60.5 -134.5t-157.5 -54.5q-98 0 -158 54.5t-60 134.5zM99 492q0 -63 48 -106.5t120 -43.5t120.5 43.5t48.5 106.5q0 64 -48.5 108t-120.5 44t-120 -44t-48 -108zM240 399h-47v185h86q74 0 74 -48
v-21q0 -21 -21 -36l17 -80h-49l-13 69h-47v-69zM240 555v-58h37q30 0 30 18v21q-1 19 -30 19h-37z" />
    <glyph glyph-name="macron" unicode="&#xaf;" horiz-adv-x="445" 
d="M64 561v84h298v-84h-298z" />
    <glyph glyph-name="degree" unicode="&#xb0;" horiz-adv-x="396" 
d="M337 528q0 -56 -40 -92.5t-107 -36.5q-68 0 -108.5 36.5t-40.5 92.5q0 55 41 92t108 37t107 -37t40 -92zM258 528q0 28 -18 46.5t-50 18.5q-33 0 -50 -18t-17 -47q0 -28 17.5 -47t49.5 -19t50 19t18 47z" />
    <glyph glyph-name="plusminus" unicode="&#xb1;" horiz-adv-x="639" 
d="M59 293v89h182v161h140v-161h179v-89h-179v-165h-140v165h-182zM560 89v-89h-501v89h501z" />
    <glyph glyph-name="twosuperior" unicode="&#xb2;" horiz-adv-x="471" 
d="M392 537q0 -22 -18.5 -51.5t-39.5 -52t-61.5 -62.5t-61.5 -63h175v-69h-321l2 59q32 34 69.5 73.5t57.5 60t39.5 42.5t27 36.5t7.5 27.5q0 39 -56 39l-155 -1v66l141 1q37 0 63 -2t52.5 -8.5t42.5 -18t26 -31t10 -46.5z" />
    <glyph glyph-name="threesuperior" unicode="&#xb3;" horiz-adv-x="423" 
d="M348 538v-31q0 -29 -13.5 -46t-42.5 -32q27 -12 41.5 -35t14.5 -46v-24q0 -61 -45.5 -84t-147.5 -23l-97 1v53q14 0 31.5 -0.5t28.5 -0.5q66 0 95.5 11t29.5 45v22q0 52 -64 52h-95v56h95q64 0 64 52v26q0 32 -27.5 41.5t-87.5 9.5l-70 -1v54l100 2q44 1 73 -1.5
t58.5 -12t44 -31.5t14.5 -57z" />
    <glyph glyph-name="acute" unicode="&#xb4;" horiz-adv-x="378" 
d="M199 768l93 -43l-115 -175l-89 42z" />
    <glyph glyph-name="mu" unicode="&#xb5;" horiz-adv-x="614" 
d="M69 -186v684h145q1 -317 1 -382q0 -27 36 -27q54 0 140 27v383h145v-500h-129q-1 3 -3 13t-3 13q-64 -22 -128 -28q-19 -3 -59 -3v-180h-145z" />
    <glyph glyph-name="paragraph" unicode="&#xb6;" horiz-adv-x="673" 
d="M30 472q0 48 2.5 77t10.5 56t22 41t40 24.5t60.5 14t86.5 3.5h328v-878h-101v785h-37v-785h-121v495h-49q-37 0 -57.5 0.5t-47.5 2t-40.5 4.5t-31.5 8.5t-26 14.5t-17.5 21t-13 29t-6 38t-2.5 49z" />
    <glyph glyph-name="periodcentered" unicode="&#xb7;" horiz-adv-x="307" 
d="M62 312q0 43 14.5 55t69.5 12q54 0 68 -11.5t14 -55.5q0 -42 -14 -55t-68 -13q-55 0 -69.5 12.5t-14.5 55.5z" />
    <glyph glyph-name="cedilla" unicode="&#xb8;" horiz-adv-x="392" 
d="M269 0l-13 -68q79 -4 79 -61q-2 -52 -25.5 -72.5t-74.5 -20.5q-33 0 -97 9q3 27 9 52q11 0 34 -1.5t34 -1.5q18 0 22 4t4 20q0 5 -0.5 8t-5.5 6t-14 3h-4q-11 1 -32.5 1.5t-32.5 0.5l20 121h97z" />
    <glyph glyph-name="onesuperior" unicode="&#xb9;" horiz-adv-x="310" 
d="M27 565v81l198 2v-421h-111v338h-87z" />
    <glyph glyph-name="ordmasculine" unicode="&#xba;" horiz-adv-x="448" 
d="M220 365q-44 0 -69.5 5t-45 21.5t-27 48t-7.5 84.5q0 55 6 85.5t25.5 47.5t46 22t76.5 5q78 0 107.5 -32.5t29.5 -127.5q0 -92 -28 -125.5t-114 -33.5zM216 616q-27 0 -33 -16t-6 -75v-18q0 -47 6 -59.5t35 -12.5q20 1 27 5t10.5 22t3.5 63q0 57 -8 74t-35 17z" />
    <glyph glyph-name="guillemotright" unicode="&#xbb;" horiz-adv-x="579" 
d="M389 469l160 -217l-160 -215l-106 60l115 155l-115 156zM151 467l160 -215l-160 -214l-106 60l114 154l-114 156z" />
    <glyph glyph-name="onequarter" unicode="&#xbc;" horiz-adv-x="577" 
d="M457 -51v-73h-63v-124h-94v124h-215v56l177 243h132v-226h63zM209 -51h91v129zM32 306h503v-79h-503v79zM159 697v81l198 2v-421h-111v338h-87z" />
    <glyph glyph-name="onehalf" unicode="&#xbd;" horiz-adv-x="573" 
d="M28 302l504 1v-79h-504v78zM159 697v81l198 2v-421h-111v338h-87zM459 50q0 -22 -18.5 -51.5t-39 -51.5t-62 -63t-61.5 -63h176v-69h-322l2 59q32 34 69.5 73.5t57.5 60t39.5 42.5t27 36.5t7.5 27.5q0 39 -56 39l-155 -1v66l141 1q37 0 63 -2t52.5 -8.5t42.5 -18t26 -31
t10 -46.5z" />
    <glyph glyph-name="threequarters" unicode="&#xbe;" horiz-adv-x="573" 
d="M455 -49v-73h-63v-124h-94v124h-215v56l177 243h132v-226h63zM207 -49h91v129zM30 308h503v-78l-503 -1v79zM435 683v-31q0 -29 -14 -46t-42 -32q27 -12 41.5 -35t14.5 -46v-24q0 -61 -45.5 -84t-148.5 -23l-97 1v53q14 0 31.5 -0.5t28.5 -0.5q66 0 95.5 11t29.5 45v22
q0 52 -64 52h-95v56h95q64 0 64 52v26q0 32 -27.5 41.5t-87.5 9.5l-70 -1v54l100 2q35 1 59 -0.5t51 -7t43.5 -16t27 -30.5t10.5 -48z" />
    <glyph glyph-name="questiondown" unicode="&#xbf;" horiz-adv-x="518" 
d="M321 -193q-46 0 -75 1.5t-67 6t-61.5 15.5t-45.5 28.5t-32 46t-10 66.5v23q0 92 54.5 132.5t185.5 40.5v123h139v-213l-138 -1q-45 -1 -68 -19.5t-23 -62.5v-15q0 -31 7.5 -49t27.5 -25.5t37 -9t55 -1.5h8h151v-87h-145zM413 444q0 -39 -11.5 -49.5t-59.5 -10.5
q-47 0 -60 10.5t-13 49.5q0 37 13 49t60 12t59 -11.5t12 -49.5z" />
    <glyph glyph-name="Agrave" unicode="&#xc0;" horiz-adv-x="700" 
d="M150 0h-151l234 667h202l239 -667h-148l-59 171h-260zM335 553l-96 -287h194zM200 906l93 43l111 -176l-88 -42z" />
    <glyph glyph-name="Aacute" unicode="&#xc1;" horiz-adv-x="700" 
d="M150 0h-151l234 667h202l239 -667h-148l-59 171h-260zM335 553l-96 -287h194zM370 950l93 -43l-116 -175l-88 42z" />
    <glyph glyph-name="Acircumflex" unicode="&#xc2;" horiz-adv-x="700" 
d="M150 0h-151l234 667h202l239 -667h-148l-59 171h-260zM335 553l-96 -287h194zM525 792l-62 -66l-124 89l-131 -87l-55 66l189 132z" />
    <glyph glyph-name="Atilde" unicode="&#xc3;" horiz-adv-x="700" 
d="M150 0h-151l234 667h202l239 -667h-148l-59 171h-260zM335 553l-96 -287h194zM405 729q-22 0 -62.5 18t-60.5 18q-16 0 -51 -41q-13 8 -35.5 22.5t-28.5 17.5q20 35 50 57t64 22q25 0 67 -18t51 -18q18 0 48 37q11 -7 33.5 -20t33.5 -20q-38 -75 -109 -75z" />
    <glyph glyph-name="Adieresis" unicode="&#xc4;" horiz-adv-x="700" 
d="M150 0h-151l234 667h202l239 -667h-148l-59 171h-260zM335 553l-96 -287h194zM171 779q0 38 12 48.5t58 10.5q45 0 57.5 -10.5t12.5 -48.5q0 -35 -12 -46t-58 -11t-58 10.5t-12 46.5zM374 779q0 38 11 48.5t57 10.5q47 0 59.5 -10.5t12.5 -48.5q0 -35 -12 -46t-60 -11
q-45 0 -56.5 10.5t-11.5 46.5z" />
    <glyph glyph-name="Aring" unicode="&#xc5;" horiz-adv-x="700" 
d="M150 0h-151l234 667h202l239 -667h-148l-59 171h-260zM335 553l-96 -287h194zM231 816q0 38 28.5 63.5t75.5 25.5q48 0 76 -25.5t28 -63.5q0 -39 -28 -64t-76 -25t-76 24.5t-28 64.5zM296 816q0 -17 10.5 -27.5t28.5 -10.5q17 0 28 10.5t11 27.5t-11 27.5t-28 10.5
q-18 0 -28.5 -10.5t-10.5 -27.5z" />
    <glyph glyph-name="AE" unicode="&#xc6;" horiz-adv-x="951" 
d="M149 0h-151l234 667h649v-94h-414l67 -188h319v-93h-285l70 -196h250v-97l-363 1l-59 171h-260zM334 553l-97 -287h195z" />
    <glyph glyph-name="Ccedilla" unicode="&#xc7;" horiz-adv-x="650" 
d="M209 298q0 -70 11.5 -112.5t39 -65t62.5 -29.5t94 -7q64 0 171 7v-79q-97 -17 -197 -20l-4 -22q79 -4 79 -61q-3 -52 -26.5 -72.5t-73.5 -20.5q-33 0 -97 9q3 27 9 52q11 0 34 -1.5t34 -1.5q18 0 22 4t4 20q0 5 -0.5 8t-5.5 6t-14 3h-4q-11 1 -32.5 1.5t-32.5 0.5l13 75
q-68 3 -110 16.5t-73.5 47t-44 92.5t-12.5 153q0 70 2 114t8 88.5t19 70t33.5 48.5t52 34t74 17t100.5 6q106 0 243 -16v-88q-188 13 -217 13q-38 0 -63.5 -4.5t-44 -19.5t-29 -33.5t-16 -55t-7 -74.5t-1.5 -103z" />
    <glyph glyph-name="Egrave" unicode="&#xc8;" horiz-adv-x="636" 
d="M564 0h-484v668h484v-96h-337v-184h309v-97h-309v-196h337v-95zM204 902l93 43l111 -176l-89 -42z" />
    <glyph glyph-name="Eacute" unicode="&#xc9;" horiz-adv-x="636" 
d="M564 0h-484v668h484v-96h-337v-184h309v-97h-309v-196h337v-95zM367 944l93 -43l-115 -175l-89 42z" />
    <glyph glyph-name="Ecircumflex" unicode="&#xca;" horiz-adv-x="636" 
d="M564 0h-484v668h484v-96h-337v-184h309v-97h-309v-196h337v-95zM519 795l-63 -66l-123 89l-131 -87l-55 66l188 132z" />
    <glyph glyph-name="Edieresis" unicode="&#xcb;" horiz-adv-x="636" 
d="M564 0h-484v668h484v-96h-337v-184h309v-97h-309v-196h337v-95zM153 784q0 38 12 48.5t58 10.5q45 0 57.5 -10.5t12.5 -48.5q0 -35 -12 -46t-58 -11t-58 10.5t-12 46.5zM356 784q0 38 11 48.5t57 10.5q47 0 59.5 -10.5t12.5 -48.5q0 -36 -12 -46.5t-60 -10.5
q-45 0 -56.5 10.5t-11.5 46.5z" />
    <glyph glyph-name="Igrave" unicode="&#xcc;" horiz-adv-x="319" 
d="M9 902l93 43l111 -176l-89 -42zM228 667v-667h-148v667h148z" />
    <glyph glyph-name="Iacute" unicode="&#xcd;" horiz-adv-x="318" 
d="M195 946l93 -43l-116 -175l-88 42zM228 667v-667h-148v667h148z" />
    <glyph glyph-name="Icircumflex" unicode="&#xce;" horiz-adv-x="319" 
d="M338 796l-62 -66l-124 89l-131 -87l-55 66l189 132zM228 667v-667h-148v667h148z" />
    <glyph glyph-name="Idieresis" unicode="&#xcf;" horiz-adv-x="319" 
d="M-18 782q0 38 12 48.5t58 10.5q45 0 57.5 -10.5t12.5 -48.5q0 -35 -12.5 -46t-57.5 -11q-46 0 -58 10.5t-12 46.5zM185 782q0 39 11 49t57 10q47 0 59.5 -10.5t12.5 -48.5q0 -35 -12 -46t-60 -11q-46 0 -57 10.5t-11 46.5zM228 667v-667h-148v667h148z" />
    <glyph glyph-name="Eth" unicode="&#xd0;" horiz-adv-x="718" 
d="M19 302v102h49v264l286 1q81 0 131 -13t86.5 -50t51.5 -103t15 -172q0 -137 -26 -207.5t-82 -97t-164 -26.5h-298v302h-49zM358 581h-142v-177h107v-102h-107v-211l145 -1q47 1 73.5 18.5t41.5 71t15 151.5q0 113 -13 166t-38.5 68.5t-81.5 15.5z" />
    <glyph glyph-name="Ntilde" unicode="&#xd1;" horiz-adv-x="763" 
d="M670 0h-178l-268 450v-450h-144v668h169l273 -464v464h148v-668zM449 727q-23 0 -63 18t-60 18q-17 0 -52 -41q-10 6 -31 20t-32 20q19 35 49.5 57t64.5 22q24 0 66 -18t51 -18q19 0 49 37q12 -8 35 -21.5t32 -18.5q-40 -75 -109 -75z" />
    <glyph glyph-name="Ograve" unicode="&#xd2;" horiz-adv-x="723" 
d="M352 -10q-65 0 -109.5 6t-77.5 23t-51.5 40t-29.5 65t-14.5 89t-3.5 120q0 75 3.5 123t15 89.5t30.5 64.5t52 39.5t76.5 22t108.5 5.5q66 0 111 -6t78.5 -22.5t52 -39.5t30 -65t15 -89.5t3.5 -121.5q0 -75 -3.5 -123t-15 -89.5t-30.5 -64t-52.5 -39t-78 -22t-110.5 -5.5z
M352 79q42 0 66 6.5t41 19.5t24.5 45.5t10 71.5t2.5 111q0 60 -1.5 94.5t-6.5 67t-14 48t-26 27.5t-39 15.5t-57 3.5q-26 0 -44.5 -2t-33.5 -9t-25 -14t-17 -24t-10.5 -32.5t-5.5 -46t-2.5 -56.5t-0.5 -72q0 -60 1 -92.5t6 -65.5t13 -48t24.5 -28t38.5 -16.5t56 -3.5z
M239 901l93 43l110 -176l-88 -42z" />
    <glyph glyph-name="Oacute" unicode="&#xd3;" horiz-adv-x="723" 
d="M352 -10q-65 0 -109.5 6t-77.5 23t-51.5 40t-29.5 65t-14.5 89t-3.5 120q0 75 3.5 123t15 89.5t30.5 64.5t52 39.5t76.5 22t108.5 5.5q66 0 111 -6t78.5 -22.5t52 -39.5t30 -65t15 -89.5t3.5 -121.5q0 -75 -3.5 -123t-15 -89.5t-30.5 -64t-52.5 -39t-78 -22t-110.5 -5.5z
M352 79q42 0 66 6.5t41 19.5t24.5 45.5t10 71.5t2.5 111q0 60 -1.5 94.5t-6.5 67t-14 48t-26 27.5t-39 15.5t-57 3.5q-26 0 -44.5 -2t-33.5 -9t-25 -14t-17 -24t-10.5 -32.5t-5.5 -46t-2.5 -56.5t-0.5 -72q0 -60 1 -92.5t6 -65.5t13 -48t24.5 -28t38.5 -16.5t56 -3.5z
M380 946l93 -43l-116 -175l-88 42z" />
    <glyph glyph-name="Ocircumflex" unicode="&#xd4;" horiz-adv-x="723" 
d="M352 -10q-65 0 -109.5 6t-77.5 23t-51.5 40t-29.5 65t-14.5 89t-3.5 120q0 75 3.5 123t15 89.5t30.5 64.5t52 39.5t76.5 22t108.5 5.5q66 0 111 -6t78.5 -22.5t52 -39.5t30 -65t15 -89.5t3.5 -121.5q0 -75 -3.5 -123t-15 -89.5t-30.5 -64t-52.5 -39t-78 -22t-110.5 -5.5z
M352 79q42 0 66 6.5t41 19.5t24.5 45.5t10 71.5t2.5 111q0 60 -1.5 94.5t-6.5 67t-14 48t-26 27.5t-39 15.5t-57 3.5q-26 0 -44.5 -2t-33.5 -9t-25 -14t-17 -24t-10.5 -32.5t-5.5 -46t-2.5 -56.5t-0.5 -72q0 -60 1 -92.5t6 -65.5t13 -48t24.5 -28t38.5 -16.5t56 -3.5z
M547 794l-63 -66l-123 89l-131 -87l-55 66l188 132z" />
    <glyph glyph-name="Otilde" unicode="&#xd5;" horiz-adv-x="723" 
d="M410 736q-22 0 -63 18t-60 18q-17 0 -52 -41q-6 3 -28.5 17.5t-35.5 22.5q20 35 50.5 57t64.5 22q24 0 66 -18t51 -18q20 0 48 37q12 -7 34.5 -20t33.5 -20q-40 -75 -109 -75zM352 -10q-65 0 -109.5 6t-77.5 23t-51.5 40t-29.5 65t-14.5 89t-3.5 120q0 75 3.5 123
t15 89.5t30.5 64.5t52 39.5t76.5 22t108.5 5.5q66 0 111 -6t78.5 -22.5t52 -39.5t30 -65t15 -89.5t3.5 -121.5q0 -75 -3.5 -123t-15 -89.5t-30.5 -64t-52.5 -39t-78 -22t-110.5 -5.5zM352 79q42 0 66 6.5t41 19.5t24.5 45.5t10 71.5t2.5 111q0 60 -1.5 94.5t-6.5 67t-14 48
t-26 27.5t-39 15.5t-57 3.5q-26 0 -44.5 -2t-33.5 -9t-25 -14t-17 -24t-10.5 -32.5t-5.5 -46t-2.5 -56.5t-0.5 -72q0 -60 1 -92.5t6 -65.5t13 -48t24.5 -28t38.5 -16.5t56 -3.5z" />
    <glyph glyph-name="Odieresis" unicode="&#xd6;" horiz-adv-x="723" 
d="M352 -10q-65 0 -109.5 6t-77.5 23t-51.5 40t-29.5 65t-14.5 89t-3.5 120q0 75 3.5 123t15 89.5t30.5 64.5t52 39.5t76.5 22t108.5 5.5q66 0 111 -6t78.5 -22.5t52 -39.5t30 -65t15 -89.5t3.5 -121.5q0 -75 -3.5 -123t-15 -89.5t-30.5 -64t-52.5 -39t-78 -22t-110.5 -5.5z
M352 79q42 0 66 6.5t41 19.5t24.5 45.5t10 71.5t2.5 111q0 60 -1.5 94.5t-6.5 67t-14 48t-26 27.5t-39 15.5t-57 3.5q-26 0 -44.5 -2t-33.5 -9t-25 -14t-17 -24t-10.5 -32.5t-5.5 -46t-2.5 -56.5t-0.5 -72q0 -60 1 -92.5t6 -65.5t13 -48t24.5 -28t38.5 -16.5t56 -3.5z
M187 784q0 38 11.5 48.5t57.5 10.5t58.5 -10.5t12.5 -48.5q0 -35 -12.5 -46t-58.5 -11q-45 0 -57 10.5t-12 46.5zM390 784q0 39 11 49t57 10q47 0 59.5 -10.5t12.5 -48.5q0 -35 -12 -46t-60 -11q-46 0 -57 10.5t-11 46.5z" />
    <glyph glyph-name="multiply" unicode="&#xd7;" horiz-adv-x="616" 
d="M461 464l86 -74l-163 -146l161 -144l-84 -75l-161 143l-162 -143l-84 75l161 144l-160 146l84 74l161 -144z" />
    <glyph glyph-name="Oslash" unicode="&#xd8;" horiz-adv-x="723" 
d="M529 722l-22 -61q84 -23 109.5 -93t25.5 -235q0 -75 -3.5 -123t-15 -89.5t-30.5 -64t-52.5 -39t-78 -22t-110.5 -5.5q-42 0 -78 3l-14 -43h-77l19 55q-84 23 -110 93.5t-26 234.5q0 75 3.5 123t15 89.5t30.5 64.5t52 39.5t76.5 22t108.5 5.5q45 0 81 -3l17 48h79z
M213 333q0 -99 5 -146.5t22 -71.5l163 471q-21 3 -51 3q-26 0 -44.5 -2t-33.5 -9t-25 -14t-17 -24t-10.5 -32.5t-5.5 -46t-2.5 -56.5t-0.5 -72zM352 79q42 0 66 6.5t41 19.5t24.5 45.5t10 71.5t2.5 111q0 97 -5 144.5t-23 72.5l-162 -468q19 -3 46 -3z" />
    <glyph glyph-name="Ugrave" unicode="&#xd9;" horiz-adv-x="745" 
d="M241 903l93 43l111 -176l-89 -42zM364 79q35 0 57.5 3t40 15t26.5 27t14.5 47t7 67.5t1.5 94.5v336h148v-336q0 -75 -3.5 -123t-15 -89.5t-30.5 -64t-53.5 -39t-80 -22t-112.5 -5.5q-66 0 -111.5 6t-78.5 23.5t-52 40t-30 64.5t-14.5 89t-3.5 120v336h149v-336
q0 -72 2 -108t9 -70.5t23 -47.5t40.5 -20.5t66.5 -7.5z" />
    <glyph glyph-name="Uacute" unicode="&#xda;" horiz-adv-x="745" 
d="M392 946l93 -43l-115 -175l-89 42zM364 79q35 0 57.5 3t40 15t26.5 27t14.5 47t7 67.5t1.5 94.5v336h148v-336q0 -75 -3.5 -123t-15 -89.5t-30.5 -64t-53.5 -39t-80 -22t-112.5 -5.5q-66 0 -111.5 6t-78.5 23.5t-52 40t-30 64.5t-14.5 89t-3.5 120v336h149v-336
q0 -72 2 -108t9 -70.5t23 -47.5t40.5 -20.5t66.5 -7.5z" />
    <glyph glyph-name="Ucircumflex" unicode="&#xdb;" horiz-adv-x="745" 
d="M558 792l-63 -66l-123 89l-131 -87l-55 66l188 132zM364 79q35 0 57.5 3t40 15t26.5 27t14.5 47t7 67.5t1.5 94.5v336h148v-336q0 -75 -3.5 -123t-15 -89.5t-30.5 -64t-53.5 -39t-80 -22t-112.5 -5.5q-66 0 -111.5 6t-78.5 23.5t-52 40t-30 64.5t-14.5 89t-3.5 120v336
h149v-336q0 -72 2 -108t9 -70.5t23 -47.5t40.5 -20.5t66.5 -7.5z" />
    <glyph glyph-name="Udieresis" unicode="&#xdc;" horiz-adv-x="745" 
d="M202 784q0 38 11.5 48.5t57.5 10.5t58.5 -10.5t12.5 -48.5q0 -35 -12.5 -46t-58.5 -11t-57.5 10.5t-11.5 46.5zM404 784q0 38 11.5 48.5t57.5 10.5t58.5 -10.5t12.5 -48.5q0 -36 -12 -46.5t-59 -10.5q-46 0 -57.5 10.5t-11.5 46.5zM364 79q35 0 57.5 3t40 15t26.5 27
t14.5 47t7 67.5t1.5 94.5v336h148v-336q0 -75 -3.5 -123t-15 -89.5t-30.5 -64t-53.5 -39t-80 -22t-112.5 -5.5q-66 0 -111.5 6t-78.5 23.5t-52 40t-30 64.5t-14.5 89t-3.5 120v336h149v-336q0 -72 2 -108t9 -70.5t23 -47.5t40.5 -20.5t66.5 -7.5z" />
    <glyph glyph-name="Yacute" unicode="&#xdd;" horiz-adv-x="645" 
d="M385 0h-151v212l-241 456h166l150 -315l154 315h165l-243 -456v-212zM338 948l93 -43l-115 -175l-89 42z" />
    <glyph glyph-name="Thorn" unicode="&#xde;" horiz-adv-x="703" 
d="M78 0l2 668h147v-109h153q57 0 100 -8t79.5 -26.5t56 -53t19.5 -84.5v-80q0 -61 -50.5 -108.5t-127.5 -58.5q-28 -4 -231 -4v-136h-148zM226 454v-210h150q27 0 43.5 1.5t34.5 7.5t26.5 19.5t8.5 34.5v79q0 40 -30.5 54t-82.5 14h-150z" />
    <glyph glyph-name="germandbls" unicode="&#xdf;" horiz-adv-x="657" 
d="M564 493q0 -75 -68 -147q51 -23 65.5 -58.5t14.5 -96.5v-53q0 -33 -8.5 -57.5t-28.5 -40t-41 -24.5t-60 -13.5t-71 -5.5t-86 -1h-69v-35q0 -80 -36.5 -109.5t-104.5 -29.5q-23 0 -60 5v73q19 2 31 6t17 11t6 13t1 16v544q0 82 57 130t155 48q56 0 99.5 -6t89.5 -23
t71.5 -54t25.5 -92zM346 271h-134v-177h70h9q40 0 58.5 1t40.5 5.5t30.5 15.5t8.5 30v51q0 45 -18.5 59.5t-64.5 14.5zM213 487v-119h127q79 62 79 121q0 24 -12 39.5t-34.5 22.5t-43.5 9t-51 2q-27 0 -46 -17t-19 -58z" />
    <glyph glyph-name="agrave" unicode="&#xe0;" horiz-adv-x="577" 
d="M502 368v-368h-123q-2 5 -5.5 19.5t-5.5 20.5q-92 -49 -157 -49q-91 0 -131.5 45.5t-40.5 120.5q0 82 57.5 112.5t161.5 25.5l99 -5v80q0 33 -15 41.5t-52 8.5q-106 0 -197 -12q-1 4 -11 42t-10 41q119 19 235 19q105 0 150 -29t45 -113zM357 120v96q-105 0 -141 -11.5
t-36 -52.5q0 -63 43 -63q41 0 134 31zM178 729l93 43l111 -176l-89 -42z" />
    <glyph glyph-name="aacute" unicode="&#xe1;" horiz-adv-x="577" 
d="M502 368v-368h-123q-2 5 -5.5 19.5t-5.5 20.5q-92 -49 -157 -49q-91 0 -131.5 45.5t-40.5 120.5q0 82 57.5 112.5t161.5 25.5l99 -5v80q0 33 -15 41.5t-52 8.5q-106 0 -197 -12q-1 4 -11 42t-10 41q119 19 235 19q105 0 150 -29t45 -113zM357 120v96q-105 0 -141 -11.5
t-36 -52.5q0 -63 43 -63q41 0 134 31zM327 767l93 -43l-115 -175l-89 42z" />
    <glyph glyph-name="acircumflex" unicode="&#xe2;" horiz-adv-x="577" 
d="M502 368v-368h-123q-2 5 -5.5 19.5t-5.5 20.5q-92 -49 -157 -49q-91 0 -131.5 45.5t-40.5 120.5q0 82 57.5 112.5t161.5 25.5l99 -5v80q0 33 -15 41.5t-52 8.5q-106 0 -197 -12q-1 4 -11 42t-10 41q119 19 235 19q105 0 150 -29t45 -113zM357 120v96q-105 0 -141 -11.5
t-36 -52.5q0 -63 43 -63q41 0 134 31zM475 618l-63 -66l-123 89l-131 -87l-55 66l188 132z" />
    <glyph glyph-name="atilde" unicode="&#xe3;" horiz-adv-x="577" 
d="M502 368v-368h-123q-2 5 -5.5 19.5t-5.5 20.5q-92 -49 -157 -49q-91 0 -131.5 45.5t-40.5 120.5q0 82 57.5 112.5t161.5 25.5l99 -5v80q0 33 -15 41.5t-52 8.5q-106 0 -197 -12q-1 4 -11 42t-10 41q119 19 235 19q105 0 150 -29t45 -113zM357 120v96q-105 0 -141 -11.5
t-36 -52.5q0 -63 43 -63q41 0 134 31zM337 554q-23 0 -63 18t-60 18q-17 0 -52 -41q-10 7 -31 20t-32 20q19 35 49.5 57t64.5 22q24 0 66 -18t51 -18q19 0 49 37q12 -8 35 -21.5t32 -18.5q-40 -75 -109 -75z" />
    <glyph glyph-name="adieresis" unicode="&#xe4;" horiz-adv-x="577" 
d="M502 368v-368h-123q-2 5 -5.5 19.5t-5.5 20.5q-92 -49 -157 -49q-91 0 -131.5 45.5t-40.5 120.5q0 82 57.5 112.5t161.5 25.5l99 -5v80q0 33 -15 41.5t-52 8.5q-106 0 -197 -12q-1 4 -11 42t-10 41q119 19 235 19q105 0 150 -29t45 -113zM357 120v96q-105 0 -141 -11.5
t-36 -52.5q0 -63 43 -63q41 0 134 31zM112 611q0 38 11.5 48.5t57.5 10.5t58.5 -10.5t12.5 -48.5q0 -35 -12.5 -46t-58.5 -11q-45 0 -57 10.5t-12 46.5zM315 611q0 39 11 49t57 10q47 0 59.5 -10.5t12.5 -48.5q0 -35 -12 -46t-60 -11q-46 0 -57 10.5t-11 46.5z" />
    <glyph glyph-name="aring" unicode="&#xe5;" horiz-adv-x="577" 
d="M502 368v-368h-123q-2 5 -5.5 19.5t-5.5 20.5q-92 -49 -157 -49q-91 0 -131.5 45.5t-40.5 120.5q0 82 57.5 112.5t161.5 25.5l99 -5v80q0 33 -15 41.5t-52 8.5q-106 0 -197 -12q-1 4 -11 42t-10 41q119 19 235 19q105 0 150 -29t45 -113zM357 120v96q-105 0 -141 -11.5
t-36 -52.5q0 -63 43 -63q41 0 134 31zM183 643q0 38 28.5 63.5t75.5 25.5q48 0 76 -25.5t28 -63.5q0 -39 -28 -64t-76 -25t-76 24.5t-28 64.5zM248 643q0 -17 10.5 -27.5t28.5 -10.5q17 0 28 10.5t11 27.5t-11 27.5t-28 10.5q-18 0 -28.5 -10.5t-10.5 -27.5z" />
    <glyph glyph-name="ae" unicode="&#xe6;" horiz-adv-x="915" 
d="M840 218l-335 -3q1 -49 6.5 -75.5t22 -41t37 -18t61.5 -3.5q50 0 176 11v-77q-140 -20 -224 -20q-124 0 -171 47q-104 -47 -195 -47q-179 0 -179 168q0 36 13 62t33 40.5t53.5 22.5t65.5 10.5t78 2.5h74v73q0 33 -14.5 41.5t-51.5 8.5q-64 0 -200 -17q-4 12 -11.5 42
t-10.5 43q136 22 237 22q102 0 140 -27q48 28 158 28q79 0 125 -13t71.5 -50t33 -87.5t7.5 -142.5zM603 427q-62 0 -78 -26t-19 -100h196q-2 80 -19.5 103t-79.5 23zM356 115v99h-54q-70 0 -96 -13t-26 -46q0 -34 12.5 -50.5t41.5 -16.5q52 0 122 27z" />
    <glyph glyph-name="ccedilla" unicode="&#xe7;" horiz-adv-x="566" 
d="M200 223q0 -48 6.5 -76t24.5 -43t40.5 -19t62.5 -4q51 0 168 9v-76q-55 -13 -160 -21l-5 -25q79 -4 79 -61q-3 -52 -26.5 -72.5t-73.5 -20.5q-32 0 -98 9q2 9 5 26.5t4 25.5q11 0 34 -1.5t35 -1.5q17 0 21 4t4 20q0 5 -0.5 8t-5.5 6t-14 3h-3q-11 1 -32.5 1.5t-32.5 0.5
l12 77q-71 3 -109 21t-59.5 68.5t-21.5 144.5q0 60 2.5 98t11 73t23.5 54t40.5 33.5t61.5 20t88 5.5q104 0 214 -17v-85q-167 12 -195 12q-30 0 -48 -6t-29.5 -16t-16 -37.5t-6 -54t-1.5 -83.5z" />
    <glyph glyph-name="egrave" unicode="&#xe8;" horiz-adv-x="591" 
d="M531 252v-35h-53q-47 0 -140.5 -1t-140.5 -1q1 -51 7.5 -79.5t25.5 -41t37 -15t58 -2.5q49 0 175 11v-77q-142 -20 -226 -20q-71 0 -113 12.5t-66 45t-32 78.5t-8 124q0 65 5 105t18.5 73t40.5 49t68.5 24.5t105.5 8.5q76 0 121.5 -11.5t72 -43.5t35.5 -78t9 -126z
M293 424q-27 0 -44 -5.5t-26.5 -12t-14.5 -25.5t-6.5 -32.5t-3.5 -47.5h196q-2 80 -19.5 101.5t-81.5 21.5zM174 724l93 43l110 -176l-88 -42z" />
    <glyph glyph-name="eacute" unicode="&#xe9;" horiz-adv-x="591" 
d="M531 252v-35h-53q-47 0 -140.5 -1t-140.5 -1q1 -51 7.5 -79.5t25.5 -41t37 -15t58 -2.5q49 0 175 11v-77q-142 -20 -226 -20q-71 0 -113 12.5t-66 45t-32 78.5t-8 124q0 65 5 105t18.5 73t40.5 49t68.5 24.5t105.5 8.5q76 0 121.5 -11.5t72 -43.5t35.5 -78t9 -126z
M293 424q-27 0 -44 -5.5t-26.5 -12t-14.5 -25.5t-6.5 -32.5t-3.5 -47.5h196q-2 80 -19.5 101.5t-81.5 21.5zM315 769l93 -43l-116 -175l-88 42z" />
    <glyph glyph-name="ecircumflex" unicode="&#xea;" horiz-adv-x="591" 
d="M531 252v-35h-53q-47 0 -140.5 -1t-140.5 -1q1 -51 7.5 -79.5t25.5 -41t37 -15t58 -2.5q49 0 175 11v-77q-142 -20 -226 -20q-71 0 -113 12.5t-66 45t-32 78.5t-8 124q0 65 5 105t18.5 73t40.5 49t68.5 24.5t105.5 8.5q76 0 121.5 -11.5t72 -43.5t35.5 -78t9 -126z
M293 424q-27 0 -44 -5.5t-26.5 -12t-14.5 -25.5t-6.5 -32.5t-3.5 -47.5h196q-2 80 -19.5 101.5t-81.5 21.5zM482 616l-63 -66l-123 89l-131 -87l-55 66l188 132z" />
    <glyph glyph-name="edieresis" unicode="&#xeb;" horiz-adv-x="591" 
d="M531 252v-35h-53q-47 0 -140.5 -1t-140.5 -1q1 -51 7.5 -79.5t25.5 -41t37 -15t58 -2.5q49 0 175 11v-77q-142 -20 -226 -20q-71 0 -113 12.5t-66 45t-32 78.5t-8 124q0 65 5 105t18.5 73t40.5 49t68.5 24.5t105.5 8.5q76 0 121.5 -11.5t72 -43.5t35.5 -78t9 -126z
M293 424q-27 0 -44 -5.5t-26.5 -12t-14.5 -25.5t-6.5 -32.5t-3.5 -47.5h196q-2 80 -19.5 101.5t-81.5 21.5zM123 611q0 38 12 48.5t58 10.5q45 0 57.5 -10.5t12.5 -48.5q0 -35 -12.5 -46t-57.5 -11q-46 0 -58 10.5t-12 46.5zM326 611q0 38 11 48.5t57 10.5q47 0 59.5 -10.5
t12.5 -48.5q0 -35 -12 -46t-60 -11q-45 0 -56.5 10.5t-11.5 46.5z" />
    <glyph glyph-name="igrave" unicode="&#xec;" horiz-adv-x="298" 
d="M4 729l93 43l111 -176l-88 -42zM216 0h-147v499h147v-499z" />
    <glyph glyph-name="iacute" unicode="&#xed;" horiz-adv-x="297" 
d="M180 768l93 -43l-115 -175l-89 42zM216 0h-147v499h147v-499z" />
    <glyph glyph-name="icircumflex" unicode="&#xee;" horiz-adv-x="298" 
d="M327 615l-63 -66l-123 89l-131 -87l-55 66l188 132zM216 0h-147v499h147v-499z" />
    <glyph glyph-name="idieresis" unicode="&#xef;" horiz-adv-x="298" 
d="M-29 611q0 38 11.5 48.5t57.5 10.5t58.5 -10.5t12.5 -48.5q0 -35 -12.5 -46t-58.5 -11q-45 0 -57 10.5t-12 46.5zM174 611q0 39 11 49t57 10q47 0 59.5 -10.5t12.5 -48.5q0 -35 -12 -46t-60 -11q-46 0 -57 10.5t-11 46.5zM216 0h-147v499h147v-499z" />
    <glyph glyph-name="eth" unicode="&#xf0;" horiz-adv-x="582" 
d="M222 474l52 54q-81 23 -106 29l1 102q129 -23 189 -49l58 61l79 -62l-49 -51q40 -36 49 -91.5t9 -204.5v-48q0 -72 -7.5 -112t-32.5 -64t-62.5 -31t-106.5 -7q-50 0 -82 2t-63.5 8.5t-49.5 19t-32.5 33.5t-20.5 51.5t-6 73.5q0 67 11.5 107t42 60t68 26t105.5 6
q67 0 97 -8q0 57 -9 90l-56 -59zM272 287q-22 0 -32.5 -0.5t-23.5 -3t-18 -8t-10 -16t-6.5 -25t-1.5 -37.5q0 -66 17.5 -82.5t73.5 -16.5q37 0 52 1.5t27 14t13.5 31.5t1.5 63q0 29 -5.5 46t-21 24t-26.5 8t-40 1z" />
    <glyph glyph-name="ntilde" unicode="&#xf1;" horiz-adv-x="616" 
d="M538 0h-146v372q0 37 -37 37q-56 0 -140 -27v-382h-146v499h121l14 -35q6 2 33 12t37.5 13t32 9t39 8.5t34.5 2.5q69 0 112.5 -31t43.5 -93zM372 555q-22 0 -63 18t-60 18q-17 0 -52 -41q-6 3 -28.5 17.5t-35.5 22.5q20 35 50.5 57t64.5 22q24 0 66 -18t51 -18
q18 0 48 37q9 -5 32 -18.5t35 -21.5q-38 -75 -108 -75z" />
    <glyph glyph-name="ograve" unicode="&#xf2;" horiz-adv-x="616" 
d="M297 -9q-54 0 -91.5 5t-65.5 18t-44 31t-26 49.5t-13 66.5t-3 89q0 82 8.5 128t35 77.5t73 42.5t126.5 11q81 0 128 -11.5t73.5 -43.5t35 -77.5t8.5 -126.5q0 -80 -8.5 -126t-35.5 -78t-74 -43.5t-127 -11.5zM297 75q69 0 86 31.5t17 143.5q0 115 -17.5 146.5t-85.5 31.5
t-84.5 -32t-16.5 -146q0 -113 16.5 -144t84.5 -31zM178 728l93 43l111 -176l-89 -42z" />
    <glyph glyph-name="oacute" unicode="&#xf3;" horiz-adv-x="616" 
d="M297 -9q-54 0 -91.5 5t-65.5 18t-44 31t-26 49.5t-13 66.5t-3 89q0 82 8.5 128t35 77.5t73 42.5t126.5 11q81 0 128 -11.5t73.5 -43.5t35 -77.5t8.5 -126.5q0 -80 -8.5 -126t-35.5 -78t-74 -43.5t-127 -11.5zM297 75q69 0 86 31.5t17 143.5q0 115 -17.5 146.5t-85.5 31.5
t-84.5 -32t-16.5 -146q0 -113 16.5 -144t84.5 -31zM321 769l93 -43l-115 -175l-88 42z" />
    <glyph glyph-name="ocircumflex" unicode="&#xf4;" horiz-adv-x="618" 
d="M298 -9q-54 0 -91.5 5t-65.5 18t-44 31t-26 49.5t-13 66.5t-3 89q0 82 8.5 128t35.5 77.5t73 42.5t126 11q81 0 128 -11.5t74 -43.5t35 -77.5t8 -126.5q0 -80 -8.5 -126t-35.5 -78t-74 -43.5t-127 -11.5zM298 75q69 0 86 31.5t17 143.5q0 115 -17.5 146.5t-85.5 31.5
t-84.5 -32t-16.5 -146q0 -113 16.5 -144t84.5 -31zM480 617l-62 -66l-123 89l-131 -87l-55 66l188 132z" />
    <glyph glyph-name="otilde" unicode="&#xf5;" horiz-adv-x="616" 
d="M297 -9q-54 0 -91.5 5t-65.5 18t-44 31t-26 49.5t-13 66.5t-3 89q0 82 8.5 128t35 77.5t73 42.5t126.5 11q81 0 128 -11.5t73.5 -43.5t35 -77.5t8.5 -126.5q0 -80 -8.5 -126t-35.5 -78t-74 -43.5t-127 -11.5zM297 75q69 0 86 31.5t17 143.5q0 115 -17.5 146.5t-85.5 31.5
t-84.5 -32t-16.5 -146q0 -113 16.5 -144t84.5 -31zM357 552q-22 0 -62.5 18t-60.5 18q-18 0 -51 -41q-13 8 -35.5 22.5t-28.5 17.5q19 35 49.5 57t64.5 22q25 0 67 -18t51 -18q18 0 48 37q11 -7 33.5 -20t33.5 -20q-38 -75 -109 -75z" />
    <glyph glyph-name="odieresis" unicode="&#xf6;" horiz-adv-x="616" 
d="M297 -9q-54 0 -91.5 5t-65.5 18t-44 31t-26 49.5t-13 66.5t-3 89q0 82 8.5 128t35 77.5t73 42.5t126.5 11q81 0 128 -11.5t73.5 -43.5t35 -77.5t8.5 -126.5q0 -80 -8.5 -126t-35.5 -78t-74 -43.5t-127 -11.5zM297 75q69 0 86 31.5t17 143.5q0 115 -17.5 146.5t-85.5 31.5
t-84.5 -32t-16.5 -146q0 -113 16.5 -144t84.5 -31zM121 611q0 38 11.5 48.5t57.5 10.5t58.5 -10.5t12.5 -48.5q0 -35 -12.5 -46t-58.5 -11q-45 0 -57 10.5t-12 46.5zM324 611q0 39 11 49t57 10q47 0 59.5 -10.5t12.5 -48.5q0 -35 -12 -46t-60 -11q-46 0 -57 10.5t-11 46.5z
" />
    <glyph glyph-name="divide" unicode="&#xf7;" horiz-adv-x="607" 
d="M55 198v110h483v-110h-483zM381 93q0 -54 -13 -67t-70 -13q-56 0 -70 12t-14 57q0 46 14 57.5t70 11.5q52 0 67.5 -10t15.5 -48zM381 436q0 -54 -13 -67t-70 -13q-56 0 -70 12.5t-14 57.5q0 46 14 57.5t70 11.5q52 0 67.5 -10.5t15.5 -48.5z" />
    <glyph glyph-name="oslash" unicode="&#xf8;" horiz-adv-x="616" 
d="M422 548l-17 -47q83 -16 110 -70.5t27 -180.5q0 -80 -8.5 -126t-35.5 -78t-74 -43.5t-127 -11.5q-37 0 -69 3l-14 -44h-55l18 51q-75 18 -99 72t-24 177q0 82 8.5 128t35 77.5t73 42.5t126.5 11q21 0 55 -2l14 41h56zM297 75q69 0 86 31.5t17 143.5q0 130 -27 158
l-115 -331q11 -2 39 -2zM196 250q0 -118 17 -145l111 322q-8 1 -27 1q-68 0 -84.5 -32t-16.5 -146z" />
    <glyph glyph-name="ugrave" unicode="&#xf9;" 
d="M66 499h146v-373q0 -36 37 -36q54 0 140 27v382h145v-499h-121l-13 35q-4 -1 -32.5 -11.5t-38.5 -13.5t-32 -9.5t-39 -8.5t-34 -2q-69 0 -113 31t-44 93zM177 728l93 43l111 -176l-89 -42z" />
    <glyph glyph-name="uacute" unicode="&#xfa;" 
d="M66 499h146v-373q0 -36 37 -36q54 0 140 27v382h145v-499h-121l-13 35q-4 -1 -32.5 -11.5t-38.5 -13.5t-32 -9.5t-39 -8.5t-34 -2q-69 0 -113 31t-44 93zM320 768l93 -43l-115 -175l-89 42z" />
    <glyph glyph-name="ucircumflex" unicode="&#xfb;" 
d="M66 499h146v-373q0 -36 37 -36q54 0 140 27v382h145v-499h-121l-13 35q-4 -1 -32.5 -11.5t-38.5 -13.5t-32 -9.5t-39 -8.5t-34 -2q-69 0 -113 31t-44 93zM500 614l-63 -66l-123 89l-131 -87l-55 66l188 132z" />
    <glyph glyph-name="udieresis" unicode="&#xfc;" 
d="M66 499h146v-373q0 -36 37 -36q54 0 140 27v382h145v-499h-121l-13 35q-4 -1 -32.5 -11.5t-38.5 -13.5t-32 -9.5t-39 -8.5t-34 -2q-69 0 -113 31t-44 93zM134 611q0 38 12 48.5t58 10.5q45 0 57.5 -10.5t12.5 -48.5q0 -35 -12 -46t-58 -11t-58 10.5t-12 46.5zM337 611
q0 38 11 48.5t57 10.5q47 0 59.5 -10.5t12.5 -48.5q0 -36 -12 -46.5t-60 -10.5q-45 0 -56.5 10.5t-11.5 46.5z" />
    <glyph glyph-name="yacute" unicode="&#xfd;" horiz-adv-x="582" 
d="M557 500l-256 -687h-127l63 187h-34l-192 500h149l124 -357l125 357h148zM342 768l93 -43l-116 -175l-88 42z" />
    <glyph glyph-name="thorn" unicode="&#xfe;" horiz-adv-x="597" 
d="M71 -187l-2 876h142v-196q75 15 124 15q104 0 147.5 -51.5t43.5 -171.5q0 -56 -2.5 -93t-11 -73t-24.5 -57.5t-42 -38.5t-64.5 -24t-92.5 -7q-35 0 -81 3v-182h-137zM382 279q0 69 -9 100t-38 37q-33 9 -123 -10v-320q20 -1 72 -1h3q23 0 39.5 4t27 17t16.5 24.5t8.5 39
t3 47.5t0.5 62z" />
    <glyph glyph-name="ydieresis" unicode="&#xff;" horiz-adv-x="582" 
d="M557 500l-256 -687h-127l63 187h-34l-192 500h149l124 -357l125 357h148zM127 611q0 38 11.5 48.5t57.5 10.5q45 0 58 -10.5t13 -48.5q0 -35 -12.5 -46t-58.5 -11t-57.5 10.5t-11.5 46.5zM329 611q0 38 11.5 48.5t57.5 10.5t58.5 -10.5t12.5 -48.5q0 -36 -12 -46.5
t-59 -10.5q-46 0 -57.5 10.5t-11.5 46.5z" />
    <glyph glyph-name="Amacron" unicode="&#x100;" horiz-adv-x="700" 
d="M150 0h-151l234 667h202l239 -667h-148l-59 171h-260zM335 553l-96 -287h194zM187 726v84h298v-84h-298z" />
    <glyph glyph-name="amacron" unicode="&#x101;" horiz-adv-x="577" 
d="M502 368v-368h-123q-2 5 -5.5 19.5t-5.5 20.5q-92 -49 -157 -49q-91 0 -131.5 45.5t-40.5 120.5q0 82 57.5 112.5t161.5 25.5l99 -5v80q0 33 -15 41.5t-52 8.5q-106 0 -197 -12q-1 4 -11 42t-10 41q119 19 235 19q105 0 150 -29t45 -113zM357 120v96q-105 0 -141 -11.5
t-36 -52.5q0 -63 43 -63q41 0 134 31zM130 552v84h298v-84h-298z" />
    <glyph glyph-name="Abreve" unicode="&#x102;" horiz-adv-x="697" 
d="M150 0h-151l234 667h202l239 -667h-148l-59 171h-260zM335 553l-96 -287h194zM506 793q-26 -24 -74.5 -45.5t-94.5 -21.5q-47 0 -94.5 20.5t-77.5 46.5l43 63q74 -50 128 -50q49 0 130 48z" />
    <glyph glyph-name="abreve" unicode="&#x103;" horiz-adv-x="577" 
d="M502 368v-368h-123q-2 5 -5.5 19.5t-5.5 20.5q-92 -49 -157 -49q-91 0 -131.5 45.5t-40.5 120.5q0 82 57.5 112.5t161.5 25.5l99 -5v80q0 33 -15 41.5t-52 8.5q-106 0 -197 -12q-1 4 -11 42t-10 41q119 19 235 19q105 0 150 -29t45 -113zM357 120v96q-105 0 -141 -11.5
t-36 -52.5q0 -63 43 -63q41 0 134 31zM450 621q-26 -24 -74.5 -45.5t-94.5 -21.5q-47 0 -94.5 20.5t-77.5 46.5l43 63q74 -50 128 -50q49 0 130 48z" />
    <glyph glyph-name="Aogonek" unicode="&#x104;" horiz-adv-x="693" 
d="M578 -185q-46 0 -78.5 22t-32.5 62q0 46 62 101h-3l-59 171h-260l-57 -171h-151l234 667h202l239 -667h-38q-55 -62 -55 -97q0 -17 32 -17q20 0 56 8l5 -65q-48 -14 -96 -14zM335 553l-96 -287h194z" />
    <glyph glyph-name="aogonek" unicode="&#x105;" horiz-adv-x="577" 
d="M416 -188q-47 0 -79 21.5t-32 62.5q0 49 71 110q-4 22 -8 34q-92 -49 -157 -49q-91 0 -131.5 45.5t-40.5 120.5q0 82 57.5 112.5t161.5 25.5l99 -5v80q0 33 -15 41.5t-52 8.5q-106 0 -197 -12q-1 4 -11 42t-10 41q119 19 235 19q105 0 150 -29t45 -113v-368h-25
q-58 -64 -58 -100q0 -17 31 -17q20 0 56 8l6 -65q-48 -14 -96 -14zM357 120v96q-105 0 -141 -11.5t-36 -52.5q0 -63 43 -63q41 0 134 31z" />
    <glyph glyph-name="Cacute" unicode="&#x106;" horiz-adv-x="650" 
d="M384 947l93 -43l-115 -175l-89 42zM388 86q51 0 201 4v-77q-97 -22 -240 -22q-83 0 -136 13t-90.5 47.5t-53.5 94.5t-16 155q0 65 2 106.5t8.5 85.5t19 70t33 51t52 37.5t74 20t100.5 7.5q106 0 243 -16v-88q-188 13 -218 13q-38 0 -63.5 -4.5t-44 -19.5t-28.5 -33
t-15.5 -55.5t-7 -75t-1.5 -102.5q0 -39 2 -68.5t8 -52t12 -38t19.5 -25.5t24 -15.5t32 -8.5t37.5 -3.5t46 -0.5z" />
    <glyph glyph-name="cacute" unicode="&#x107;" horiz-adv-x="566" 
d="M200 223q0 -48 6.5 -76t24.5 -43t40.5 -19t62.5 -4q51 0 168 9v-76q-102 -23 -214 -23q-66 0 -105 7.5t-70.5 31.5t-44.5 71t-13 125q0 60 2.5 98t11 73t23.5 54t40.5 33.5t61.5 20t88 5.5q104 0 214 -17v-85q-167 12 -195 12q-30 0 -48 -6t-29.5 -16t-16 -37.5t-6 -54
t-1.5 -83.5zM330 768l93 -43l-115 -175l-88 42z" />
    <glyph glyph-name="Ccircumflex" unicode="&#x108;" horiz-adv-x="650" 
d="M535 794l-62 -66l-124 89l-131 -87l-54 66l188 132zM388 86q51 0 201 4v-77q-97 -22 -240 -22q-83 0 -136 13t-90.5 47.5t-53.5 94.5t-16 155q0 65 2 106.5t8.5 85.5t19 70t33 51t52 37.5t74 20t100.5 7.5q106 0 243 -16v-88q-188 13 -218 13q-38 0 -63.5 -4.5t-44 -19.5
t-28.5 -33t-15.5 -55.5t-7 -75t-1.5 -102.5q0 -39 2 -68.5t8 -52t12 -38t19.5 -25.5t24 -15.5t32 -8.5t37.5 -3.5t46 -0.5z" />
    <glyph glyph-name="ccircumflex" unicode="&#x109;" horiz-adv-x="566" 
d="M200 223q0 -48 6.5 -76t24.5 -43t40.5 -19t62.5 -4q51 0 168 9v-76q-102 -23 -214 -23q-66 0 -105 7.5t-70.5 31.5t-44.5 71t-13 125q0 60 2.5 98t11 73t23.5 54t40.5 33.5t61.5 20t88 5.5q104 0 214 -17v-85q-167 12 -195 12q-30 0 -48 -6t-29.5 -16t-16 -37.5t-6 -54
t-1.5 -83.5zM468 619l-63 -66l-123 89l-131 -87l-55 66l188 132z" />
    <glyph glyph-name="Cdotaccent" unicode="&#x10a;" horiz-adv-x="650" 
d="M260 795q0 43 14.5 55t69.5 12t69.5 -11.5t14.5 -55.5q0 -43 -14.5 -56t-69.5 -13t-69.5 13t-14.5 56zM388 86q51 0 201 4v-77q-97 -22 -240 -22q-83 0 -136 13t-90.5 47.5t-53.5 94.5t-16 155q0 65 2 106.5t8.5 85.5t19 70t33 51t52 37.5t74 20t100.5 7.5q106 0 243 -16
v-88q-188 13 -218 13q-38 0 -63.5 -4.5t-44 -19.5t-28.5 -33t-15.5 -55.5t-7 -75t-1.5 -102.5q0 -39 2 -68.5t8 -52t12 -38t19.5 -25.5t24 -15.5t32 -8.5t37.5 -3.5t46 -0.5z" />
    <glyph glyph-name="cdotaccent" unicode="&#x10b;" horiz-adv-x="566" 
d="M200 223q0 -48 6.5 -76t24.5 -43t40.5 -19t62.5 -4q51 0 168 9v-76q-102 -23 -214 -23q-66 0 -105 7.5t-70.5 31.5t-44.5 71t-13 125q0 60 2.5 98t11 73t23.5 54t40.5 33.5t61.5 20t88 5.5q104 0 214 -17v-85q-167 12 -195 12q-30 0 -48 -6t-29.5 -16t-16 -37.5t-6 -54
t-1.5 -83.5zM204 623q0 43 14.5 55t69.5 12t69.5 -11.5t14.5 -55.5q0 -43 -14.5 -56t-69.5 -13t-69.5 13t-14.5 56z" />
    <glyph glyph-name="Ccaron" unicode="&#x10c;" horiz-adv-x="650" 
d="M480 915l54 -60l-176 -126l-180 123l50 61l129 -79zM388 86q51 0 201 4v-77q-97 -22 -240 -22q-83 0 -136 13t-90.5 47.5t-53.5 94.5t-16 155q0 65 2 106.5t8.5 85.5t19 70t33 51t52 37.5t74 20t100.5 7.5q106 0 243 -16v-88q-188 13 -218 13q-38 0 -63.5 -4.5t-44 -19.5
t-28.5 -33t-15.5 -55.5t-7 -75t-1.5 -102.5q0 -39 2 -68.5t8 -52t12 -38t19.5 -25.5t24 -15.5t32 -8.5t37.5 -3.5t46 -0.5z" />
    <glyph glyph-name="ccaron" unicode="&#x10d;" horiz-adv-x="566" 
d="M200 223q0 -48 6.5 -76t24.5 -43t40.5 -19t62.5 -4q51 0 168 9v-76q-102 -23 -214 -23q-66 0 -105 7.5t-70.5 31.5t-44.5 71t-13 125q0 60 2.5 98t11 73t23.5 54t40.5 33.5t61.5 20t88 5.5q104 0 214 -17v-85q-167 12 -195 12q-30 0 -48 -6t-29.5 -16t-16 -37.5t-6 -54
t-1.5 -83.5zM418 737l54 -60l-176 -126l-181 123l51 61l129 -79z" />
    <glyph glyph-name="Dcaron" unicode="&#x10e;" horiz-adv-x="720" 
d="M80 0v668l285 1q81 0 131 -13t87 -50t52 -103t15 -172q0 -103 -13 -166t-46.5 -100.5t-83 -51t-130.5 -13.5h-297zM370 581h-143v-490l145 -1q47 1 73.5 18.5t41.5 71t15 151.5q0 113 -12.5 165.5t-38 68.5t-81.5 16zM458 915l54 -60l-176 -126l-180 123l50 61l129 -79z
" />
    <glyph glyph-name="dcaron" unicode="&#x10f;" horiz-adv-x="636" 
d="M54 256v29q3 123 43 174t143 51q60 0 122 -12v190h143v-688h-115q-6 18 -10 34q-93 -40 -148 -40q-93 0 -135.5 62t-42.5 200zM200 282q0 -110 10.5 -152t42.5 -42q40 0 109 30v294q-101 20 -131.5 -5t-30.5 -125zM578 447l-42 54q32 18 43 33q-24 5 -31 19t-7 46
q0 43 14 54t69 11q54 0 67 -11t13 -54q0 -50 -29 -84t-97 -68z" />
    <glyph glyph-name="Dcroat" unicode="&#x110;" horiz-adv-x="709" 
d="M19 302v102h49v264l286 1q81 0 131 -13t86.5 -50t51.5 -103t15 -172q0 -137 -26 -207.5t-82 -97t-164 -26.5h-298v302h-49zM358 581h-142v-177h107v-102h-107v-211l145 -1q47 1 73.5 18.5t41.5 71t15 151.5q0 113 -13 166t-38.5 68.5t-81.5 15.5z" />
    <glyph glyph-name="dcroat" unicode="&#x111;" horiz-adv-x="580" 
d="M256 552v91h106v45h143v-45h55v-91h-55v-552h-115q-6 18 -10 34q-93 -40 -148 -40q-93 0 -135.5 62t-42.5 200v29q3 123 43 174t143 51q60 0 122 -12v54h-106zM200 282q0 -110 10.5 -152t42.5 -42q40 0 109 30v294q-101 20 -131.5 -5t-30.5 -125z" />
    <glyph glyph-name="Emacron" unicode="&#x112;" horiz-adv-x="636" 
d="M564 0h-484v668h484v-96h-337v-184h309v-97h-309v-196h337v-95zM171 725v84h298v-84h-298z" />
    <glyph glyph-name="emacron" unicode="&#x113;" horiz-adv-x="597" 
d="M531 252v-35h-53q-47 0 -140.5 -1t-140.5 -1q1 -51 7.5 -79.5t25.5 -41t37 -15t58 -2.5q49 0 175 11v-77q-142 -20 -226 -20q-71 0 -113 12.5t-66 45t-32 78.5t-8 124q0 65 5 105t18.5 73t40.5 49t68.5 24.5t105.5 8.5q76 0 121.5 -11.5t72 -43.5t35.5 -78t9 -126z
M293 424q-27 0 -44 -5.5t-26.5 -12t-14.5 -25.5t-6.5 -32.5t-3.5 -47.5h196q-2 80 -19.5 101.5t-81.5 21.5zM146 552v84h298v-84h-298z" />
    <glyph glyph-name="Edotaccent" unicode="&#x116;" horiz-adv-x="634" 
d="M564 0h-484v668h484v-96h-337v-184h309v-97h-309v-196h337v-95zM252 795q0 43 14.5 55t69.5 12t69.5 -11.5t14.5 -55.5q0 -43 -14.5 -56t-69.5 -13t-69.5 13t-14.5 56z" />
    <glyph glyph-name="edotaccent" unicode="&#x117;" horiz-adv-x="597" 
d="M531 252v-35h-53q-47 0 -140.5 -1t-140.5 -1q1 -51 7.5 -79.5t25.5 -41t37 -15t58 -2.5q49 0 175 11v-77q-142 -20 -226 -20q-71 0 -113 12.5t-66 45t-32 78.5t-8 124q0 65 5 105t18.5 73t40.5 49t68.5 24.5t105.5 8.5q76 0 121.5 -11.5t72 -43.5t35.5 -78t9 -126z
M293 424q-27 0 -44 -5.5t-26.5 -12t-14.5 -25.5t-6.5 -32.5t-3.5 -47.5h196q-2 80 -19.5 101.5t-81.5 21.5zM211 625q0 43 14.5 55t69.5 12q54 0 69 -12t15 -55t-14.5 -56t-69.5 -13t-69.5 13t-14.5 56z" />
    <glyph glyph-name="Eogonek" unicode="&#x118;" horiz-adv-x="636" 
d="M467 -186q-46 0 -78.5 22t-32.5 62q0 46 63 102h-339v668h484v-96h-337v-184h309v-97h-309v-196h337v-95h-38q-56 -65 -56 -98q0 -17 32 -17q20 0 56 8l5 -65q-45 -14 -96 -14z" />
    <glyph glyph-name="eogonek" unicode="&#x119;" horiz-adv-x="599" 
d="M404 -187q-46 0 -78.5 22t-32.5 62q0 44 58 97q-39 -3 -77 -3q-71 0 -113 12.5t-66 45t-32 78.5t-8 124q0 65 5 105t18.5 73t40.5 49t68.5 24.5t105.5 8.5q76 0 121.5 -11.5t72 -43.5t35.5 -78t9 -126v-35h-53q-47 0 -140.5 -1t-140.5 -1q1 -51 7.5 -79.5t25.5 -41
t37 -15t58 -2.5q49 0 175 11v-77q-12 -2 -30 -4q-62 -68 -62 -106q0 -17 31 -17q20 0 56 8l6 -65q-48 -14 -97 -14zM293 424q-27 0 -44 -5.5t-26.5 -12t-14.5 -25.5t-6.5 -32.5t-3.5 -47.5h196q-2 80 -19.5 101.5t-81.5 21.5z" />
    <glyph glyph-name="Ecaron" unicode="&#x11a;" horiz-adv-x="636" 
d="M564 0h-484v668h484v-96h-337v-184h309v-97h-309v-196h337v-95zM449 915l54 -60l-176 -126l-180 123l50 61l129 -79z" />
    <glyph glyph-name="ecaron" unicode="&#x11b;" horiz-adv-x="597" 
d="M531 252v-35h-53q-47 0 -140.5 -1t-140.5 -1q1 -51 7.5 -79.5t25.5 -41t37 -15t58 -2.5q49 0 175 11v-77q-142 -20 -226 -20q-71 0 -113 12.5t-66 45t-32 78.5t-8 124q0 65 5 105t18.5 73t40.5 49t68.5 24.5t105.5 8.5q76 0 121.5 -11.5t72 -43.5t35.5 -78t9 -126z
M293 424q-27 0 -44 -5.5t-26.5 -12t-14.5 -25.5t-6.5 -32.5t-3.5 -47.5h196q-2 80 -19.5 101.5t-81.5 21.5zM422 735l54 -60l-176 -126l-180 123l50 61l129 -79z" />
    <glyph glyph-name="Gcircumflex" unicode="&#x11c;" horiz-adv-x="662" 
d="M515 793l-63 -66l-123 89l-131 -87l-55 66l189 132zM326 253v78h264v-318q-97 -22 -239 -22q-67 0 -113 8t-83 28t-58 55.5t-32 89t-11 129.5q0 65 2 106.5t8.5 85.5t19 70t33 51t52 37.5t74 20t100.5 7.5q106 0 243 -16v-88q-188 13 -218 13q-46 0 -74 -9t-46 -25.5
t-26.5 -54.5t-11 -80.5t-2.5 -120.5q0 -53 4.5 -90t13.5 -60.5t23 -36.5t33 -18.5t43 -6.5t54 0h35h31v167h-119z" />
    <glyph glyph-name="gcircumflex" unicode="&#x11d;" horiz-adv-x="646" 
d="M226 147q0 -24 47 -24q15 0 42 1t41 1q40 0 69.5 -2.5t62.5 -10.5t54 -22.5t35 -40t14 -61.5q0 -85 -60.5 -125.5t-163.5 -40.5q-75 0 -155 4t-98 4v86q147 -6 246 -6q45 0 65.5 16.5t20.5 54.5q0 32 -21.5 43t-60.5 11q-12 0 -43 -1t-48 -1q-55 0 -93 8t-66.5 35.5
t-28.5 74.5q0 29 17 54q-50 38 -50 132q0 90 45.5 128.5t172.5 39.5l326 1v-75l-65 -8q16 -35 16 -86q0 -95 -45.5 -132t-145.5 -37h-129q-1 0 -1 -21zM332 250q41 0 58 22t17 71q0 48 -16.5 63.5t-61.5 15.5h-55q-48 0 -65 -16t-17 -69q0 -49 16 -67t59 -20h65zM506 620
l-62 -66l-124 89l-131 -87l-55 66l189 132z" />
    <glyph glyph-name="Gbreve" unicode="&#x11e;" horiz-adv-x="662" 
d="M516 792q-26 -24 -74 -45.5t-95 -21.5t-93.5 20.5t-78.5 46.5l43 63q74 -50 128 -50q49 0 130 48zM326 253v78h264v-318q-97 -22 -239 -22q-67 0 -113 8t-83 28t-58 55.5t-32 89t-11 129.5q0 65 2 106.5t8.5 85.5t19 70t33 51t52 37.5t74 20t100.5 7.5q106 0 243 -16v-88
q-188 13 -218 13q-46 0 -74 -9t-46 -25.5t-26.5 -54.5t-11 -80.5t-2.5 -120.5q0 -53 4.5 -90t13.5 -60.5t23 -36.5t33 -18.5t43 -6.5t54 0h35h31v167h-119z" />
    <glyph glyph-name="gbreve" unicode="&#x11f;" horiz-adv-x="646" 
d="M226 147q0 -24 47 -24q15 0 42 1t41 1q40 0 69.5 -2.5t62.5 -10.5t54 -22.5t35 -40t14 -61.5q0 -85 -60.5 -125.5t-163.5 -40.5q-75 0 -155 4t-98 4v86q147 -6 246 -6q45 0 65.5 16.5t20.5 54.5q0 32 -21.5 43t-60.5 11q-12 0 -43 -1t-48 -1q-55 0 -93 8t-66.5 35.5
t-28.5 74.5q0 29 17 54q-50 38 -50 132q0 90 45.5 128.5t172.5 39.5l326 1v-75l-65 -8q16 -35 16 -86q0 -95 -45.5 -132t-145.5 -37h-129q-1 0 -1 -21zM332 250q41 0 58 22t17 71q0 48 -16.5 63.5t-61.5 15.5h-55q-48 0 -65 -16t-17 -69q0 -49 16 -67t59 -20h65zM491 621
q-27 -24 -75 -45.5t-95 -21.5t-93.5 20.5t-78.5 46.5l44 63q74 -50 127 -50q49 0 130 48z" />
    <glyph glyph-name="Gdotaccent" unicode="&#x120;" horiz-adv-x="662" 
d="M261 798q0 43 14.5 55t69.5 12t69.5 -11.5t14.5 -55.5q0 -43 -14.5 -56t-69.5 -13t-69.5 13t-14.5 56zM326 253v78h264v-318q-97 -22 -239 -22q-67 0 -113 8t-83 28t-58 55.5t-32 89t-11 129.5q0 65 2 106.5t8.5 85.5t19 70t33 51t52 37.5t74 20t100.5 7.5q106 0 243 -16
v-88q-188 13 -218 13q-46 0 -74 -9t-46 -25.5t-26.5 -54.5t-11 -80.5t-2.5 -120.5q0 -53 4.5 -90t13.5 -60.5t23 -36.5t33 -18.5t43 -6.5t54 0h35h31v167h-119z" />
    <glyph glyph-name="gdotaccent" unicode="&#x121;" horiz-adv-x="646" 
d="M226 147q0 -24 47 -24q15 0 42 1t41 1q40 0 69.5 -2.5t62.5 -10.5t54 -22.5t35 -40t14 -61.5q0 -85 -60.5 -125.5t-163.5 -40.5q-75 0 -155 4t-98 4v86q147 -6 246 -6q45 0 65.5 16.5t20.5 54.5q0 32 -21.5 43t-60.5 11q-12 0 -43 -1t-48 -1q-55 0 -93 8t-66.5 35.5
t-28.5 74.5q0 29 17 54q-50 38 -50 132q0 90 45.5 128.5t172.5 39.5l326 1v-75l-65 -8q16 -35 16 -86q0 -95 -45.5 -132t-145.5 -37h-129q-1 0 -1 -21zM332 250q41 0 58 22t17 71q0 48 -16.5 63.5t-61.5 15.5h-55q-48 0 -65 -16t-17 -69q0 -49 16 -67t59 -20h65zM236 624
q0 43 14.5 55t69.5 12t69.5 -11.5t14.5 -55.5q0 -43 -14.5 -56t-69.5 -13t-69.5 13t-14.5 56z" />
    <glyph glyph-name="Gcommaaccent" unicode="&#x122;" horiz-adv-x="662" 
d="M314 -278l-42 54q32 18 43 33q-24 5 -31 19t-7 46q0 43 13.5 54t69.5 11q54 0 67 -11t13 -54q0 -49 -29 -83.5t-97 -68.5zM326 253v78h264v-318q-97 -22 -239 -22q-67 0 -113 8t-83 28t-58 55.5t-32 89t-11 129.5q0 65 2 106.5t8.5 85.5t19 70t33 51t52 37.5t74 20
t100.5 7.5q106 0 243 -16v-88q-188 13 -218 13q-46 0 -74 -9t-46 -25.5t-26.5 -54.5t-11 -80.5t-2.5 -120.5q0 -53 4.5 -90t13.5 -60.5t23 -36.5t33 -18.5t43 -6.5t54 0h35h31v167h-119z" />
    <glyph glyph-name="gcommaaccent" unicode="&#x123;" horiz-adv-x="646" 
d="M226 147q0 -24 47 -24q15 0 42 1t41 1q40 0 69.5 -2.5t62.5 -10.5t54 -22.5t35 -40t14 -61.5q0 -85 -60.5 -125.5t-163.5 -40.5q-75 0 -155 4t-98 4v86q147 -6 246 -6q45 0 65.5 16.5t20.5 54.5q0 32 -21.5 43t-60.5 11q-12 0 -43 -1t-48 -1q-55 0 -93 8t-66.5 35.5
t-28.5 74.5q0 29 17 54q-50 38 -50 132q0 90 45.5 128.5t172.5 39.5l326 1v-75l-65 -8q16 -35 16 -86q0 -95 -45.5 -132t-145.5 -37h-129q-1 0 -1 -21zM332 250q41 0 58 22t17 71q0 48 -16.5 63.5t-61.5 15.5h-55q-48 0 -65 -16t-17 -69q0 -49 16 -67t59 -20h65zM371 770
l40 -55q-31 -17 -41 -33q23 -4 30 -18t7 -46q0 -44 -13.5 -55t-68.5 -11t-68.5 11.5t-13.5 54.5q0 49 29.5 83.5t98.5 68.5z" />
    <glyph glyph-name="Hcircumflex" unicode="&#x124;" horiz-adv-x="745" 
d="M650 0h-150v295h-270v-295h-150v668h150v-281h270v281h150v-668zM557 795l-63 -66l-123 89l-131 -87l-55 66l188 132z" />
    <glyph glyph-name="hcircumflex" unicode="&#x125;" horiz-adv-x="604" 
d="M529 0h-145v373q0 38 -35 38q-69 0 -144 -23v-388h-142v681h141v-205q127 31 170 31q155 0 155 -126v-381zM314 794l-63 -66l-123 89l-131 -87l-55 66l188 132z" />
    <glyph glyph-name="Hbar" unicode="&#x126;" horiz-adv-x="741" 
d="M39 459v84h38v125h150v-125h270v125h150v-125h38v-84h-38v-459h-150v295h-270v-295h-150v459h-38zM227 387h270v72h-270v-72z" />
    <glyph glyph-name="hbar" unicode="&#x127;" horiz-adv-x="598" 
d="M-1 568v77h56v36h141v-36h101v-77h-101v-92q127 31 170 31q155 0 155 -126v-381h-145v373q0 38 -34 38q-70 0 -145 -23v-388h-142v568h-56z" />
    <glyph glyph-name="Itilde" unicode="&#x128;" horiz-adv-x="312" 
d="M208 732q-22 0 -62.5 18t-60.5 18q-18 0 -51 -41q-13 8 -35.5 22.5t-28.5 17.5q19 35 49.5 57t64.5 22q24 0 66 -18t52 -18q18 0 48 37q11 -7 33.5 -20t33.5 -20q-38 -75 -109 -75zM228 667v-667h-148v667h148z" />
    <glyph glyph-name="itilde" unicode="&#x129;" horiz-adv-x="291" 
d="M206 0h-147v499h147v-499zM202 552q-22 0 -63 18t-61 18q-16 0 -51 -41q-11 6 -32 20t-32 20q20 35 50 57t64 22q25 0 67 -18t51 -18q18 0 48 37q11 -7 33.5 -20t33.5 -20q-38 -75 -108 -75z" />
    <glyph glyph-name="imacron" unicode="&#x12b;" horiz-adv-x="291" 
d="M212 0h-147v499h147v-499zM-7 552v84h298v-84h-298z" />
    <glyph glyph-name="Iogonek" unicode="&#x12e;" horiz-adv-x="298" 
d="M122 -184q-46 0 -78.5 22t-32.5 62q0 46 62 101v666h149v-667h-42q-55 -62 -55 -96q0 -17 32 -17q20 0 56 8l5 -65q-45 -14 -96 -14z" />
    <glyph glyph-name="iogonek" unicode="&#x12f;" horiz-adv-x="291" 
d="M56 617q0 43 13 54t68 11q54 0 67 -10.5t13 -54.5q0 -41 -14 -53.5t-66 -12.5q-54 0 -67.5 12.5t-13.5 53.5zM118 -183q-47 0 -79 21.5t-32 62.5q0 46 59 99h-2v499h147v-499h-36q-54 -60 -54 -95q0 -17 31 -17q20 0 56 8l6 -65q-48 -14 -96 -14z" />
    <glyph glyph-name="Idotaccent" unicode="&#x130;" horiz-adv-x="312" 
d="M221 667v-667h-149v667h149zM66 798q0 43 14.5 55t69.5 12t69.5 -11.5t14.5 -55.5q0 -43 -14.5 -56t-69.5 -13t-69.5 13t-14.5 56z" />
    <glyph glyph-name="dotlessi" unicode="&#x131;" horiz-adv-x="291" 
d="M217 0h-148v488h148v-488z" />
    <glyph glyph-name="Jcircumflex" unicode="&#x134;" horiz-adv-x="373" 
d="M421 795l-63 -66l-123 89l-131 -87l-55 66l188 132zM306 670v-536q0 -87 -46 -119t-151 -25l-91 4v81q91 5 113 13q30 13 30 43v539h145z" />
    <glyph glyph-name="jcircumflex" unicode="&#x135;" horiz-adv-x="291" 
d="M-3 -182v63q40 6 53 21t13 41v557h145v-541q0 -84 -37 -115t-108 -31q-20 0 -66 5zM319 617l-63 -66l-123 89l-131 -87l-55 66l189 132z" />
    <glyph glyph-name="Kcommaaccent" unicode="&#x136;" horiz-adv-x="679" 
d="M227 0h-147v668h147v-284h74l188 284h162l-219 -323l230 -345h-160l-197 293h-78v-293zM301 -275l-41 54q32 18 42 33q-23 5 -30.5 19t-7.5 46q0 43 14 54t69 11t68 -11t13 -54q0 -49 -29 -83.5t-98 -68.5z" />
    <glyph glyph-name="kcommaaccent" unicode="&#x137;" horiz-adv-x="618" 
d="M212 0h-143v679h143v-346h74l142 238h150l-170 -283l199 -288h-153l-168 242h-74v-242zM284 -275l-41 54q32 18 43 33q-24 5 -31 19t-7 46q0 43 13.5 54t68.5 11t68 -11t13 -54q0 -49 -29 -83.5t-98 -68.5z" />
    <glyph glyph-name="kgreenlandic" unicode="&#x138;" horiz-adv-x="618" 
d="M212 0h-143v679h143v-346h74l142 238h150l-170 -283l199 -288h-153l-168 242h-74v-242z" />
    <glyph glyph-name="Lacute" unicode="&#x139;" horiz-adv-x="580" 
d="M549 0h-469v667h150v-572h319v-95zM218 951l93 -43l-115 -175l-88 42z" />
    <glyph glyph-name="lacute" unicode="&#x13a;" horiz-adv-x="305" 
d="M272 61v-63q-44 -6 -57 -6q-71 0 -109 31.5t-38 115.5v540h146v-557q0 -14 1 -21t6 -16.5t17.5 -15t33.5 -8.5zM194 949l93 -43l-116 -175l-88 42z" />
    <glyph glyph-name="Lcommaaccent" unicode="&#x13b;" horiz-adv-x="580" 
d="M549 0h-469v667h150v-572h319v-95zM279 -279l-42 54q32 18 43 33q-24 5 -31 19t-7 46q0 43 14 54t69 11q54 0 67 -11t13 -54q0 -49 -29 -83.5t-97 -68.5z" />
    <glyph glyph-name="lcommaaccent" unicode="&#x13c;" horiz-adv-x="305" 
d="M272 61v-63q-44 -6 -57 -6q-71 0 -109 31.5t-38 115.5v540h146v-557q0 -14 1 -21t6 -16.5t17.5 -15t33.5 -8.5zM141 -274l-41 54q30 17 42 33q-23 5 -30.5 19t-7.5 46q0 43 14 54t69 11t68 -11t13 -54q0 -49 -29 -83.5t-98 -68.5z" />
    <glyph glyph-name="Lcaron" unicode="&#x13d;" horiz-adv-x="580" 
d="M549 0h-469v667h150v-572h319v-95zM328 512l-41 54q30 17 42 33q-23 5 -30.5 19t-7.5 46q0 43 14 54t69 11t68 -11t13 -54q0 -49 -29 -83.5t-98 -68.5z" />
    <glyph glyph-name="lcaron" unicode="&#x13e;" horiz-adv-x="355" 
d="M272 61v-63q-44 -6 -57 -6q-71 0 -109 31.5t-38 115.5v540h146v-557q0 -14 1 -21t6 -16.5t17.5 -15t33.5 -8.5zM296 462l-42 54q32 18 43 33q-24 5 -31 19t-7 46q0 43 14 54t69 11q54 0 67 -11t13 -54q0 -49 -29 -83.5t-97 -68.5z" />
    <glyph glyph-name="Lslash" unicode="&#x141;" horiz-adv-x="604" 
d="M31 235l-38 84l103 33v315h152v-268l84 27l33 -84l-117 -38v-212h318v-92h-470v257z" />
    <glyph glyph-name="lslash" unicode="&#x142;" horiz-adv-x="418" 
d="M52 246l-37 82l109 36v314h145v-269l79 26l36 -83l-115 -37v-194q0 -15 1 -21.5t6 -16.5t17.5 -15t33.5 -8v-63q-41 -6 -56 -6q-74 0 -110.5 31t-36.5 116v131z" />
    <glyph glyph-name="Nacute" unicode="&#x143;" horiz-adv-x="767" 
d="M670 0h-178l-268 450v-450h-144v668h169l273 -464v464h148v-668zM413 945l93 -43l-115 -175l-89 42z" />
    <glyph glyph-name="nacute" unicode="&#x144;" 
d="M538 0h-146v372q0 37 -37 37q-56 0 -140 -27v-382h-146v499h121l14 -35q6 2 33 12t37.5 13t32 9t39 8.5t34.5 2.5q69 0 112.5 -31t43.5 -93zM354 768l93 -43l-115 -175l-89 42z" />
    <glyph glyph-name="Ncommaaccent" unicode="&#x145;" horiz-adv-x="759" 
d="M670 0h-178l-268 450v-450h-144v668h169l273 -464v464h148v-668zM329 -275l-41 54q32 18 42 33q-23 5 -30.5 19t-7.5 46q0 43 14 54t69 11t68 -11t13 -54q0 -49 -29 -83.5t-98 -68.5z" />
    <glyph glyph-name="ncommaaccent" unicode="&#x146;" 
d="M538 0h-146v372q0 37 -37 37q-56 0 -140 -27v-382h-146v499h121l14 -35q6 2 33 12t37.5 13t32 9t39 8.5t34.5 2.5q69 0 112.5 -31t43.5 -93zM252 -275l-41 54q31 19 42 33q-23 5 -30.5 19t-7.5 46q0 43 14 54t69 11t68 -11t13 -54q0 -49 -29 -83.5t-98 -68.5z" />
    <glyph glyph-name="Ncaron" unicode="&#x147;" horiz-adv-x="767" 
d="M670 0h-178l-268 450v-450h-144v668h169l273 -464v464h148v-668zM507 915l54 -60l-176 -126l-180 123l50 61l129 -79z" />
    <glyph glyph-name="ncaron" unicode="&#x148;" 
d="M538 0h-146v372q0 37 -37 37q-56 0 -140 -27v-382h-146v499h121l14 -35q6 2 33 12t37.5 13t32 9t39 8.5t34.5 2.5q69 0 112.5 -31t43.5 -93zM436 740l53 -60l-175 -126l-181 123l51 61l128 -79z" />
    <glyph glyph-name="Eng" unicode="&#x14a;" horiz-adv-x="759" 
d="M670 669v-710q0 -86 -44.5 -115t-152.5 -29h-64v89h37t27.5 1.5t23.5 4.5t14.5 9t11 15t2.5 22v44h-33l-268 450v-450h-144v668h169l273 -464v464h3v1h145z" />
    <glyph glyph-name="eng" unicode="&#x14b;" horiz-adv-x="618" 
d="M325 -182v63q40 6 53 21t13 41l1 429q0 37 -37 37q-56 0 -140 -27v-382h-146v499h121l14 -35q6 2 33 12t37.5 13t32 9t39 8.5t34.5 2.5q69 0 112.5 -31t43.5 -93v-426q0 -84 -37 -115t-108 -31q-20 0 -66 5z" />
    <glyph glyph-name="Omacron" unicode="&#x14c;" horiz-adv-x="723" 
d="M352 -10q-65 0 -109.5 6t-77.5 23t-51.5 40t-29.5 65t-14.5 89t-3.5 120q0 75 3.5 123t15 89.5t30.5 64.5t52 39.5t76.5 22t108.5 5.5q66 0 111 -6t78.5 -22.5t52 -39.5t30 -65t15 -89.5t3.5 -121.5q0 -75 -3.5 -123t-15 -89.5t-30.5 -64t-52.5 -39t-78 -22t-110.5 -5.5z
M352 79q42 0 66 6.5t41 19.5t24.5 45.5t10 71.5t2.5 111q0 60 -1.5 94.5t-6.5 67t-14 48t-26 27.5t-39 15.5t-57 3.5q-26 0 -44.5 -2t-33.5 -9t-25 -14t-17 -24t-10.5 -32.5t-5.5 -46t-2.5 -56.5t-0.5 -72q0 -60 1 -92.5t6 -65.5t13 -48t24.5 -28t38.5 -16.5t56 -3.5z
M212 726v84h298v-84h-298z" />
    <glyph glyph-name="omacron" unicode="&#x14d;" horiz-adv-x="616" 
d="M297 -9q-54 0 -91.5 5t-65.5 18t-44 31t-26 49.5t-13 66.5t-3 89q0 82 8.5 128t35 77.5t73 42.5t126.5 11q81 0 128 -11.5t73.5 -43.5t35 -77.5t8.5 -126.5q0 -80 -8.5 -126t-35.5 -78t-74 -43.5t-127 -11.5zM297 75q69 0 86 31.5t17 143.5q0 115 -17.5 146.5t-85.5 31.5
t-84.5 -32t-16.5 -146q0 -113 16.5 -144t84.5 -31zM150 552v84h298v-84h-298z" />
    <glyph glyph-name="Ohungarumlaut" unicode="&#x150;" horiz-adv-x="723" 
d="M352 -10q-65 0 -109.5 6t-77.5 23t-51.5 40t-29.5 65t-14.5 89t-3.5 120q0 75 3.5 123t15 89.5t30.5 64.5t52 39.5t76.5 22t108.5 5.5q66 0 111 -6t78.5 -22.5t52 -39.5t30 -65t15 -89.5t3.5 -121.5q0 -75 -3.5 -123t-15 -89.5t-30.5 -64t-52.5 -39t-78 -22t-110.5 -5.5z
M352 79q42 0 66 6.5t41 19.5t24.5 45.5t10 71.5t2.5 111q0 60 -1.5 94.5t-6.5 67t-14 48t-26 27.5t-39 15.5t-57 3.5q-26 0 -44.5 -2t-33.5 -9t-25 -14t-17 -24t-10.5 -32.5t-5.5 -46t-2.5 -56.5t-0.5 -72q0 -60 1 -92.5t6 -65.5t13 -48t24.5 -28t38.5 -16.5t56 -3.5z
M472 941l92 -43l-115 -175l-88 42zM308 942l95 -44l-115 -175l-89 42z" />
    <glyph glyph-name="ohungarumlaut" unicode="&#x151;" horiz-adv-x="616" 
d="M297 -9q-54 0 -91.5 5t-65.5 18t-44 31t-26 49.5t-13 66.5t-3 89q0 82 8.5 128t35 77.5t73 42.5t126.5 11q81 0 128 -11.5t73.5 -43.5t35 -77.5t8.5 -126.5q0 -80 -8.5 -126t-35.5 -78t-74 -43.5t-127 -11.5zM297 75q69 0 86 31.5t17 143.5q0 115 -17.5 146.5t-85.5 31.5
t-84.5 -32t-16.5 -146q0 -113 16.5 -144t84.5 -31zM412 770l93 -43l-115 -175l-89 42zM249 771l95 -44l-116 -175l-88 42z" />
    <glyph glyph-name="OE" unicode="&#x152;" horiz-adv-x="1006" 
d="M348 0q-48 1 -79 4t-69.5 13t-62 28t-43 50.5t-27.5 78.5q-10 57 -10 162q0 64 3.5 107.5t14.5 83.5t31 64t52.5 43t79 26.5t110.5 7.5h588v-95h-337v-185h308v-97h-308v-198h337v-93h-588zM233 128q22 -35 116 -35h102v481h-102q-44 0 -66.5 -6t-41.5 -30t-25.5 -71.5
t-6.5 -130.5q0 -168 24 -208z" />
    <glyph glyph-name="oe" unicode="&#x153;" horiz-adv-x="963" 
d="M892 217l-336 -2q0 -90 26 -114t102 -24q50 0 176 11v-77q-140 -20 -225 -20q-110 0 -157 40q-51 -40 -180 -40q-81 0 -128 11.5t-73.5 44t-34.5 77.5t-8 126q0 65 5.5 106t19.5 73t42.5 48t70 24t106.5 8q125 0 178 -38q47 40 178 40q53 0 90 -5.5t64 -20.5t43 -35.5
t25.5 -56t12.5 -76t3 -100.5zM298 75q69 0 86 31t17 144q0 115 -17 146.5t-86 31.5q-68 0 -85 -32.5t-17 -145.5q0 -112 17 -143.5t85 -31.5zM654 427q-23 0 -39 -2.5t-26.5 -11.5t-16 -16t-9 -25.5t-4.5 -30.5t-2 -40h198q-2 80 -20 103t-81 23z" />
    <glyph glyph-name="Racute" unicode="&#x154;" horiz-adv-x="700" 
d="M376 948l93 -43l-115 -175l-89 42zM230 0h-150v667h290q261 0 261 -168v-78q0 -78 -79 -132l60 -289h-155l-49 253q-24 -1 -178 -1v-252zM230 579v-237h135q56 0 87 16t31 63v77q0 48 -32 64.5t-86 16.5h-135z" />
    <glyph glyph-name="racute" unicode="&#x155;" horiz-adv-x="422" 
d="M206 463q94 39 183 47v-93q-64 -4 -174 -42v-375h-146v500h130zM213 768l93 -43l-116 -175l-88 42z" />
    <glyph glyph-name="Rcommaaccent" unicode="&#x156;" horiz-adv-x="700" 
d="M314 -274l-42 54q32 18 43 33q-24 5 -31 19t-7 46q0 43 13.5 54t69.5 11q54 0 67 -11t13 -54q0 -49 -29 -83.5t-97 -68.5zM230 0h-150v667h290q261 0 261 -168v-78q0 -78 -79 -132l60 -289h-155l-49 253q-24 -1 -178 -1v-252zM230 579v-237h135q56 0 87 16t31 63v77
q0 48 -32 64.5t-86 16.5h-135z" />
    <glyph glyph-name="rcommaaccent" unicode="&#x157;" horiz-adv-x="427" 
d="M217 463q94 39 183 47v-93q-61 -4 -174 -42v-375h-145v500h130zM109 -281l-42 54q32 18 43 33q-24 5 -31 19t-7 46q0 43 14 54t69 11q54 0 67 -11t13 -54q0 -49 -29 -83.5t-97 -68.5z" />
    <glyph glyph-name="Rcaron" unicode="&#x158;" horiz-adv-x="700" 
d="M480 914l54 -60l-176 -126l-180 123l50 61l129 -79zM230 0h-150v667h290q261 0 261 -168v-78q0 -78 -79 -132l60 -289h-155l-49 253q-24 -1 -178 -1v-252zM230 579v-237h135q56 0 87 16t31 63v77q0 48 -32 64.5t-86 16.5h-135z" />
    <glyph glyph-name="rcaron" unicode="&#x159;" horiz-adv-x="418" 
d="M197 463q94 39 183 47v-93q-64 -4 -174 -42v-375h-146v500h130zM336 737l54 -60l-176 -126l-180 123l50 61l129 -79z" />
    <glyph glyph-name="Sacute" unicode="&#x15a;" 
d="M188 516q0 -34 39 -62t95 -51.5t111.5 -51t94.5 -73.5t39 -106q0 -91 -63 -136.5t-166 -45.5t-257 10v95q150 -11 249 -11q45 0 66 18.5t21 58.5q0 37 -39 66.5t-94.5 52.5t-111 49t-94.5 69.5t-39 99.5q0 92 61.5 137t166.5 45q140 0 257 -9v-97q-154 13 -250 13
q-86 0 -86 -71zM356 945l93 -43l-115 -175l-89 42z" />
    <glyph glyph-name="sacute" unicode="&#x15b;" horiz-adv-x="530" 
d="M184 378q0 -18 30 -35t73 -33t86 -36t73 -55.5t30 -81.5q0 -70 -53 -105t-139 -35q-50 0 -103.5 2.5t-81.5 5.5l-28 3v88q97 -10 191 -10q66 0 66 42q0 22 -30 39.5t-72.5 33t-85 34.5t-72.5 53t-30 80q0 70 52 105.5t138 35.5q51 0 105 -2.5t83 -5.5l28 -3v-89
q-114 10 -211 10q-49 0 -49 -41zM307 768l93 -43l-116 -175l-88 42z" />
    <glyph glyph-name="Scircumflex" unicode="&#x15c;" 
d="M188 516q0 -34 39 -62t95 -51.5t111.5 -51t94.5 -73.5t39 -106q0 -91 -63 -136.5t-166 -45.5t-257 10v95q150 -11 249 -11q45 0 66 18.5t21 58.5q0 37 -39 66.5t-94.5 52.5t-111 49t-94.5 69.5t-39 99.5q0 92 61.5 137t166.5 45q140 0 257 -9v-97q-154 13 -250 13
q-86 0 -86 -71zM504 793l-63 -66l-123 89l-131 -87l-55 66l188 132z" />
    <glyph glyph-name="scircumflex" unicode="&#x15d;" horiz-adv-x="531" 
d="M185 378q0 -18 30 -35t73 -33t86 -36t73 -55.5t30 -81.5q0 -70 -52.5 -105t-138.5 -35q-51 0 -104.5 2.5t-81.5 5.5l-28 3v88q97 -10 191 -10q66 0 66 42q0 22 -30 39.5t-72.5 33t-85 34.5t-72.5 53t-30 80q0 70 52.5 105.5t138.5 35.5q51 0 104.5 -2.5t81.5 -5.5l29 -3
v-89q-113 10 -211 10q-49 0 -49 -41zM449 619l-63 -66l-123 89l-131 -87l-55 66l188 132z" />
    <glyph glyph-name="Scedilla" unicode="&#x15e;" 
d="M188 516q0 -34 39 -62t95 -51.5t111.5 -51t94.5 -73.5t39 -106q0 -89 -60 -134.5t-160 -47.5l-4 -24q78 -4 78 -61q-2 -52 -25.5 -72.5t-74.5 -20.5q-31 0 -97 9q0 3 9 52q11 0 34 -1.5t34 -1.5q18 0 22 4t4 20q0 5 -0.5 8t-5.5 6t-14 3h-3q-11 1 -32.5 1t-32.5 1l12 78
q-25 1 -170 9v95q150 -11 249 -11q45 0 66 18.5t21 58.5q0 37 -39 66.5t-94.5 52.5t-111 49t-94.5 69.5t-39 99.5q0 92 61.5 137t166.5 45q140 0 257 -9v-97q-154 13 -250 13q-86 0 -86 -71z" />
    <glyph glyph-name="scedilla" unicode="&#x15f;" horiz-adv-x="530" 
d="M184 378q0 -18 30 -35t73 -33t86 -36t73 -55.5t30 -81.5q0 -67 -49.5 -102.5t-131.5 -37.5l-5 -27q78 -4 78 -61q-2 -52 -25 -72.5t-74 -20.5q-32 0 -98 9q1 8 4 25.5t5 26.5q12 0 35 -1.5t34 -1.5q17 0 21 4t4 20q0 5 -0.5 8t-5.5 6t-14 3h-3q-11 1 -32.5 1.5t-32.5 0.5
l13 82l-128 9v88q97 -10 191 -10q66 0 66 42q0 22 -30 39.5t-72.5 33t-85 34.5t-72.5 53t-30 80q0 70 52 105.5t138 35.5q51 0 105 -2.5t83 -5.5l28 -3v-89q-114 10 -211 10q-49 0 -49 -41z" />
    <glyph glyph-name="Scaron" unicode="&#x160;" 
d="M188 516q0 -34 39 -62t95 -51.5t111.5 -51t94.5 -73.5t39 -106q0 -91 -63 -136.5t-166 -45.5t-257 10v95q150 -11 249 -11q45 0 66 18.5t21 58.5q0 37 -39 66.5t-94.5 52.5t-111 49t-94.5 69.5t-39 99.5q0 92 61.5 137t166.5 45q140 0 257 -9v-97q-154 13 -250 13
q-86 0 -86 -71zM447 915l54 -60l-176 -126l-181 123l51 61l129 -79z" />
    <glyph glyph-name="scaron" unicode="&#x161;" horiz-adv-x="530" 
d="M184 378q0 -18 30 -35t73 -33t86 -36t73 -55.5t30 -81.5q0 -70 -53 -105t-139 -35q-50 0 -103.5 2.5t-81.5 5.5l-28 3v88q97 -10 191 -10q66 0 66 42q0 22 -30 39.5t-72.5 33t-85 34.5t-72.5 53t-30 80q0 70 52 105.5t138 35.5q51 0 105 -2.5t83 -5.5l28 -3v-89
q-114 10 -211 10q-49 0 -49 -41zM391 739l54 -60l-176 -126l-181 123l51 61l129 -79z" />
    <glyph glyph-name="Tcommaaccent" unicode="&#x162;" horiz-adv-x="642" 
d="M388 0h-152v573h-218v94h588v-94h-218v-573zM267 -278l-42 54q32 18 43 33q-24 5 -31 19t-7 46q0 43 13.5 54t68.5 11t68 -11t13 -54q0 -49 -29 -83.5t-97 -68.5z" />
    <glyph glyph-name="tcommaaccent" unicode="&#x163;" horiz-adv-x="466" 
d="M250 -274l-42 54q32 18 43 33q-24 5 -31 19t-7 46q0 43 14 54t69 11q54 0 67 -11t13 -54q0 -49 -29 -83.5t-97 -68.5zM340 -9q-65 0 -105 12.5t-59 40.5t-25 58.5t-6 80.5v233h-124v84h124v121h142v-121h126v-84h-126v-255q0 -60 14 -74.5t73 -14.5q15 0 53 2
q0 -10 0.5 -37t0.5 -36q-51 -10 -88 -10z" />
    <glyph glyph-name="Tcaron" unicode="&#x164;" horiz-adv-x="642" 
d="M388 0h-152v573h-218v94h588v-94h-218v-573zM437 915l54 -60l-176 -126l-181 123l51 61l129 -79z" />
    <glyph glyph-name="tcaron" unicode="&#x165;" horiz-adv-x="469" 
d="M399 546l-42 54q32 18 43 33q-24 5 -31 19t-7 46q0 43 14 54t69 11q54 0 67 -11t13 -54q0 -49 -29 -83.5t-97 -68.5zM340 -9q-65 0 -105 12.5t-59 40.5t-25 58.5t-6 80.5v233h-124v84h124v121h142v-121h126v-84h-126v-255q0 -60 14 -74.5t73 -14.5q15 0 53 2
q0 -10 0.5 -37t0.5 -36q-51 -10 -88 -10z" />
    <glyph glyph-name="Tbar" unicode="&#x166;" horiz-adv-x="642" 
d="M108 360v84h128v129h-218v94h588v-94h-218v-129h129v-84h-129v-360h-152v360h-128z" />
    <glyph glyph-name="tbar" unicode="&#x167;" horiz-adv-x="466" 
d="M66 276v80h77v57h-123v87h123v120h145v-120h125v-87h-125v-57h75v-80h-75v-114q0 -58 13.5 -72.5t70.5 -14.5q8 0 54 2l1 -75q-56 -11 -89 -11q-65 0 -105 12.5t-59 40.5t-25 58.5t-6 81.5v92h-77z" />
    <glyph glyph-name="Utilde" unicode="&#x168;" horiz-adv-x="745" 
d="M427 729q-22 0 -62.5 18t-60.5 18q-17 0 -52 -41q-10 6 -32 19.5t-32 20.5q20 35 50 57t64 22q24 0 66 -18t52 -18q18 0 48 37q9 -5 32 -18.5t35 -21.5q-38 -75 -108 -75zM364 79q35 0 57.5 3t40 15t26.5 27t14.5 47t7 67.5t1.5 94.5v336h148v-336q0 -75 -3.5 -123
t-15 -89.5t-30.5 -64t-53.5 -39t-80 -22t-112.5 -5.5q-66 0 -111.5 6t-78.5 23.5t-52 40t-30 64.5t-14.5 89t-3.5 120v336h149v-336q0 -72 2 -108t9 -70.5t23 -47.5t40.5 -20.5t66.5 -7.5z" />
    <glyph glyph-name="utilde" unicode="&#x169;" 
d="M66 499h146v-373q0 -36 37 -36q54 0 140 27v382h145v-499h-121l-13 35q-4 -1 -32.5 -11.5t-38.5 -13.5t-32 -9.5t-39 -8.5t-34 -2q-69 0 -113 31t-44 93zM374 552q-22 0 -63 18t-60 18q-17 0 -52 -41q-11 7 -32 20t-31 20q19 35 49.5 57t64.5 22q24 0 66 -18t51 -18
q19 0 49 37q12 -8 35 -21.5t32 -18.5q-40 -75 -109 -75z" />
    <glyph glyph-name="Umacron" unicode="&#x16a;" horiz-adv-x="745" 
d="M226 726v84h298v-84h-298zM364 79q35 0 57.5 3t40 15t26.5 27t14.5 47t7 67.5t1.5 94.5v336h148v-336q0 -75 -3.5 -123t-15 -89.5t-30.5 -64t-53.5 -39t-80 -22t-112.5 -5.5q-66 0 -111.5 6t-78.5 23.5t-52 40t-30 64.5t-14.5 89t-3.5 120v336h149v-336q0 -72 2 -108
t9 -70.5t23 -47.5t40.5 -20.5t66.5 -7.5z" />
    <glyph glyph-name="umacron" unicode="&#x16b;" 
d="M66 499h146v-373q0 -36 37 -36q54 0 140 27v382h145v-499h-121l-13 35q-4 -1 -32.5 -11.5t-38.5 -13.5t-32 -9.5t-39 -8.5t-34 -2q-69 0 -113 31t-44 93zM158 551v84h298v-84h-298z" />
    <glyph glyph-name="Ubreve" unicode="&#x16c;" horiz-adv-x="753" 
d="M540 792q-26 -24 -74.5 -45.5t-94.5 -21.5q-47 0 -94 20.5t-79 46.5l44 63q74 -50 128 -50q47 0 130 48zM364 79q35 0 57.5 3t40 15t26.5 27t14.5 47t7 67.5t1.5 94.5v336h148v-336q0 -75 -3.5 -123t-15 -89.5t-30.5 -64t-53.5 -39t-80 -22t-112.5 -5.5q-66 0 -111.5 6
t-78.5 23.5t-52 40t-30 64.5t-14.5 89t-3.5 120v336h149v-336q0 -72 2 -108t9 -70.5t23 -47.5t40.5 -20.5t66.5 -7.5z" />
    <glyph glyph-name="ubreve" unicode="&#x16d;" 
d="M66 499h146v-373q0 -36 37 -36q54 0 140 27v382h145v-499h-121l-13 35q-4 -1 -32.5 -11.5t-38.5 -13.5t-32 -9.5t-39 -8.5t-34 -2q-69 0 -113 31t-44 93zM482 623q-27 -24 -75 -45.5t-95 -21.5t-93.5 20.5t-78.5 46.5l44 63q74 -50 127 -50q49 0 130 48z" />
    <glyph glyph-name="Uring" unicode="&#x16e;" horiz-adv-x="753" 
d="M264 814q0 38 28.5 63.5t75.5 25.5q49 0 77 -25.5t28 -63.5q0 -39 -28 -64t-77 -25q-47 0 -75.5 24.5t-28.5 64.5zM329 814q0 -17 11 -27.5t28 -10.5q18 0 29 10.5t11 27.5t-11 27.5t-29 10.5q-17 0 -28 -10.5t-11 -27.5zM364 79q35 0 57.5 3t40 15t26.5 27t14.5 47
t7 67.5t1.5 94.5v336h148v-336q0 -75 -3.5 -123t-15 -89.5t-30.5 -64t-53.5 -39t-80 -22t-112.5 -5.5q-66 0 -111.5 6t-78.5 23.5t-52 40t-30 64.5t-14.5 89t-3.5 120v336h149v-336q0 -72 2 -108t9 -70.5t23 -47.5t40.5 -20.5t66.5 -7.5z" />
    <glyph glyph-name="uring" unicode="&#x16f;" 
d="M66 499h146v-373q0 -36 37 -36q54 0 140 27v382h145v-499h-121l-13 35q-4 -1 -32.5 -11.5t-38.5 -13.5t-32 -9.5t-39 -8.5t-34 -2q-69 0 -113 31t-44 93zM204 640q0 38 28.5 63.5t75.5 25.5q48 0 76 -25.5t28 -63.5q0 -39 -28 -64t-76 -25t-76 24.5t-28 64.5zM269 640
q0 -17 10.5 -27.5t28.5 -10.5t28.5 10.5t10.5 27.5t-10.5 27.5t-28.5 10.5t-28.5 -10.5t-10.5 -27.5z" />
    <glyph glyph-name="Uhungarumlaut" unicode="&#x170;" horiz-adv-x="753" 
d="M480 941l93 -43l-115 -175l-88 42zM317 942l95 -44l-115 -175l-89 42zM364 79q35 0 57.5 3t40 15t26.5 27t14.5 47t7 67.5t1.5 94.5v336h148v-336q0 -75 -3.5 -123t-15 -89.5t-30.5 -64t-53.5 -39t-80 -22t-112.5 -5.5q-66 0 -111.5 6t-78.5 23.5t-52 40t-30 64.5
t-14.5 89t-3.5 120v336h149v-336q0 -72 2 -108t9 -70.5t23 -47.5t40.5 -20.5t66.5 -7.5z" />
    <glyph glyph-name="uhungarumlaut" unicode="&#x171;" 
d="M66 499h146v-373q0 -36 37 -36q54 0 140 27v382h145v-499h-121l-13 35q-4 -1 -32.5 -11.5t-38.5 -13.5t-32 -9.5t-39 -8.5t-34 -2q-69 0 -113 31t-44 93zM413 771l93 -43l-115 -175l-89 42zM250 772l95 -44l-115 -175l-89 42z" />
    <glyph glyph-name="Uogonek" unicode="&#x172;" horiz-adv-x="745" 
d="M364 79q35 0 57.5 3t40 15t26.5 27t14.5 47t7 67.5t1.5 94.5v336h148v-336q0 -70 -3 -116t-13 -86.5t-26.5 -63.5t-44.5 -41t-66.5 -25.5t-93.5 -9.5q-49 -58 -49 -91q0 -17 31 -17q20 0 56 8l6 -65q-48 -14 -96 -14q-47 0 -79 21.5t-32 62.5q0 46 55 96q-77 5 -122 22.5
t-69.5 61t-31.5 100t-7 157.5v336h149v-336q0 -72 2 -108t9 -70.5t23 -47.5t40.5 -20.5t66.5 -7.5z" />
    <glyph glyph-name="uogonek" unicode="&#x173;" 
d="M445 -183q-46 0 -78.5 22t-32.5 62q0 50 74 112l-8 22q-4 -1 -32.5 -11.5t-38.5 -13.5t-32 -9.5t-39 -8.5t-34 -2q-69 0 -113 31t-44 93l-1 385h146v-373q0 -36 37 -36q54 0 140 27v382h145v-499h-32q-54 -60 -54 -95q0 -17 31 -17q20 0 56 8l6 -65q-48 -14 -96 -14z" />
    <glyph glyph-name="Wcircumflex" unicode="&#x174;" horiz-adv-x="1020" 
d="M687 793l-63 -66l-123 89l-131 -87l-55 66l188 132zM293 135l139 533h138l139 -535l130 534h144l-165 -667h-193l-125 466l-128 -466h-184l-171 667h145z" />
    <glyph glyph-name="wcircumflex" unicode="&#x175;" horiz-adv-x="856" 
d="M152 0l-125 500h143l74 -306l95 306h155l98 -306l74 306h143l-125 -500h-165l-101 323l-99 -323h-167zM610 614l-62 -66l-124 89l-131 -87l-54 66l188 132z" />
    <glyph glyph-name="Ycircumflex" unicode="&#x176;" horiz-adv-x="645" 
d="M385 0h-151v212l-241 456h166l150 -315l154 315h165l-243 -456v-212zM496 795l-63 -66l-123 89l-131 -87l-55 66l188 132z" />
    <glyph glyph-name="ycircumflex" unicode="&#x177;" horiz-adv-x="582" 
d="M557 500l-256 -687h-127l63 187h-34l-192 500h149l124 -357l125 357h148zM477 618l-63 -66l-123 89l-131 -87l-55 66l188 132z" />
    <glyph glyph-name="Ydieresis" unicode="&#x178;" horiz-adv-x="645" 
d="M385 0h-151v212l-241 456h166l150 -315l154 315h165l-243 -456v-212zM147 784q0 38 11.5 48.5t57.5 10.5t58.5 -10.5t12.5 -48.5q0 -35 -12.5 -46t-58.5 -11t-57.5 10.5t-11.5 46.5zM349 784q0 38 11.5 48.5t57.5 10.5t58.5 -10.5t12.5 -48.5q0 -36 -12 -46.5t-59 -10.5
q-46 0 -57.5 10.5t-11.5 46.5z" />
    <glyph glyph-name="Zacute" unicode="&#x179;" horiz-adv-x="647" 
d="M594 0h-556v84l376 489h-368v96h539v-88l-371 -487h380v-94zM366 947l93 -43l-115 -175l-89 42z" />
    <glyph glyph-name="zacute" unicode="&#x17a;" horiz-adv-x="511" 
d="M40 72l240 340h-235v89h406v-74l-239 -337h244v-90h-416v72zM298 771l93 -43l-115 -175l-89 42z" />
    <glyph glyph-name="Zdotaccent" unicode="&#x17b;" horiz-adv-x="647" 
d="M594 0h-556v84l376 489h-368v96h539v-88l-371 -487h380v-94zM262 792q0 43 14.5 55t69.5 12t69.5 -11.5t14.5 -55.5q0 -43 -14.5 -56t-69.5 -13t-69.5 13t-14.5 56z" />
    <glyph glyph-name="zdotaccent" unicode="&#x17c;" horiz-adv-x="514" 
d="M40 72l240 340h-235v89h406v-74l-239 -337h244v-90h-416v72zM171 623q0 43 14.5 55t69.5 12t69.5 -11.5t14.5 -55.5q0 -43 -14.5 -56t-69.5 -13t-69.5 13t-14.5 56z" />
    <glyph glyph-name="Zcaron" unicode="&#x17d;" horiz-adv-x="647" 
d="M594 0h-556v84l376 489h-368v96h539v-88l-371 -487h380v-94zM448 915l54 -60l-176 -126l-180 123l50 61l129 -79z" />
    <glyph glyph-name="zcaron" unicode="&#x17e;" horiz-adv-x="514" 
d="M40 72l240 340h-235v89h406v-74l-239 -337h244v-90h-416v72zM381 738l54 -60l-176 -126l-181 123l51 61l129 -79z" />
    <glyph glyph-name="florin" unicode="&#x192;" horiz-adv-x="558" 
d="M88 499h84q16 121 58 157t164 36q57 0 127 -8l-8 -72h-110q-52 0 -66.5 -17.5t-21.5 -95.5h132l-9 -80h-132l-65 -464q-21 -146 -160 -146q-24 0 -66 5l4 55q71 10 82 69q1 7 4.5 40t18.5 145.5t40 295.5h-84z" />
    <glyph glyph-name="Scommaaccent" unicode="&#x218;" 
d="M188 516q0 -34 39 -62t95 -51.5t111.5 -51t94.5 -73.5t39 -106q0 -91 -63 -136.5t-166 -45.5t-257 10v95q150 -11 249 -11q45 0 66 18.5t21 58.5q0 37 -39 66.5t-94.5 52.5t-111 49t-94.5 69.5t-39 99.5q0 92 61.5 137t166.5 45q140 0 257 -9v-97q-154 13 -250 13
q-86 0 -86 -71zM278 -274l-42 54q32 18 43 33q-24 5 -31 19t-7 46q0 43 14 54t69 11q54 0 67 -11t13 -54q0 -49 -29 -83.5t-97 -68.5z" />
    <glyph glyph-name="scommaaccent" unicode="&#x219;" horiz-adv-x="530" 
d="M184 378q0 -18 30 -35t73 -33t86 -36t73 -55.5t30 -81.5q0 -70 -53 -105t-139 -35q-50 0 -103.5 2.5t-81.5 5.5l-28 3v88q97 -10 191 -10q66 0 66 42q0 22 -30 39.5t-72.5 33t-85 34.5t-72.5 53t-30 80q0 70 52 105.5t138 35.5q51 0 105 -2.5t83 -5.5l28 -3v-89
q-114 10 -211 10q-49 0 -49 -41zM235 -274l-41 54q30 17 42 33q-23 5 -30.5 19t-7.5 46q0 43 14 54t69 11t68 -11t13 -54q0 -49 -29 -83.5t-98 -68.5z" />
    <glyph glyph-name="circumflex" unicode="&#x2c6;" horiz-adv-x="486" 
d="M419 549l-63 -66l-123 89l-131 -87l-55 66l188 132z" />
    <glyph glyph-name="caron" unicode="&#x2c7;" horiz-adv-x="486" 
d="M352 715l53 -60l-175 -126l-181 123l51 61l128 -79z" />
    <glyph glyph-name="breve" unicode="&#x2d8;" horiz-adv-x="475" 
d="M400 602q-26 -24 -74.5 -45.5t-94.5 -21.5q-47 0 -94 20.5t-79 46.5l44 63q74 -50 128 -50q47 0 130 48z" />
    <glyph glyph-name="dotaccent" unicode="&#x2d9;" horiz-adv-x="266" 
d="M49 625q0 43 14.5 55t69.5 12t69.5 -11.5t14.5 -55.5q0 -43 -14.5 -56t-69.5 -13t-69.5 13t-14.5 56z" />
    <glyph glyph-name="ring" unicode="&#x2da;" horiz-adv-x="346" 
d="M63 619q0 38 28.5 63.5t75.5 25.5q48 0 76 -25.5t28 -63.5q0 -39 -28 -64t-76 -25t-76 24.5t-28 64.5zM128 619q0 -17 10.5 -27.5t28.5 -10.5q17 0 28 10.5t11 27.5t-11 27.5t-28 10.5q-18 0 -28.5 -10.5t-10.5 -27.5z" />
    <glyph glyph-name="ogonek" unicode="&#x2db;" horiz-adv-x="367" 
d="M181 -212q-46 0 -78 22t-32 62q0 52 93 128h101q-80 -82 -80 -124q0 -17 31 -17q20 0 56 8l6 -65q-48 -14 -97 -14z" />
    <glyph glyph-name="tilde" unicode="&#x2dc;" horiz-adv-x="502" 
d="M304 547q-22 0 -63 18t-61 18q-16 0 -51 -41q-11 7 -32 20t-32 20q20 35 50 57t64 22q25 0 67 -18t51 -18q18 0 48 37q11 -7 33.5 -20t33.5 -20q-38 -75 -108 -75z" />
    <glyph glyph-name="hungarumlaut" unicode="&#x2dd;" horiz-adv-x="536" 
d="M361 741l93 -43l-116 -175l-88 42zM197 742l95 -44l-115 -175l-89 42z" />
    <glyph glyph-name="afii10023" unicode="&#x401;" horiz-adv-x="636" 
d="M564 0h-484v668h484v-96h-337v-184h309v-97h-309v-196h337v-95zM149 788q0 39 11.5 48.5t57.5 9.5q48 0 60.5 -9.5t12.5 -48.5q0 -36 -12.5 -47.5t-60.5 -11.5q-45 0 -57 11t-12 48zM355 788q0 39 11 48.5t58 9.5q48 0 60 -9.5t12 -48.5q0 -36 -13 -47.5t-59 -11.5
t-57.5 11t-11.5 48z" />
    <glyph glyph-name="afii10051" unicode="&#x402;" horiz-adv-x="735" 
d="M389 0h-150v573h-221v94h589v-94h-218v-154q72 13 113 13q96 0 134 -45.5t38 -161.5v-2q0 -126 -38.5 -180t-125.5 -54q-24 0 -75 12q0 14 0.5 42t0.5 42q12 -2 42 -2q22 1 32 11.5t14.5 39t4.5 88.5q0 75 -10 94q-12 21 -40 21t-90 -2v-335z" />
    <glyph glyph-name="afii10052" unicode="&#x403;" horiz-adv-x="580" 
d="M80 670h470v-95h-319v-574h-151v669zM259 726l-57 77l194 115l61 -82z" />
    <glyph glyph-name="afii10053" unicode="&#x404;" horiz-adv-x="656" 
d="M587 106l2 -83q-142 -32 -259 -32q-107 0 -164 30t-82.5 103.5t-25.5 211.5q0 105 15.5 171.5t51.5 105t86.5 52.5t130.5 14q127 0 253 -26l-10 -86q-141 21 -247 21q-69 0 -97.5 -41t-32.5 -160h323v-92h-323q2 -91 13 -135.5t36.5 -61t76.5 -16.5q31 0 113 7.5
t140 16.5z" />
    <glyph glyph-name="afii10054" unicode="&#x405;" 
d="M188 516q0 -34 39 -62t95 -51.5t111.5 -51t94.5 -73.5t39 -106q0 -91 -63 -136.5t-166 -45.5t-257 10v95q150 -11 249 -11q45 0 66 18.5t21 58.5q0 37 -39 66.5t-94.5 52.5t-111 49t-94.5 69.5t-39 99.5q0 92 61.5 137t166.5 45q140 0 257 -9v-97q-154 13 -250 13
q-86 0 -86 -71z" />
    <glyph glyph-name="uni0406" unicode="&#x406;" horiz-adv-x="312" 
d="M228 667v-667h-148v667h148z" />
    <glyph glyph-name="afii10056" unicode="&#x407;" horiz-adv-x="310" 
d="M225 667v-667h-148v667h148zM-18 784q0 38 11 48.5t57 10.5q47 0 60 -10.5t13 -48.5q0 -36 -13 -47.5t-60 -11.5q-45 0 -56.5 11t-11.5 48zM187 784q0 39 11 49t58 10t59.5 -10.5t12.5 -48.5q0 -36 -12.5 -47.5t-59.5 -11.5q-46 0 -57.5 11t-11.5 48z" />
    <glyph glyph-name="afii10057" unicode="&#x408;" horiz-adv-x="373" 
d="M306 670v-536q0 -87 -46 -119t-151 -25l-91 4v81q91 5 113 13q30 13 30 43v539h145z" />
    <glyph glyph-name="afii10058" unicode="&#x409;" horiz-adv-x="1040" 
d="M95 124v543h464v-252q165 0 213 -3q91 -6 148.5 -46t57.5 -120v-78q0 -93 -69 -130.5t-191 -37.5h-308v570h-168v-430q0 -84 -38.5 -116.5t-109.5 -32.5q-16 0 -60 6v64q22 3 35 8.5t18.5 15.5t6.5 17t1 22zM559 325v-237h154q56 0 88 16.5t32 64.5v77q0 48 -31.5 63.5
t-88.5 15.5h-154z" />
    <glyph glyph-name="afii10059" unicode="&#x40a;" horiz-adv-x="1086" 
d="M231 668v-254h224v253h149v-253h112q60 0 102.5 -3.5t83 -14t65 -29t40 -49t17.5 -72.5v-78q0 -64 -36.5 -102.5t-91 -52t-132.5 -13.5h-309v322h-224v-322h-151v668h151zM604 325v-237h155q55 0 87 16.5t32 64.5v77q0 48 -31 63.5t-88 15.5h-155z" />
    <glyph glyph-name="afii10060" unicode="&#x40b;" horiz-adv-x="772" 
d="M388 0h-151v573h-219v94h589v-94h-219v-172q112 28 154 28q81 0 119.5 -31t38.5 -96v-302h-146v311q0 27 -29 27q-57 0 -137 -24v-314z" />
    <glyph glyph-name="afii10061" unicode="&#x40c;" horiz-adv-x="679" 
d="M227 0h-147v668h147v-284h74l188 284h162l-219 -323l230 -345h-160l-197 293h-78v-293zM325 728l-54 78l196 114l59 -82z" />
    <glyph glyph-name="afii10062" unicode="&#x40e;" horiz-adv-x="573" 
d="M452 793q-25 -24 -73 -46t-96 -22q-46 0 -93 20.5t-78 47.5l44 62q74 -50 127 -50q49 0 130 48zM552 671l-255 -669h-128l65 186h-36l-191 483h150l124 -339l124 339h147z" />
    <glyph glyph-name="afii10145" unicode="&#x40f;" horiz-adv-x="759" 
d="M80 0v666h150v-573h284v573h150v-666h-216v-144h-151v144h-217z" />
    <glyph glyph-name="afii10017" unicode="&#x410;" horiz-adv-x="700" 
d="M150 0h-151l234 667h202l239 -667h-148l-59 171h-260zM335 553l-96 -287h194z" />
    <glyph glyph-name="afii10018" unicode="&#x411;" horiz-adv-x="703" 
d="M389 0h-309v667h461v-92h-311v-160q197 0 238 -4q180 -17 180 -165v-78q0 -168 -259 -168zM230 325v-237h154q55 0 87 16.5t32 64.5v77q0 48 -31.5 63.5t-87.5 15.5h-154z" />
    <glyph glyph-name="afii10019" unicode="&#x412;" horiz-adv-x="657" 
d="M297 0h-217v668h217q52 0 88 -2.5t76 -12.5t64.5 -28t40.5 -49.5t16 -76.5v-43q0 -43 -19 -70t-58 -50q36 -18 56.5 -55t20.5 -73v-40q0 -97 -66 -132.5t-219 -35.5zM227 289v-203h75q69 0 101 19.5t32 68.5v35q0 80 -91 80h-117zM302 581h-75v-203h117q91 0 91 80v33
q0 58 -30.5 74t-102.5 16z" />
    <glyph glyph-name="afii10020" unicode="&#x413;" horiz-adv-x="580" 
d="M80 667h469v-95h-319v-572h-150v667z" />
    <glyph glyph-name="afii10021" unicode="&#x414;" horiz-adv-x="790" 
d="M176 667h487v-579h81v-226h-146v138h-436v-138h-144v226h72q57 81 71.5 156t14.5 208v215zM515 579h-192v-176q0 -96 -14 -163.5t-65 -151.5h271v491z" />
    <glyph glyph-name="afii10022" unicode="&#x415;" horiz-adv-x="636" 
d="M564 0h-484v668h484v-96h-337v-184h309v-97h-309v-196h337v-95z" />
    <glyph glyph-name="afii10024" unicode="&#x416;" horiz-adv-x="954" 
d="M550 0h-142v252h-63l-174 -252h-153l205 299l-212 368h151l183 -325h63v332h142v-332h60l172 325h151l-199 -368l203 -299h-153l-174 252h-60v-252z" />
    <glyph glyph-name="afii10025" unicode="&#x417;" horiz-adv-x="557" 
d="M485 461q-4 -47 -22 -74t-56 -49q35 -19 56.5 -56.5t21.5 -72.5v-40q0 -96 -63 -133t-208 -37h-31q-23 0 -67 1t-64 1v86q25 0 75 -1t76 -1q71 0 102 20t31 69v36q0 81 -92 81h-136v91h136q92 0 92 81v41q0 29 -9.5 46.5t-30.5 25t-40 9.5t-53 2q-24 0 -83 -2.5t-68 -2.5
v88q19 0 80 2t95 2q47 0 81 -3t69.5 -12.5t57.5 -27t36 -48t14 -72.5v-50z" />
    <glyph glyph-name="afii10026" unicode="&#x418;" horiz-adv-x="763" 
d="M256 0h-176v668h150v-453l271 453h169v-668h-148v448z" />
    <glyph glyph-name="afii10027" unicode="&#x419;" horiz-adv-x="763" 
d="M256 0h-176v668h150v-453l271 453h169v-668h-148v448zM556 796q-28 -25 -75.5 -46.5t-94.5 -21.5t-94 20.5t-78 47.5l44 62q74 -50 127 -50q48 0 131 48z" />
    <glyph glyph-name="afii10028" unicode="&#x41a;" horiz-adv-x="679" 
d="M227 0h-147v668h147v-284h74l188 284h162l-219 -323l230 -345h-160l-197 293h-78v-293z" />
    <glyph glyph-name="afii10029" unicode="&#x41b;" horiz-adv-x="691" 
d="M93 124v542h506v-666h-149v570h-208v-430q0 -84 -39 -116.5t-111 -32.5q-18 0 -58 6v64q21 3 34 8.5t18 15.5t6 17t1 22z" />
    <glyph glyph-name="afii10030" unicode="&#x41c;" horiz-adv-x="925" 
d="M225 0h-145v668h173l198 -384l196 384h178v-668h-143v459l-172 -344h-119l-166 344v-459z" />
    <glyph glyph-name="afii10031" unicode="&#x41d;" horiz-adv-x="745" 
d="M650 0h-150v295h-270v-295h-150v668h150v-281h270v281h150v-668z" />
    <glyph glyph-name="afii10032" unicode="&#x41e;" horiz-adv-x="714" 
d="M347 -8q-88 1 -140 14.5t-86.5 52.5t-47.5 103.5t-13 172.5q0 70 3.5 115.5t14.5 87.5t30.5 66t52 42t77.5 25t109 7q90 0 141.5 -11.5t89 -49t51 -104t13.5 -178.5q0 -145 -27.5 -217.5t-87.5 -99t-180 -26.5zM351 80q49 0 75.5 9t42.5 39.5t20.5 75.5t5.5 131
q-2 153 -28 203.5t-116 50.5q-39 0 -62 -6t-40 -20t-24.5 -45.5t-10.5 -72t-3 -110.5q0 -121 12.5 -173.5t38.5 -67t89 -14.5z" />
    <glyph glyph-name="afii10033" unicode="&#x41f;" horiz-adv-x="680" 
d="M228 570v-570h-148v666h507v-666h-149v570h-210z" />
    <glyph glyph-name="afii10034" unicode="&#x420;" horiz-adv-x="679" 
d="M230 0h-150v667h287q121 0 191 -37.5t70 -130.5v-78q0 -61 -51 -108t-128 -57q-31 -4 -219 -4v-252zM230 579v-237h134q56 0 87.5 16t31.5 63v77q0 48 -32 64.5t-87 16.5h-134z" />
    <glyph glyph-name="afii10035" unicode="&#x421;" horiz-adv-x="654" 
d="M388 86q51 0 201 4v-77q-97 -22 -240 -22q-83 0 -136 13t-90.5 47.5t-53.5 94.5t-16 155q0 65 2 106.5t8.5 85.5t19 70t33 51t52 37.5t74 20t100.5 7.5q106 0 243 -16v-88q-188 13 -218 13q-38 0 -63.5 -4.5t-44 -19.5t-28.5 -33t-15.5 -55.5t-7 -75t-1.5 -102.5
q0 -39 2 -68.5t8 -52t12 -38t19.5 -25.5t24 -15.5t32 -8.5t37.5 -3.5t46 -0.5z" />
    <glyph glyph-name="afii10036" unicode="&#x422;" horiz-adv-x="641" 
d="M388 0h-152v573h-218v94h588v-94h-218v-573z" />
    <glyph glyph-name="afii10037" unicode="&#x423;" horiz-adv-x="573" 
d="M552 671l-255 -669h-128l64 186h-35l-191 483h149l124 -339l124 339h148z" />
    <glyph glyph-name="afii10038" unicode="&#x424;" horiz-adv-x="910" 
d="M372 0v93q-96 2 -153.5 12.5t-100.5 37t-60 73t-19 122.5q2 90 27.5 137t96.5 72t209 30v90h150v-89q99 -2 158 -12t99 -37t54.5 -72t14.5 -119q0 -68 -12.5 -109t-48 -71.5t-98.5 -44.5t-167 -19v-94h-150zM180 337q0 -86 36 -113.5t155 -31.5v287q-121 -3 -156 -30
t-35 -112zM710 338q0 85 -34.5 111.5t-153.5 29.5v-287q116 4 152 32t36 114z" />
    <glyph glyph-name="afii10039" unicode="&#x425;" horiz-adv-x="660" 
d="M641 0h-159l-154 228l-152 -228h-161l229 337l-220 330h160l143 -214l146 214h159l-220 -328z" />
    <glyph glyph-name="afii10040" unicode="&#x426;" horiz-adv-x="786" 
d="M80 0v666h147v-572h284v572h150v-572h78v-197h-143v103h-516z" />
    <glyph glyph-name="afii10041" unicode="&#x427;" horiz-adv-x="618" 
d="M48 665h148v-278q0 -23 28 -23q78 0 152 25v276h149v-666h-141l-1 294q-82 -26 -176 -26q-159 0 -159 128v270z" />
    <glyph glyph-name="afii10042" unicode="&#x428;" horiz-adv-x="1040" 
d="M432 667h149v-574h205v574h150v-667h-856v667h150v-574h202v574z" />
    <glyph glyph-name="afii10043" unicode="&#x429;" horiz-adv-x="1070" 
d="M433 667h152v-573h201v573h150v-573h80v-197h-145v103h-791v667h151v-573h202v573z" />
    <glyph glyph-name="afii10044" unicode="&#x42a;" horiz-adv-x="747" 
d="M20 667h254v-252q193 0 237 -4q81 -8 131.5 -52t50.5 -113v-78q0 -93 -69.5 -130.5t-190.5 -37.5h-309v573h-104v94zM274 325v-237h155q55 0 87.5 16.5t32.5 64.5v77q0 48 -32 63.5t-88 15.5h-155z" />
    <glyph glyph-name="afii10045" unicode="&#x42b;" horiz-adv-x="917" 
d="M856 667v-667h-146v667h146zM80 667h148v-252q48 0 101 0.5t64 0.5q255 0 255 -170v-78q0 -93 -69.5 -130.5t-190.5 -37.5h-308v667zM228 325v-237h156q55 0 87 16.5t32 64.5v77q0 48 -31.5 63.5t-87.5 15.5h-156z" />
    <glyph glyph-name="afii10046" unicode="&#x42c;" horiz-adv-x="701" 
d="M80 667h150v-252q46 0 98 0.5t65 0.5q120 0 188.5 -41t68.5 -129v-78q0 -48 -20 -82t-57.5 -52t-82 -26t-102.5 -8h-308v667zM228 325v-237h155q55 0 87 16.5t32 64.5v77q0 48 -31 63.5t-88 15.5h-155z" />
    <glyph glyph-name="afii10047" unicode="&#x42d;" horiz-adv-x="655" 
d="M53 23l2 85q59 -10 140.5 -18t111.5 -8q73 0 98.5 42t26.5 171h-322v92h322q-3 121 -30.5 161t-99.5 40q-108 0 -244 -21l-12 86q124 26 252 26q107 0 165.5 -27t88.5 -102t30 -214q0 -138 -25.5 -211.5t-82.5 -103.5t-164 -30q-116 0 -257 32z" />
    <glyph glyph-name="afii10048" unicode="&#x42e;" horiz-adv-x="945" 
d="M228 667v-281h62q3 87 15 139t44 88.5t86.5 50.5t143.5 14q90 0 141.5 -11.5t89 -49t51 -104t13.5 -178.5q0 -88 -9.5 -146.5t-28.5 -98t-55.5 -60.5t-83.5 -29.5t-119 -8.5q-82 1 -132.5 13.5t-86.5 46t-51.5 91t-17.5 149.5h-62v-292h-148v667h148zM580 80q95 0 120 46
t26 209q-3 154 -28.5 204t-117.5 50q-32 0 -52.5 -3.5t-37 -14.5t-25.5 -27t-15 -47t-7.5 -67.5t-1.5 -94.5q0 -91 5 -140.5t23 -76t41 -32.5t70 -6z" />
    <glyph glyph-name="afii10049" unicode="&#x42f;" horiz-adv-x="697" 
d="M604 0h-150v252q-155 0 -178 1l-50 -253h-154l59 289q-78 53 -78 132v78q0 64 36.5 102.5t91 52t133.5 13.5h290v-667zM454 342v237h-136q-54 0 -86 -16.5t-32 -64.5v-77q0 -47 31 -63t87 -16h136z" />
    <glyph glyph-name="afii10065" unicode="&#x430;" horiz-adv-x="577" 
d="M502 368v-368h-123q-2 5 -5.5 19.5t-5.5 20.5q-92 -49 -157 -49q-91 0 -131.5 45.5t-40.5 120.5q0 121 139 136q33 4 179 -3v80q0 33 -15 41.5t-52 8.5q-106 0 -197 -12q-1 4 -11 42t-10 41q119 19 235 19q105 0 150 -29t45 -113zM357 120v96q-105 0 -141 -11.5
t-36 -52.5q0 -63 43 -63q41 0 134 31z" />
    <glyph glyph-name="afii10066" unicode="&#x431;" horiz-adv-x="601" 
d="M622 727q0 -14 -1 -44.5t-1 -45.5q-14 -2 -63.5 -3.5t-89 -6.5t-88 -17t-87.5 -40t-61 -70q22 9 57 9q63 0 107 -10.5t70.5 -29t41 -50.5t19.5 -67.5t5 -88.5q0 -79 -8.5 -126t-34.5 -82t-73.5 -48.5t-126.5 -13.5q-73 0 -118.5 14.5t-69.5 50t-32.5 82t-8.5 123.5
q0 71 10 130.5t26 102.5t42.5 77t53.5 56.5t64.5 39t69.5 25t75.5 14.5t75 8t75.5 5t71 6zM290 422q-55 0 -69 -32t-14 -127q0 -108 14.5 -146t68.5 -38q61 0 77.5 39t16.5 145v12q0 32 -0.5 46.5t-3 35.5t-8 30t-16 19t-27 13t-39.5 3z" />
    <glyph glyph-name="afii10067" unicode="&#x432;" horiz-adv-x="536" 
d="M243 0h-174v499h174q50 0 84 -4t68 -16.5t51.5 -40.5t17.5 -71v-19q0 -37 -10 -57.5t-37 -39.5q47 -38 47 -102v-17q0 -76 -50 -104t-171 -28zM214 210v-121h36q46 0 65.5 9.5t19.5 42.5v24q0 45 -45 45h-76zM248 413h-34v-121h76q45 0 45 45v24q0 24 -12 36t-27 14
t-48 2z" />
    <glyph glyph-name="afii10068" unicode="&#x433;" horiz-adv-x="476" 
d="M69 499h373v-92h-225v-407h-148v499z" />
    <glyph glyph-name="afii10069" unicode="&#x434;" horiz-adv-x="626" 
d="M133 498h383v-412h59v-183h-139v97h-276v-97h-138v183h58q34 50 43.5 99t9.5 131v182zM376 412h-102v-89q0 -52 -1.5 -79.5t-12.5 -71.5t-34 -86h150v326z" />
    <glyph glyph-name="afii10070" unicode="&#x435;" horiz-adv-x="597" 
d="M529 253v-36h-53q-46 0 -139 -0.5t-139 -0.5q1 -79 17.5 -104.5t75.5 -28.5q98 0 214 14v-84q-108 -21 -215 -21q-63 0 -103 8t-67.5 24.5t-41.5 49.5t-19 74.5t-5 109.5q0 56 4 91t17.5 69t39 52t69 29t107.5 11q80 0 127 -12.5t72 -46.5t32 -77.5t7 -120.5zM292 424
q-57 0 -72.5 -26.5t-19.5 -94.5h186q-2 69 -20.5 95t-73.5 26z" />
    <glyph glyph-name="afii10072" unicode="&#x436;" horiz-adv-x="891" 
d="M512 0h-142v194h-49l-168 -194h-152l198 230l-190 271h150l162 -235h49v235h142v-235h41l164 232h150l-191 -268l195 -228h-152l-167 192h-40v-194z" />
    <glyph glyph-name="afii10073" unicode="&#x437;" horiz-adv-x="462" 
d="M390 370v-35q-3 -36 -11.5 -53.5t-33.5 -32.5q20 -17 32.5 -42.5t12.5 -48.5v-27q0 -76 -49.5 -104t-165.5 -28q-24 0 -60 0.5t-67 0.5v81h109q50 0 71 10.5t21 42.5v25q0 29 -15 38t-47 9h-99v85h99q32 0 47 8.5t15 36.5v30q0 32 -17 41t-57 9l-127 -1v80q22 0 61.5 1
t58.5 1q43 0 68.5 -1.5t58.5 -8t51 -19.5t31 -37.5t13 -60.5z" />
    <glyph glyph-name="afii10074" unicode="&#x438;" horiz-adv-x="615" 
d="M227 0h-158v499h143l1 -270l162 270h153v-499h-143v266z" />
    <glyph glyph-name="afii10075" unicode="&#x439;" horiz-adv-x="615" 
d="M470 619q-26 -24 -74 -45.5t-95 -21.5t-93.5 20.5t-78.5 46.5q7 10 21.5 31t21.5 32q74 -50 128 -50q52 0 130 48q5 -7 40 -61zM227 0h-158v499h144v-270l162 270h153v-499h-143v266z" />
    <glyph glyph-name="afii10076" unicode="&#x43a;" horiz-adv-x="618" 
d="M213 0h-144v498h144v-231h65l168 231h151l-196 -268l198 -230h-154l-168 193h-64v-193z" />
    <glyph glyph-name="afii10077" unicode="&#x43b;" horiz-adv-x="564" 
d="M82 100v401h401v-501h-144v409h-113v-296q0 -68 -32 -94t-93 -26q-20 0 -61 7v66q20 3 29.5 8.5t11 10.5t1.5 15z" />
    <glyph glyph-name="afii10078" unicode="&#x43c;" horiz-adv-x="702" 
d="M204 0h-135v500h148l127 -245l125 245h151v-500h-133v257l-91 -171h-107l-85 167v-253z" />
    <glyph glyph-name="afii10079" unicode="&#x43d;" horiz-adv-x="598" 
d="M512 0h-145v210h-154v-210h-144v499h144v-199h154v199h145v-499z" />
    <glyph glyph-name="afii10080" unicode="&#x43e;" horiz-adv-x="600" 
d="M291 -8q-77 0 -123.5 13t-72 46.5t-34 79.5t-8.5 125q0 57 4 92.5t17.5 69.5t39.5 52t69.5 28.5t107.5 10.5q80 0 128 -13t73.5 -46t33.5 -76t8 -118q0 -80 -8 -126t-34.5 -79.5t-73.5 -46t-127 -12.5zM291 79q65 0 81.5 34t16.5 143q0 105 -16 136.5t-82 31.5
q-61 0 -76.5 -31.5t-15.5 -136.5q0 -110 15.5 -143.5t76.5 -33.5z" />
    <glyph glyph-name="afii10081" unicode="&#x43f;" horiz-adv-x="550" 
d="M213 408v-408h-144v500h399v-500h-143v408h-112z" />
    <glyph glyph-name="afii10082" unicode="&#x440;" horiz-adv-x="586" 
d="M521 245v-29q-4 -124 -43 -174.5t-143 -50.5q-1 0 -122 7v-185h-144v688h116l11 -34q92 40 148 40q93 0 135 -62t42 -200zM376 219q0 109 -11 149.5t-44 40.5q-39 0 -108 -30v-286q45 -7 96 -7h2q22 0 36 11.5t19.5 33.5t7.5 41t2 47z" />
    <glyph glyph-name="afii10083" unicode="&#x441;" horiz-adv-x="562" 
d="M198 223q0 -48 6.5 -76t24.5 -43t40.5 -19t62.5 -4q36 0 169 9v-76q-103 -23 -215 -23q-67 0 -105.5 7.5t-70 31.5t-44 71t-12.5 125q0 60 2.5 98t11 73t23.5 54t40.5 33.5t61 20t87.5 5.5q103 0 215 -17v-85q-169 12 -195 12q-31 0 -49 -6t-29.5 -15.5t-16.5 -37.5
t-6 -54.5t-1 -83.5z" />
    <glyph glyph-name="afii10084" unicode="&#x442;" horiz-adv-x="533" 
d="M330 0h-146v410h-165v90h476v-90h-165v-410z" />
    <glyph glyph-name="afii10085" unicode="&#x443;" horiz-adv-x="582" 
d="M557 500l-256 -687h-127l63 187h-34l-192 500h149l124 -357l125 357h148z" />
    <glyph glyph-name="afii10086" unicode="&#x444;" horiz-adv-x="742" 
d="M489 28q-6 0 -25 1t-35 1v-219h-139v217h-30q-24 0 -46.5 -0.5t-43 3.5t-37.5 11.5t-31 23t-23.5 37.5t-15 56t-5.5 79v18q0 117 39 159.5t140 42.5q40 0 53 -2v199h139v-201q4 0 12.5 1.5t16.5 2t16 0.5q106 0 145.5 -41.5t39.5 -160.5v-18q0 -69 -12 -113t-37.5 -64
t-52 -26.5t-68.5 -6.5zM255 113q22 0 33 1v252q-9 1 -23 1q-41 0 -53 -25t-12 -88q0 -66 4.5 -94.5t15 -37.5t35.5 -9zM460 367q-18 0 -31 -1v-252q9 -1 29 -1q26 0 37.5 9.5t16 38t4.5 93.5q0 62 -10 87.5t-46 25.5z" />
    <glyph glyph-name="afii10087" unicode="&#x445;" horiz-adv-x="520" 
d="M500 0h-146l-91 142l-89 -142h-150l163 248l-159 251h149l86 -141l83 141h148l-156 -251z" />
    <glyph glyph-name="afii10088" unicode="&#x446;" horiz-adv-x="629" 
d="M69 0v500h144v-411q27 0 81 0.5t81 0.5v410h146v-410h56v-163h-141v73h-367z" />
    <glyph glyph-name="afii10089" unicode="&#x447;" horiz-adv-x="507" 
d="M45 500h143v-201q0 -16 16 -16q35 0 77 11v206h142v-500h-136l-1 204q-47 -13 -108 -13q-133 0 -133 105v204z" />
    <glyph glyph-name="afii10090" unicode="&#x448;" horiz-adv-x="809" 
d="M320 498h144v-408h108v408h143v-498h-646v498h143v-408h108v408z" />
    <glyph glyph-name="afii10091" unicode="&#x449;" horiz-adv-x="832" 
d="M321 499h145v-409h107v409h145v-409h55v-163h-140v73h-564v499h145v-409h107v409z" />
    <glyph glyph-name="afii10092" unicode="&#x44a;" horiz-adv-x="599" 
d="M27 498h218v-179h26q51 0 76.5 -1t63.5 -4.5t56.5 -11.5t38.5 -22.5t28 -38t8 -55.5v-54q0 -132 -203 -132h-239v408h-73v90zM245 230v-144h91q66 0 66 46v54q0 28 -17 36t-49 8h-91z" />
    <glyph glyph-name="afii10093" unicode="&#x44b;" horiz-adv-x="763" 
d="M711 501v-501h-142v501h142zM69 501h144v-180q48 0 76 -0.5t64.5 -3.5t56.5 -8t43 -14.5t34 -24t18.5 -35t7.5 -48.5v-55q0 -132 -205 -132h-239v501zM213 232v-146h92q20 0 33 2.5t23.5 13.5t10.5 31v54q0 27 -17.5 36t-49.5 9h-92z" />
    <glyph glyph-name="afii10094" unicode="&#x44c;" horiz-adv-x="567" 
d="M69 501h145v-180q135 0 166 -4q60 -9 97 -43t37 -87v-55q0 -132 -206 -132h-239v501zM214 232v-146h92q20 0 32.5 2.5t23 13.5t10.5 31v54q0 45 -66 45h-92z" />
    <glyph glyph-name="afii10095" unicode="&#x44d;" horiz-adv-x="534" 
d="M49 19l3 84q122 -21 200 -21q43 0 56.5 23.5t16.5 105.5h-233v90h233q-4 78 -19 99.5t-57 21.5q-75 0 -193 -16l-12 84q98 22 201 22q84 0 130.5 -20.5t70.5 -77.5t24 -162q0 -152 -46 -206.5t-169 -54.5q-84 0 -206 28z" />
    <glyph glyph-name="afii10096" unicode="&#x44e;" horiz-adv-x="803" 
d="M216 0h-147v499h147v-198h51q2 57 12 93t35.5 63.5t72 39.5t118.5 12q80 0 128 -13t74 -46t34 -76.5t8 -117.5q0 -80 -8.5 -126t-35 -79.5t-74 -46t-126.5 -12.5q-135 0 -184.5 48.5t-53.5 170.5h-51v-211zM505 76q66 0 83 35t17 145v13q0 98 -16.5 127.5t-83.5 29.5
q-62 0 -77.5 -32t-15.5 -138q0 -111 15.5 -145.5t77.5 -34.5z" />
    <glyph glyph-name="afii10097" unicode="&#x44f;" horiz-adv-x="577" 
d="M495 0h-144v180h-108q-26 -139 -35 -180h-148l44 214q-52 37 -52 99v55q0 133 203 133h240v-501zM351 270v144h-93q-20 0 -32.5 -2.5t-23 -13.5t-10.5 -31v-54q0 -27 17 -35.5t49 -8.5z" />
    <glyph glyph-name="afii10071" unicode="&#x451;" horiz-adv-x="597" 
d="M529 252v-35h-53q-47 0 -141.5 -1t-141.5 -1q1 -50 7.5 -78.5t25.5 -41.5t37.5 -15.5t59.5 -2.5q50 0 174 11v-77q-138 -20 -225 -20q-71 0 -113 12t-65.5 45t-31.5 79t-8 124q0 54 3 89.5t12 67t24.5 49.5t43 31t64.5 18t91 5q51 0 87 -5t63 -18t43.5 -31t26.5 -48.5
t13.5 -67t3.5 -89.5zM292 427q-62 0 -78.5 -26t-19.5 -100h198q-2 80 -20 103t-80 23zM113 611q0 38 12 48.5t58 10.5q45 0 57.5 -10.5t12.5 -48.5q0 -35 -12.5 -46t-57.5 -11q-46 0 -58 10.5t-12 46.5zM316 611q0 38 11.5 48.5t56.5 10.5q47 0 59.5 -10.5t12.5 -48.5
q0 -35 -12 -46t-60 -11q-44 0 -56 10.5t-12 46.5z" />
    <glyph glyph-name="afii10099" unicode="&#x452;" horiz-adv-x="609" 
d="M11 547v81h56v53h141v-53h115v-81h-115v-67q106 27 171 27q153 0 153 -126l-1 -427q0 -85 -36 -115.5t-107 -30.5q-21 0 -67 5v63q41 6 55 21.5t14 40.5l-1 441q0 19 -6 27t-22 8q-77 0 -152 -26v-388h-142v547h-56z" />
    <glyph glyph-name="afii10100" unicode="&#x453;" horiz-adv-x="476" 
d="M69 499h373v-92h-225v-407h-148v499zM215 552l-55 75l189 114l61 -80z" />
    <glyph glyph-name="afii10101" unicode="&#x454;" horiz-adv-x="535" 
d="M466 101l7 -82q-127 -28 -206 -28q-124 0 -169 54t-45 206q0 79 12 129t40 79t67.5 39.5t101.5 10.5q103 0 202 -21l-10 -84q-118 16 -193 16q-42 0 -58 -21.5t-18 -98.5h232v-90h-232q2 -81 16.5 -105t56.5 -24q79 0 196 20z" />
    <glyph glyph-name="afii10102" unicode="&#x455;" horiz-adv-x="530" 
d="M184 378q0 -18 30 -35t73 -33t86 -36t73 -55.5t30 -81.5q0 -70 -53 -105t-139 -35q-50 0 -103.5 2.5t-81.5 5.5l-28 3v88q97 -10 191 -10q66 0 66 42q0 22 -30 39.5t-72.5 33t-85 34.5t-72.5 53t-30 80q0 70 52 105.5t138 35.5q51 0 105 -2.5t83 -5.5l28 -3v-89
q-114 10 -211 10q-49 0 -49 -41z" />
    <glyph glyph-name="afii10103" unicode="&#x456;" horiz-adv-x="291" 
d="M216 0h-147v499h147v-499zM62 619q0 44 13 56t67 12t67.5 -11t13.5 -57q0 -43 -13.5 -56t-67.5 -13q-53 0 -66.5 12.5t-13.5 56.5z" />
    <glyph glyph-name="afii10104" unicode="&#x457;" horiz-adv-x="291" 
d="M-28 611q0 38 11.5 48.5t56.5 10.5q46 0 59 -11t13 -48q0 -35 -13 -46.5t-59 -11.5q-45 0 -56.5 10.5t-11.5 47.5zM174 611q0 38 11.5 48.5t56.5 10.5q47 0 59.5 -10.5t12.5 -48.5q0 -36 -12.5 -47t-59.5 -11q-45 0 -56.5 10.5t-11.5 47.5zM216 0h-147v499h147v-499z" />
    <glyph glyph-name="afii10105" unicode="&#x458;" horiz-adv-x="291" 
d="M1 -182v63q40 6 53 21t13 41v557h146v-541q0 -84 -37.5 -115t-108.5 -31q-20 0 -66 5zM60 621q0 44 13 56t67 12t68 -11t14 -57q0 -43 -14.5 -56t-67.5 -13t-66.5 12.5t-13.5 56.5z" />
    <glyph glyph-name="afii10106" unicode="&#x459;" horiz-adv-x="813" 
d="M83 100v402h371v-181q33 0 67.5 0.5t39.5 0.5q86 0 139.5 -31.5t53.5 -102.5v-56q0 -132 -206 -132h-240v410h-82v-297q0 -67 -32.5 -93.5t-92.5 -26.5q-17 0 -61 8v65q20 3 30 8.5t11.5 10.5t1.5 15zM454 232v-146h91q20 0 33.5 2.5t24 13.5t10.5 31v55q0 26 -18 35
t-50 9h-91z" />
    <glyph glyph-name="afii10107" unicode="&#x45a;" horiz-adv-x="838" 
d="M215 500v-180h122v179h143v-178q85 0 148 -3q64 -5 107 -39.5t43 -91.5v-55q0 -73 -53.5 -102.5t-149.5 -29.5h-238v229h-122v-229h-146v500h146zM480 231v-144h91q32 0 49.5 8.5t17.5 36.5v55q0 27 -17.5 35.5t-49.5 8.5h-91z" />
    <glyph glyph-name="afii10108" unicode="&#x45b;" horiz-adv-x="613" 
d="M11 548v81h56v52h141v-52h127v-81h-127v-68q106 27 169 27q155 0 155 -126v-381h-143v376q0 39 -28 39q-80 0 -152 -27v-388h-142v548h-56z" />
    <glyph glyph-name="afii10109" unicode="&#x45c;" horiz-adv-x="620" 
d="M293 549l-56 76l192 113l59 -80zM213 0h-144v498h144v-231h65l168 231h151l-196 -268l198 -230h-154l-168 193h-64v-193z" />
    <glyph glyph-name="afii10110" unicode="&#x45e;" horiz-adv-x="582" 
d="M557 500l-256 -687h-127l63 187h-34l-192 500h149l124 -357l125 357h148zM469 619q-25 -24 -73 -45.5t-96 -21.5q-46 0 -92.5 20.5t-78.5 46.5l43 63q74 -50 128 -50q49 0 130 48z" />
    <glyph glyph-name="afii10193" unicode="&#x45f;" horiz-adv-x="609" 
d="M69 0v502h145v-412h166v412h144v-502h-156v-102h-144v102h-155z" />
    <glyph glyph-name="uni1E02" unicode="&#x1e02;" horiz-adv-x="660" 
d="M297 0h-217v668h217q52 0 88 -2.5t76 -12.5t64.5 -28t40.5 -49.5t16 -76.5v-43q0 -44 -19 -70.5t-58 -49.5q37 -18 57 -54.5t20 -73.5v-40q0 -97 -65.5 -132.5t-219.5 -35.5zM227 285v-199h75q69 0 101 19.5t32 68.5v35q0 43 -23 59.5t-68 16.5h-117zM302 581h-75v-199
h117q44 0 67.5 17t23.5 59v33q0 58 -30.5 74t-102.5 16zM234 798q0 43 14.5 55t69.5 12t69.5 -11.5t14.5 -55.5q0 -43 -14.5 -56t-69.5 -13t-69.5 13t-14.5 56z" />
    <glyph glyph-name="uni1E03" unicode="&#x1e03;" horiz-adv-x="596" 
d="M525 285q0 -56 -2.5 -93t-11 -73t-24.5 -57.5t-42 -38.5t-64.5 -24t-92.5 -7q-85 0 -220 15v682h141v-196q77 15 125 15q104 0 147.5 -51.5t43.5 -171.5zM381 279q0 69 -9 100t-38 37q-33 9 -123 -10v-320q20 -1 72 -1h3q23 0 39.5 4t27 17t16.5 24.5t8.5 39t3 47.5
t0.5 62zM255 623q0 43 14.5 55t69.5 12t69.5 -11.5t14.5 -55.5q0 -43 -14.5 -56t-69.5 -13t-69.5 13t-14.5 56z" />
    <glyph glyph-name="uni1E0A" unicode="&#x1e0a;" horiz-adv-x="723" 
d="M80 0v668l285 1q81 0 131 -13t87 -50t52 -103t15 -172q0 -103 -13 -166t-46.5 -100.5t-83 -51t-130.5 -13.5h-297zM370 581h-143v-490l145 -1q47 1 73.5 18.5t41.5 71t15 151.5q0 113 -12.5 165.5t-38 68.5t-81.5 16zM254 796q0 43 14.5 55t69.5 12t69.5 -11.5
t14.5 -55.5q0 -43 -14.5 -56t-69.5 -13t-69.5 13t-14.5 56z" />
    <glyph glyph-name="uni1E0B" unicode="&#x1e0b;" horiz-adv-x="589" 
d="M54 256v29q3 123 43 174t143 51q60 0 122 -12v190h143v-688h-115q-6 18 -10 34q-93 -40 -148 -40q-93 0 -135.5 62t-42.5 200zM200 282q0 -110 10.5 -152t42.5 -42q40 0 109 30v294q-101 20 -131.5 -5t-30.5 -125zM152 626q0 43 14.5 55t69.5 12t69.5 -11.5t14.5 -55.5
q0 -43 -14.5 -56t-69.5 -13t-69.5 13t-14.5 56z" />
    <glyph glyph-name="uni1E1E" unicode="&#x1e1e;" horiz-adv-x="613" 
d="M228 0h-148v667h490v-94h-342v-187h294v-95h-294v-291zM252 795q0 43 14.5 55t69.5 12t69.5 -11.5t14.5 -55.5q0 -43 -14.5 -56t-69.5 -13t-69.5 13t-14.5 56z" />
    <glyph glyph-name="uni1E1F" unicode="&#x1e1f;" horiz-adv-x="429" 
d="M189 796q0 43 14.5 55t69.5 12t69.5 -11.5t14.5 -55.5q0 -43 -14.5 -56t-69.5 -13t-69.5 13t-14.5 56zM25 499h84v48q0 85 44 113.5t151 28.5q50 0 116 -7v-80h-101q-22 0 -30.5 -0.5t-19.5 -5.5t-14.5 -16t-3.5 -30v-51h130v-86h-130v-413h-142v413h-84v86z" />
    <glyph glyph-name="uni1E40" unicode="&#x1e40;" horiz-adv-x="922" 
d="M225 0h-145v668h173l198 -384l196 384h178v-668h-143v459l-172 -344h-119l-166 344v-459zM370 798q0 43 14.5 55t69.5 12q54 0 69 -12t15 -55t-14.5 -56t-69.5 -13t-69.5 13t-14.5 56z" />
    <glyph glyph-name="uni1E41" unicode="&#x1e41;" horiz-adv-x="943" 
d="M849 0h-147v368q0 40 -33 40q-54 0 -135 -19q0 -63 0.5 -194.5t0.5 -194.5h-145v372q0 37 -34 37q-54 0 -142 -27v-382h-145v499h120l14 -33q115 43 176 43q65 0 118 -45q4 1 31.5 10t34.5 11.5t30 8.5t35 8t30 4.5t34 2.5q157 0 157 -128v-381zM393 620q0 43 14.5 55
t69.5 12t69.5 -11.5t14.5 -55.5q0 -43 -14.5 -56t-69.5 -13t-69.5 13t-14.5 56z" />
    <glyph glyph-name="uni1E56" unicode="&#x1e56;" horiz-adv-x="679" 
d="M262 795q0 43 14.5 55t69.5 12t69.5 -11.5t14.5 -55.5q0 -43 -14.5 -56t-69.5 -13t-69.5 13t-14.5 56zM230 0h-150v667h287q121 0 191 -37.5t70 -130.5v-78q0 -61 -51 -108t-128 -57q-31 -4 -219 -4v-252zM230 579v-237h134q56 0 87.5 16t31.5 63v77q0 48 -32 64.5
t-87 16.5h-134z" />
    <glyph glyph-name="uni1E57" unicode="&#x1e57;" horiz-adv-x="592" 
d="M521 243v-29q-4 -124 -43.5 -174.5t-142.5 -50.5q-60 0 -122 12v-190h-144v688h116q2 -6 5.5 -17t4.5 -17q93 40 148 40q93 0 135.5 -62t42.5 -200zM374 217q0 110 -10.5 152t-42.5 42q-39 0 -108 -30v-294q100 -20 130.5 5t30.5 125zM212 625q0 43 14.5 55t69.5 12
q54 0 69 -12t15 -55t-14.5 -56t-69.5 -13t-69.5 13t-14.5 56z" />
    <glyph glyph-name="uni1E60" unicode="&#x1e60;" 
d="M188 516q0 -34 39 -62t95 -51.5t111.5 -51t94.5 -73.5t39 -106q0 -91 -63 -136.5t-166 -45.5t-257 10v95q150 -11 249 -11q45 0 66 18.5t21 58.5q0 37 -39 66.5t-94.5 52.5t-111 49t-94.5 69.5t-39 99.5q0 92 61.5 137t166.5 45q140 0 257 -9v-97q-154 13 -250 13
q-86 0 -86 -71zM225 795q0 43 14.5 55t69.5 12t69.5 -11.5t14.5 -55.5q0 -43 -14.5 -56t-69.5 -13t-69.5 13t-14.5 56z" />
    <glyph glyph-name="uni1E61" unicode="&#x1e61;" horiz-adv-x="530" 
d="M184 378q0 -18 30 -35t73 -33t86 -36t73 -55.5t30 -81.5q0 -70 -53 -105t-139 -35q-50 0 -103.5 2.5t-81.5 5.5l-28 3v88q97 -10 191 -10q66 0 66 42q0 22 -30 39.5t-72.5 33t-85 34.5t-72.5 53t-30 80q0 70 52 105.5t138 35.5q51 0 105 -2.5t83 -5.5l28 -3v-89
q-114 10 -211 10q-49 0 -49 -41zM169 622q0 43 14.5 55t69.5 12t69.5 -11.5t14.5 -55.5q0 -43 -14.5 -56t-69.5 -13t-69.5 13t-14.5 56z" />
    <glyph glyph-name="uni1E6A" unicode="&#x1e6a;" horiz-adv-x="642" 
d="M388 0h-152v573h-218v94h588v-94h-218v-573zM230 798q0 43 14.5 55t69.5 12q54 0 69 -12t15 -55t-14.5 -56t-69.5 -13t-69.5 13t-14.5 56z" />
    <glyph glyph-name="uni1E6B" unicode="&#x1e6b;" horiz-adv-x="466" 
d="M136 742q0 44 14 55.5t70 11.5q54 0 69 -12t15 -55t-14.5 -56t-69.5 -13t-69.5 13t-14.5 56zM340 -9q-65 0 -105 12.5t-59 40.5t-25 58.5t-6 80.5v233h-124v84h124v121h142v-121h126v-84h-126v-255q0 -60 14 -74.5t73 -14.5q15 0 53 2q0 -10 0.5 -37t0.5 -36
q-51 -10 -88 -10z" />
    <glyph glyph-name="Wgrave" unicode="&#x1e80;" horiz-adv-x="1020" 
d="M361 907l93 43l110 -176l-88 -42zM293 135l139 533h138l139 -535l130 534h144l-165 -667h-193l-125 466l-128 -466h-184l-171 667h145z" />
    <glyph glyph-name="wgrave" unicode="&#x1e81;" horiz-adv-x="852" 
d="M152 0l-125 500h143l74 -306l95 306h155l98 -306l74 306h143l-125 -500h-165l-101 323l-99 -323h-167zM270 726l93 43l111 -176l-89 -42z" />
    <glyph glyph-name="Wacute" unicode="&#x1e82;" horiz-adv-x="1020" 
d="M566 946l93 -43l-116 -175l-88 42zM293 135l139 533h138l139 -535l130 534h144l-165 -667h-193l-125 466l-128 -466h-184l-171 667h145z" />
    <glyph glyph-name="wacute" unicode="&#x1e83;" horiz-adv-x="856" 
d="M152 0l-125 500h143l74 -306l95 306h155l98 -306l74 306h143l-125 -500h-165l-101 323l-99 -323h-167zM480 768l93 -43l-115 -175l-88 42z" />
    <glyph glyph-name="Wdieresis" unicode="&#x1e84;" horiz-adv-x="1020" 
d="M329 782q0 38 12 48.5t58 10.5q45 0 57.5 -10.5t12.5 -48.5q0 -35 -12.5 -46t-57.5 -11q-46 0 -58 10.5t-12 46.5zM532 782q0 38 11 48.5t57 10.5q47 0 59.5 -10.5t12.5 -48.5q0 -35 -12 -46t-60 -11q-45 0 -56.5 10.5t-11.5 46.5zM293 135l139 533h138l139 -535l130 534
h144l-165 -667h-193l-125 466l-128 -466h-184l-171 667h145z" />
    <glyph glyph-name="wdieresis" unicode="&#x1e85;" horiz-adv-x="859" 
d="M152 0l-125 500h143l74 -306l95 306h155l98 -306l74 306h143l-125 -500h-165l-101 323l-99 -323h-167zM251 609q0 38 11.5 48.5t57.5 10.5t58.5 -10.5t12.5 -48.5q0 -35 -12.5 -46t-58.5 -11q-45 0 -57 10.5t-12 46.5zM454 609q0 39 11 49t57 10q47 0 59.5 -10.5
t12.5 -48.5q0 -35 -12 -46t-60 -11q-46 0 -57 10.5t-11 46.5z" />
    <glyph glyph-name="Ygrave" unicode="&#x1ef2;" horiz-adv-x="645" 
d="M385 0h-151v212l-241 456h166l150 -315l154 315h165l-243 -456v-212zM178 902l93 43l111 -176l-89 -42z" />
    <glyph glyph-name="ygrave" unicode="&#x1ef3;" horiz-adv-x="582" 
d="M557 500l-256 -687h-127l63 187h-34l-192 500h149l124 -357l125 357h148zM165 726l93 43l110 -176l-88 -42z" />
    <glyph glyph-name="endash" unicode="&#x2013;" horiz-adv-x="568" 
d="M62 227v106h416v-106h-416z" />
    <glyph glyph-name="emdash" unicode="&#x2014;" horiz-adv-x="722" 
d="M62 227v106h580v-106h-580z" />
    <glyph glyph-name="afii00208" unicode="&#x2015;" horiz-adv-x="744" 
d="M62 227v106h580v-106h-580z" />
    <glyph glyph-name="quoteleft" unicode="&#x2018;" horiz-adv-x="282" 
d="M175 630l40 -55q-31 -17 -41 -33q23 -4 30 -18t7 -46q0 -44 -13.5 -55t-68.5 -11t-68.5 11.5t-13.5 54.5q0 49 29.5 83.5t98.5 68.5z" />
    <glyph glyph-name="quoteright" unicode="&#x2019;" horiz-adv-x="273" 
d="M91 418l-42 54q32 18 43 33q-24 5 -31 19t-7 46q0 43 14 54t69 11q54 0 67 -11t13 -54q0 -49 -29 -83.5t-97 -68.5z" />
    <glyph glyph-name="quotesinglbase" unicode="&#x201a;" horiz-adv-x="292" 
d="M93 -84l-41 55q31 16 41 32q-23 5 -30 19t-7 46q0 43 13.5 54t69.5 11q54 0 67.5 -11t13.5 -54q0 -49 -29 -83.5t-98 -68.5z" />
    <glyph glyph-name="quotedblleft" unicode="&#x201c;" horiz-adv-x="469" 
d="M174 631l41 -55q-30 -16 -41 -33q23 -5 30 -19t7 -46q0 -43 -13.5 -54t-68.5 -11t-68.5 11t-13.5 54q0 50 29 84t98 69zM374 631l40 -55q-29 -16 -41 -33q23 -5 30 -19t7 -46q0 -43 -13.5 -54t-68.5 -11t-68.5 11t-13.5 54q0 50 29 84t99 69z" />
    <glyph glyph-name="quotedblright" unicode="&#x201d;" horiz-adv-x="459" 
d="M289 414l-41 55q31 17 41 33q-23 4 -30 18t-7 46q0 43 13.5 54.5t69.5 11.5q54 0 67.5 -11.5t13.5 -54.5q0 -49 -29 -83.5t-98 -68.5zM90 414l-42 55q31 16 42 33q-23 4 -30 18t-7 46q0 44 13 55t68 11t68.5 -11.5t13.5 -54.5q0 -49 -29 -83.5t-97 -68.5z" />
    <glyph glyph-name="quotedblbase" unicode="&#x201e;" horiz-adv-x="478" 
d="M93 -84l-41 55q31 16 41 32q-23 5 -30 19t-7 46q0 43 13.5 54t69.5 11q54 0 67.5 -11t13.5 -54q0 -49 -29 -83.5t-98 -68.5zM292 -84l-41 55q32 16 41 32q-23 5 -30 19t-7 46q0 43 13.5 54t69.5 11q54 0 67.5 -11t13.5 -54q0 -49 -29 -83.5t-98 -68.5z" />
    <glyph glyph-name="dagger" unicode="&#x2020;" horiz-adv-x="540" 
d="M30 501h157v154h147v-154h158v-95h-158v-406h-147v406h-157v95z" />
    <glyph glyph-name="daggerdbl" unicode="&#x2021;" horiz-adv-x="589" 
d="M55 501h157v154h146v-154h158v-95h-158v-158h158v-95h-158v-153h-146v153h-157v95h157v158h-157v95z" />
    <glyph glyph-name="bullet" unicode="&#x2022;" horiz-adv-x="474" 
d="M78 324q0 53 42 91t102 38t102.5 -38t42.5 -91t-42.5 -91t-102.5 -38t-102 38t-42 91z" />
    <glyph glyph-name="ellipsis" unicode="&#x2026;" horiz-adv-x="766" 
d="M55 66q0 44 14 55.5t69 11.5t69.5 -11.5t14.5 -55.5q0 -42 -14.5 -55t-69.5 -13t-69 12.5t-14 55.5zM296 66q0 44 13.5 55.5t70.5 11.5q54 0 68.5 -11.5t14.5 -55.5q0 -42 -14.5 -55t-68.5 -13q-56 0 -70 12.5t-14 55.5zM531 66q0 44 14 55.5t69 11.5t69.5 -11.5
t14.5 -55.5q0 -42 -14 -55t-70 -13q-55 0 -69 12.5t-14 55.5z" />
    <glyph glyph-name="perthousand" unicode="&#x2030;" horiz-adv-x="1158" 
d="M628 -2q-86 0 -117 29t-31 130q0 55 6 85.5t25.5 47.5t46 22t76.5 5q78 0 107.5 -32.5t29.5 -127.5q0 -92 -28 -125.5t-115 -33.5zM626 249q-28 0 -34 -15.5t-6 -75.5v-18q0 -47 6 -59.5t36 -12.5q13 1 17.5 2t11 5t7.5 14t2.5 25.5t1.5 43.5q0 58 -7.5 74.5t-34.5 16.5z
M972 -2q-86 0 -117 29t-31 130q0 55 6 85.5t25.5 47.5t46 22t76.5 5q78 0 107 -32.5t29 -127.5q0 -92 -27.5 -125.5t-114.5 -33.5zM970 249q-28 0 -34 -15.5t-6 -75.5v-18q0 -47 6 -59.5t35 -12.5q28 2 34 14t6 76q0 58 -7 74.5t-34 16.5zM190 354q-44 0 -68.5 5t-44 21.5
t-27 48.5t-7.5 85q0 55 6 85t25.5 47.5t45.5 22t76 4.5q79 0 108.5 -32t29.5 -127q0 -92 -28.5 -126t-115.5 -34zM188 605q-27 0 -33 -15t-6 -76v-18q0 -47 6 -59t35 -12q20 1 26.5 4.5t10.5 21.5t4 63q0 58 -8 74.5t-35 16.5zM665 667l-432 -667h-104l432 667h104z" />
    <glyph glyph-name="guilsinglleft" unicode="&#x2039;" horiz-adv-x="357" 
d="M37 251l159 215l108 -59l-116 -156l116 -154l-108 -60z" />
    <glyph glyph-name="guilsinglright" unicode="&#x203a;" horiz-adv-x="357" 
d="M151 466l160 -215l-160 -214l-106 60l114 154l-114 156z" />
    <glyph glyph-name="fraction" unicode="&#x2044;" horiz-adv-x="431" 
d="M409 628l-289 -670l-119 47l289 669z" />
    <glyph glyph-name="Euro" unicode="&#x20ac;" horiz-adv-x="725" 
d="M38 361v51h87q4 75 17 122t44.5 81.5t86 49t139.5 14.5q106 0 243 -16v-88q-187 13 -217 13q-90 0 -121.5 -36t-36.5 -140h280v-51h-282v-55h282v-51h-281q2 -36 6.5 -62t10.5 -44t18.5 -30t23.5 -18.5t33 -10t38.5 -4t48.5 -0.5q52 0 202 4v-77q-97 -22 -240 -22
q-78 0 -129 11t-89 40.5t-56 81t-22 131.5h-86v51h85v55h-85z" />
    <glyph glyph-name="afii61352" unicode="&#x2116;" horiz-adv-x="1095" 
d="M670 0h-178l-268 450v-450h-144v668h168l274 -464v464h148v-668zM894 361q-45 0 -70 5t-44.5 21.5t-27 48t-7.5 84.5q0 55 6 85.5t25.5 47.5t46 22t76.5 5q78 0 107.5 -32.5t29.5 -127.5q0 -92 -28 -125.5t-114 -33.5zM890 612q-27 0 -33 -16t-6 -75v-19q0 -46 6 -58.5
t36 -12.5q20 1 26.5 5t10 22t3.5 63q0 57 -8 74t-35 17zM1045 257h-307v75h307v-75z" />
    <glyph glyph-name="trademark" unicode="&#x2122;" horiz-adv-x="617" 
d="M189 452h-60v174h-67v45h194v-45h-67v-174zM337 452h-60v219h66l53 -107l58 107h65v-219h-59v112l-40 -75h-45l-38 76v-113z" />
    <glyph glyph-name="minus" unicode="&#x2212;" horiz-adv-x="559" 
d="M71 200v97h396v-97h-396z" />
    <glyph glyph-name="lessequal" unicode="&#x2264;" horiz-adv-x="678" 
d="M578 245l-512 180v65l513 180v-104l-330 -108l329 -109v-104zM67 112v97h510v-97h-510z" />
    <glyph glyph-name="greaterequal" unicode="&#x2265;" horiz-adv-x="678" 
d="M589 425l-512 -180v104l330 109l-331 108v104l513 -180v-65zM588 209v-97h-510v97h510z" />
    <glyph glyph-name="yen.001" horiz-adv-x="623" 
d="M223 281l-224 388h149l152 -275l161 275h148l-224 -388h136v-84h-430v84h132zM93 163h430v-83h-148v-80h-141v80h-141v83z" />
    <glyph glyph-name="Imacron" horiz-adv-x="307" 
d="M-3 726v84h298v-84h-298zM228 667v-667h-148v667h148z" />
    <glyph glyph-name="ampersand.salt" horiz-adv-x="717" 
d="M587 159l120 -159h-167l-54 68q-33 -27 -55 -41.5t-62 -28.5t-83 -14q-102 0 -176.5 60.5t-74.5 133.5q0 36 14 68t42.5 60.5t53 47.5t63.5 45l-23 40q-45 77 -45 109q0 69 48 95.5t135 24.5l227 -6v-80l-202 2q-50 0 -50 -37q0 -21 24.5 -60.5t52.5 -74t72.5 -87.5
t62.5 -76l52 43l83 -83zM401 166q-16 20 -52 64.5t-56 68.5q-5 -3 -18.5 -13t-20 -15t-18 -14.5t-17.5 -16t-13 -15.5t-10 -17.5t-3 -17.5q0 -34 30.5 -61.5t60.5 -27.5q12 0 22.5 2.5t23.5 10.5t20.5 13t25 19t25.5 20z" />
    </font>
</defs>
</svg>
